<svg width="106" height="18" viewBox="0 0 106 18" fill="none" xmlns="http://www.w3.org/2000/svg">
<path d="M9.44571 1.60371L10.8807 6.01958C10.9976 6.37959 11.3333 6.62328 11.7117 6.62328H16.3548C17.2014 6.62328 17.5532 7.70645 16.8685 8.20402L13.1121 10.9333C12.8059 11.1558 12.6777 11.5503 12.7948 11.9103L14.2298 16.3262C14.4913 17.1311 13.5701 17.8005 12.8851 17.3032L9.12871 14.5739C8.82247 14.3515 8.40783 14.3515 8.10159 14.5739L4.34519 17.3032C3.66053 17.8008 2.73898 17.1314 3.0005 16.3262L4.43547 11.9103C4.55237 11.5503 4.42443 11.156 4.11819 10.9333L0.361791 8.20402C-0.322864 7.70645 0.028944 6.62328 0.875493 6.62328H5.51864C5.89705 6.62328 6.23273 6.37959 6.34962 6.01958L7.78459 1.60371C8.04555 0.798764 9.18419 0.798764 9.44571 1.60371Z" fill="url(#paint0_linear_1875_2609)"/>
<path d="M31.4457 1.60371L32.8807 6.01958C32.9976 6.37959 33.3333 6.62328 33.7117 6.62328H38.3548C39.2014 6.62328 39.5532 7.70645 38.8685 8.20402L35.1121 10.9333C34.8059 11.1558 34.6777 11.5503 34.7948 11.9103L36.2298 16.3262C36.4913 17.1311 35.5701 17.8005 34.8851 17.3032L31.1287 14.5739C30.8225 14.3515 30.4078 14.3515 30.1016 14.5739L26.3452 17.3032C25.6605 17.8008 24.739 17.1314 25.0005 16.3262L26.4355 11.9103C26.5524 11.5503 26.4244 11.156 26.1182 10.9333L22.3618 8.20402C21.6771 7.70645 22.0289 6.62328 22.8755 6.62328H27.5186C27.8971 6.62328 28.2327 6.37959 28.3496 6.01958L29.7846 1.60371C30.0455 0.798764 31.1842 0.798764 31.4457 1.60371Z" fill="url(#paint1_linear_1875_2609)"/>
<path d="M53.4457 1.60371L54.8807 6.01958C54.9976 6.37959 55.3333 6.62328 55.7117 6.62328H60.3548C61.2014 6.62328 61.5532 7.70645 60.8685 8.20402L57.1121 10.9333C56.8059 11.1558 56.6777 11.5503 56.7948 11.9103L58.2298 16.3262C58.4913 17.1311 57.5701 17.8005 56.8851 17.3032L53.1287 14.5739C52.8225 14.3515 52.4078 14.3515 52.1016 14.5739L48.3452 17.3032C47.6605 17.8008 46.739 17.1314 47.0005 16.3262L48.4355 11.9103C48.5524 11.5503 48.4244 11.156 48.1182 10.9333L44.3618 8.20402C43.6771 7.70645 44.0289 6.62328 44.8755 6.62328H49.5186C49.8971 6.62328 50.2327 6.37959 50.3496 6.01958L51.7846 1.60371C52.0455 0.798764 53.1842 0.798764 53.4457 1.60371Z" fill="url(#paint2_linear_1875_2609)"/>
<path d="M75.4457 1.60371L76.8807 6.01958C76.9976 6.37959 77.3333 6.62328 77.7117 6.62328H82.3548C83.2014 6.62328 83.5532 7.70645 82.8685 8.20402L79.1121 10.9333C78.8059 11.1558 78.6777 11.5503 78.7948 11.9103L80.2298 16.3262C80.4913 17.1311 79.5701 17.8005 78.8851 17.3032L75.1287 14.5739C74.8225 14.3515 74.4078 14.3515 74.1016 14.5739L70.3452 17.3032C69.6605 17.8008 68.739 17.1314 69.0005 16.3262L70.4355 11.9103C70.5524 11.5503 70.4244 11.156 70.1182 10.9333L66.3618 8.20402C65.6771 7.70645 66.0289 6.62328 66.8755 6.62328H71.5186C71.8971 6.62328 72.2327 6.37959 72.3496 6.01958L73.7846 1.60371C74.0455 0.798764 75.1842 0.798764 75.4457 1.60371Z" fill="url(#paint3_linear_1875_2609)"/>
<path d="M97.4457 1.60371L98.8807 6.01958C98.9976 6.37959 99.3333 6.62328 99.7117 6.62328H104.355C105.201 6.62328 105.553 7.70645 104.869 8.20402L101.112 10.9333C100.806 11.1558 100.678 11.5503 100.795 11.9103L102.23 16.3262C102.491 17.1311 101.57 17.8005 100.885 17.3032L97.1287 14.5739C96.8225 14.3515 96.4078 14.3515 96.1016 14.5739L92.3452 17.3032C91.6605 17.8008 90.739 17.1314 91.0005 16.3262L92.4355 11.9103C92.5524 11.5503 92.4244 11.156 92.1182 10.9333L88.3618 8.20402C87.6771 7.70645 88.0289 6.62328 88.8755 6.62328H93.5186C93.8971 6.62328 94.2327 6.37959 94.3496 6.01958L95.7846 1.60371C96.0455 0.798764 97.1842 0.798764 97.4457 1.60371Z" fill="white" stroke="#003B80"/>
<defs>
<linearGradient id="paint0_linear_1875_2609" x1="-8.86761" y1="-1.08058" x2="20.3052" y2="30.4549" gradientUnits="userSpaceOnUse">
<stop stop-color="#0965CE"/>
<stop offset="1" stop-color="#01152C"/>
</linearGradient>
<linearGradient id="paint1_linear_1875_2609" x1="13.1324" y1="-1.08058" x2="42.3052" y2="30.4549" gradientUnits="userSpaceOnUse">
<stop stop-color="#0965CE"/>
<stop offset="1" stop-color="#01152C"/>
</linearGradient>
<linearGradient id="paint2_linear_1875_2609" x1="35.1324" y1="-1.08058" x2="64.3052" y2="30.4549" gradientUnits="userSpaceOnUse">
<stop stop-color="#0965CE"/>
<stop offset="1" stop-color="#01152C"/>
</linearGradient>
<linearGradient id="paint3_linear_1875_2609" x1="57.1324" y1="-1.08058" x2="86.3052" y2="30.4549" gradientUnits="userSpaceOnUse">
<stop stop-color="#0965CE"/>
<stop offset="1" stop-color="#01152C"/>
</linearGradient>
</defs>
</svg>
