<svg width="96" height="96" viewBox="0 0 96 96" fill="none" xmlns="http://www.w3.org/2000/svg">
<path d="M55.6804 78.6961C62.0209 77.2775 68.0434 74.0765 72.9469 69.0923C86.3236 55.496 86.2369 33.3455 72.7594 19.8492C58.8162 5.88685 36.0135 6.17185 22.4318 20.7042C9.9833 34.0242 9.93867 54.95 22.3332 68.3202C27.3987 73.7847 33.7624 77.2512 40.4757 78.7246C41.0851 78.8585 41.6033 79.2549 41.8707 79.8185L46.2792 89.1177C46.9973 90.6323 49.1528 90.6323 49.8709 89.1177L54.2941 79.7881C54.5599 79.2271 55.0744 78.8318 55.6804 78.6961Z" fill="#C6C6C6"/>
<path d="M40.9613 77.2762C40.905 77.2762 40.8488 77.2725 40.7963 77.2575C34.1175 75.795 28.1138 72.3487 23.4338 67.3012C17.7113 61.1287 14.5575 53.0512 14.5613 44.565C14.5575 36.0262 17.745 27.915 23.5275 21.7275C29.9363 14.865 38.6288 11.085 48 11.085H48.0075C50.9063 11.085 53.7825 11.4562 56.5538 12.18C59.3063 12.9024 61.9543 13.9762 64.4325 15.375C64.7925 15.5775 64.92 16.0387 64.7175 16.3987C64.5225 16.7437 64.0425 16.8787 63.6938 16.6837C58.95 14.0025 53.5275 12.5887 48.0075 12.585C39.0563 12.5887 30.75 16.2 24.6225 22.7512C19.1025 28.6612 16.0613 36.405 16.0575 44.565C16.0613 52.6762 19.0688 60.3862 24.5325 66.2812C29.0063 71.1037 34.74 74.3925 41.1188 75.795C41.3138 75.8362 41.4825 75.9525 41.5913 76.125C41.6963 76.2937 41.7338 76.4925 41.6888 76.6875C41.6529 76.8539 41.5611 77.003 41.4288 77.1101C41.2965 77.2171 41.1315 77.2758 40.9613 77.2762ZM66.6038 18.3712C66.45 18.3712 66.3038 18.3262 66.1763 18.24C65.8388 18.0037 65.7525 17.535 65.9888 17.1937C66.2138 16.8675 66.7013 16.7775 67.0313 17.0062C67.3725 17.2425 67.455 17.7112 67.2188 18.0487C67.08 18.2512 66.8513 18.3712 66.6038 18.3712Z" fill="#999999"/>
<path d="M72.7594 19.8489C72.1255 19.2141 71.4678 18.6036 70.7877 18.0186C82.4667 31.6187 81.9574 52.3723 69.1969 65.3421C64.2934 70.3262 58.2709 73.5268 51.9304 74.9458C51.3244 75.0816 50.8095 75.4768 50.5437 76.0382L46.1209 85.3678C46.0107 85.6062 45.8536 85.8198 45.6588 85.996C45.4641 86.1722 45.2358 86.3072 44.9877 86.3931L46.2795 89.1178C46.9977 90.6324 49.1532 90.6324 49.8713 89.1178L54.294 79.7882C54.5599 79.2272 55.0748 78.8316 55.6808 78.6958C62.0213 77.2772 68.0438 74.0762 72.9473 69.0921C86.3239 55.4957 86.2373 33.3452 72.7594 19.8489Z" fill="#999999"/>
<path d="M72.7594 19.8492C72.4397 19.5289 72.1137 19.2149 71.7818 18.9072C84.3589 32.4725 84.1448 53.93 71.0719 67.2174C66.1684 72.2015 60.1459 75.4021 53.8054 76.8211C53.1994 76.9569 52.6846 77.3521 52.4187 77.9135L47.9959 87.2431C47.5902 88.0992 46.7251 88.4712 45.9196 88.3595L46.2792 89.1181C46.9973 90.6327 49.1528 90.6327 49.8709 89.1181L54.2937 79.7885C54.5596 79.2275 55.0744 78.8319 55.6804 78.6961C62.0209 77.2775 68.0434 74.0765 72.9469 69.0924C86.3239 55.496 86.2373 33.3455 72.7594 19.8492Z" fill="#606060"/>
<path d="M48 41.8765C54.1797 41.8765 59.1893 36.867 59.1893 30.6873C59.1893 24.5076 54.1797 19.498 48 19.498C41.8204 19.498 36.8108 24.5076 36.8108 30.6873C36.8108 36.867 41.8204 41.8765 48 41.8765Z" fill="#999999"/>
<path d="M48.7748 22.847L50.1128 26.9645C50.166 27.128 50.2696 27.2706 50.4087 27.3717C50.5479 27.4728 50.7155 27.5273 50.8875 27.5273H55.2169C56.0063 27.5273 56.3344 28.5372 55.6958 29.0011L52.1933 31.5458C52.0541 31.647 51.9505 31.7896 51.8974 31.9532C51.8442 32.1168 51.8442 32.2931 51.8974 32.4567L53.2354 36.5742C53.4791 37.325 52.62 37.949 51.9818 37.4851L48.4793 34.9403C48.3401 34.8392 48.1724 34.7848 48.0004 34.7848C47.8284 34.7848 47.6607 34.8392 47.5215 34.9403L44.019 37.4851C43.3804 37.949 42.5213 37.325 42.7654 36.5742L44.1034 32.4567C44.1565 32.2931 44.1565 32.1168 44.1034 31.9532C44.0502 31.7896 43.9467 31.647 43.8075 31.5458L40.305 29.0011C39.6664 28.5372 39.9945 27.5273 40.7839 27.5273H45.1125C45.4654 27.5273 45.7781 27.3001 45.8873 26.9645L47.2253 22.847C47.469 22.0966 48.531 22.0966 48.7748 22.847Z" fill="white"/>
<path d="M34.623 64.1109C40.8026 64.1109 45.8122 59.1013 45.8122 52.9217C45.8122 46.742 40.8026 41.7324 34.623 41.7324C28.4433 41.7324 23.4337 46.742 23.4337 52.9217C23.4337 59.1013 28.4433 64.1109 34.623 64.1109Z" fill="#999999"/>
<path d="M35.3977 45.0816L36.7357 49.1991C36.7889 49.3627 36.8925 49.5053 37.0317 49.6064C37.1708 49.7075 37.3384 49.762 37.5104 49.762H41.8398C42.6292 49.762 42.9573 50.7719 42.3187 51.2357L38.8162 53.7805C38.677 53.8816 38.5735 54.0243 38.5203 54.1879C38.4672 54.3515 38.4672 54.5277 38.5203 54.6914L39.8583 58.8089C40.1021 59.5596 39.2429 60.1836 38.6047 59.7197L35.1022 57.175C34.963 57.0739 34.7954 57.0194 34.6233 57.0194C34.4513 57.0194 34.2836 57.0739 34.1444 57.175L30.6419 59.7197C30.0033 60.1836 29.1442 59.5596 29.3883 58.8089L30.7263 54.6914C30.7795 54.5277 30.7795 54.3515 30.7263 54.1879C30.6732 54.0243 30.5696 53.8816 30.4304 53.7805L26.9279 51.2357C26.2893 50.7719 26.6174 49.762 27.4068 49.762H31.7362C32.0891 49.762 32.4018 49.5347 32.5109 49.1991L33.8489 45.0816C34.0919 44.3309 35.1539 44.3309 35.3977 45.0816Z" fill="white"/>
<path d="M61.377 64.1109C67.5566 64.1109 72.5662 59.1013 72.5662 52.9217C72.5662 46.742 67.5566 41.7324 61.377 41.7324C55.1973 41.7324 50.1877 46.742 50.1877 52.9217C50.1877 59.1013 55.1973 64.1109 61.377 64.1109Z" fill="#999999"/>
<path d="M62.1521 45.0816L63.4901 49.1991C63.5433 49.3627 63.6469 49.5053 63.7861 49.6064C63.9252 49.7075 64.0928 49.762 64.2648 49.762H68.5942C69.3836 49.762 69.7117 50.7719 69.0731 51.2357L65.5706 53.7805C65.4314 53.8816 65.3279 54.0243 65.2747 54.1879C65.2216 54.3515 65.2216 54.5277 65.2747 54.6914L66.6127 58.8089C66.8565 59.5596 65.9973 60.1836 65.3591 59.7197L61.8566 57.175C61.7174 57.0739 61.5498 57.0194 61.3777 57.0194C61.2057 57.0194 61.038 57.0739 60.8988 57.175L57.3963 59.7197C56.7577 60.1836 55.8986 59.5596 56.1427 58.8089L57.4807 54.6914C57.5339 54.5277 57.5339 54.3515 57.4807 54.1879C57.4276 54.0243 57.324 53.8816 57.1848 53.7805L53.6823 51.2357C53.0437 50.7719 53.3718 49.762 54.1612 49.762H58.4906C58.8435 49.762 59.1562 49.5347 59.2653 49.1991L60.6033 45.0816C60.846 44.3309 61.908 44.3309 62.1521 45.0816Z" fill="white"/>
</svg>
