<svg width="96" height="96" viewBox="0 0 96 96" fill="none" xmlns="http://www.w3.org/2000/svg">
<path d="M55.6804 78.6961C62.0209 77.2775 68.0434 74.0765 72.9469 69.0924C86.3235 55.496 86.2369 33.3455 72.7594 19.8492C58.8162 5.88685 36.0135 6.17185 22.4318 20.7042C9.9833 34.0242 9.93867 54.95 22.3332 68.3202C27.3987 73.7847 33.7624 77.2512 40.4757 78.7246C41.085 78.8585 41.6033 79.2549 41.8707 79.8185L46.2792 89.1177C46.9973 90.6324 49.1528 90.6324 49.8709 89.1177L54.294 79.7881C54.5599 79.2271 55.0744 78.8319 55.6804 78.6961Z" fill="#C6C6C6"/>
<path d="M40.9575 77.2762C40.905 77.2762 40.8488 77.2725 40.7963 77.2612C34.1172 75.795 28.1138 72.3487 23.4338 67.3012C17.7109 61.125 14.5572 53.0512 14.5613 44.565C14.5572 36.0262 17.7447 27.915 23.5275 21.7275C29.94 14.865 38.6288 11.085 48.0038 11.085H48.0075C50.9063 11.085 53.7825 11.4562 56.5538 12.18C59.3063 12.9037 61.9575 13.9762 64.4325 15.375C64.6054 15.4725 64.7329 15.6337 64.785 15.8287C64.8413 16.02 64.815 16.2225 64.7175 16.3987C64.5222 16.7437 64.0425 16.8787 63.6938 16.68C58.9504 14.0025 53.5279 12.585 48.0075 12.585C39.0559 12.5887 30.75 16.2 24.6225 22.7512C19.1022 28.6612 16.0572 36.4087 16.0572 44.565C16.0572 52.6725 19.0684 60.3862 24.5325 66.2812C29.0063 71.1037 34.74 74.3925 41.1184 75.795C41.3138 75.8362 41.4825 75.9525 41.5913 76.1212C41.6959 76.29 41.7338 76.4925 41.6888 76.6875C41.6172 77.0287 41.3059 77.2762 40.9575 77.2762ZM66.6034 18.3712C66.45 18.3712 66.3034 18.3262 66.1759 18.2362H66.1722C66.0109 18.12 65.9022 17.9512 65.8647 17.7562C65.8309 17.5575 65.8725 17.3587 65.9884 17.1937C66.2134 16.8675 66.7009 16.7775 67.0275 17.0025C67.0313 17.0025 67.0313 17.0025 67.0313 17.0062C67.3684 17.2425 67.455 17.7075 67.2188 18.0487C67.08 18.2512 66.8475 18.3712 66.6034 18.3712Z" fill="#999999"/>
<path d="M72.7594 19.8489C72.12 19.2088 71.4623 18.5987 70.7877 18.0186C82.4667 31.6187 81.9574 52.3723 69.1969 65.3421C64.2934 70.3262 58.2709 73.5268 51.9304 74.9458C51.3244 75.0816 50.8095 75.4768 50.5437 76.0382L46.1209 85.3678C45.8742 85.8887 45.4572 86.2303 44.9877 86.3931L46.2795 89.1178C46.9977 90.6324 49.1532 90.6324 49.8713 89.1178L54.294 79.7882C54.5599 79.2272 55.0748 78.8316 55.6808 78.6958C62.0213 77.2772 68.0438 74.0762 72.9473 69.0921C86.3239 55.4957 86.2373 33.3452 72.7594 19.8489Z" fill="#999999"/>
<path d="M72.7594 19.8492C72.4384 19.5275 72.1122 19.2136 71.7818 18.9072C84.3589 32.4725 84.1448 53.93 71.0719 67.2173C66.1684 72.2015 60.1459 75.4021 53.8054 76.8211C53.1994 76.9568 52.6846 77.3521 52.4187 77.9135L47.9959 87.2431C47.5902 88.0992 46.7251 88.4712 45.9196 88.3595L46.2792 89.1181C46.9973 90.6327 49.1528 90.6327 49.8709 89.1181L54.2937 79.7885C54.5596 79.2275 55.0744 78.8318 55.6804 78.6961C62.0209 77.2775 68.0434 74.0765 72.9469 69.0923C86.3239 55.496 86.2373 33.3455 72.7594 19.8492Z" fill="#606060"/>
<path d="M48.0001 60.0817C56.781 60.0817 63.8993 52.9634 63.8993 44.1825C63.8993 35.4015 56.781 28.2832 48.0001 28.2832C39.2192 28.2832 32.1008 35.4015 32.1008 44.1825C32.1008 52.9634 39.2192 60.0817 48.0001 60.0817Z" fill="#999999"/>
<path d="M49.2581 32.8829L51.1594 38.7336C51.3143 39.2106 51.759 39.5335 52.2604 39.5335H58.4123C59.5339 39.5335 60 40.9686 59.0929 41.6279L54.1159 45.244C53.7101 45.5388 53.5403 46.0615 53.6955 46.5385L55.5968 52.3893C55.9433 53.4558 54.7226 54.3426 53.8151 53.6838L48.8381 50.0676C48.4324 49.7729 47.883 49.7729 47.4773 50.0676L42.5003 53.6838C41.5931 54.343 40.3721 53.4561 40.7186 52.3893L42.6199 46.5385C42.7748 46.0615 42.6053 45.5391 42.1995 45.244L37.2225 41.6279C36.3154 40.9686 36.7815 39.5335 37.9031 39.5335H44.055C44.5564 39.5335 45.0011 39.2106 45.156 38.7336L47.0573 32.8829C47.403 31.8164 48.9116 31.8164 49.2581 32.8829Z" fill="white"/>
</svg>
