<svg width="28" height="28" viewBox="0 0 28 28" fill="none" xmlns="http://www.w3.org/2000/svg">
<path d="M15.5 23.3333C15.5 23.0239 15.3771 22.7272 15.1583 22.5084C14.9395 22.2896 14.6428 22.1667 14.3334 22.1667H13.1667V19.8333H17.8334C18.4522 19.8333 19.0457 19.5875 19.4833 19.1499C19.9209 18.7123 20.1667 18.1188 20.1667 17.5V5.83333C20.1667 5.21449 19.9209 4.621 19.4833 4.18342C19.0457 3.74583 18.4522 3.5 17.8334 3.5H6.16671C5.54787 3.5 4.95438 3.74583 4.51679 4.18342C4.07921 4.621 3.83337 5.21449 3.83337 5.83333V17.5C3.83337 18.1188 4.07921 18.7123 4.51679 19.1499C4.95438 19.5875 5.54787 19.8333 6.16671 19.8333H10.8334V22.1667H9.66671C9.35729 22.1667 9.06054 22.2896 8.84175 22.5084C8.62296 22.7272 8.50004 23.0239 8.50004 23.3333H0.333374V25.6667H8.50004C8.50004 25.9761 8.62296 26.2728 8.84175 26.4916C9.06054 26.7104 9.35729 26.8333 9.66671 26.8333H14.3334C14.6428 26.8333 14.9395 26.7104 15.1583 26.4916C15.3771 26.2728 15.5 25.9761 15.5 25.6667H23.6667V23.3333H15.5ZM7.62504 11.76L8.97837 10.4067L10.8334 12.25L15.0217 8.07333L16.375 9.71833L10.8334 15.26L7.62504 11.76Z" fill="#003B80"/>
</svg>
