<svg width="28" height="28" viewBox="0 0 28 28" fill="none" xmlns="http://www.w3.org/2000/svg">
<path d="M3.39998 2.7998C2.65737 2.7998 1.94518 3.0948 1.42008 3.61991C0.894975 4.14501 0.599976 4.8572 0.599976 5.5998V22.3998C0.599976 23.1424 0.894975 23.8546 1.42008 24.3797C1.94518 24.9048 2.65737 25.1998 3.39998 25.1998H9.35978C9.0032 24.768 8.69478 24.2985 8.43998 23.7998H3.39998C3.02867 23.7998 2.67258 23.6523 2.41003 23.3898C2.14748 23.1272 1.99998 22.7711 1.99998 22.3998H7.88978C7.51535 21.0809 7.49984 19.686 7.84485 18.3591C8.18987 17.0323 8.88289 15.8216 9.85233 14.8522C10.8218 13.8827 12.0325 13.1897 13.3593 12.8447C14.6862 12.4997 16.0811 12.5152 17.4 12.8896V5.5998C17.4 4.8572 17.105 4.14501 16.5799 3.61991C16.0548 3.0948 15.3426 2.7998 14.6 2.7998H3.39998ZM4.44998 6.2998H13.55C13.8285 6.2998 14.0955 6.41043 14.2924 6.60734C14.4893 6.80426 14.6 7.07133 14.6 7.3498C14.6 7.62828 14.4893 7.89535 14.2924 8.09227C14.0955 8.28918 13.8285 8.39981 13.55 8.39981H4.44998C4.1715 8.39981 3.90443 8.28918 3.70751 8.09227C3.5106 7.89535 3.39998 7.62828 3.39998 7.3498C3.39998 7.07133 3.5106 6.80426 3.70751 6.60734C3.90443 6.41043 4.1715 6.2998 4.44998 6.2998ZM21.6 20.2998C21.6 21.9707 20.9362 23.5731 19.7547 24.7546C18.5733 25.9361 16.9708 26.5998 15.3 26.5998C13.6291 26.5998 12.0267 25.9361 10.8452 24.7546C9.66372 23.5731 8.99998 21.9707 8.99998 20.2998C8.99998 18.6289 9.66372 17.0265 10.8452 15.845C12.0267 14.6636 13.6291 13.9998 15.3 13.9998C16.9708 13.9998 18.5733 14.6636 19.7547 15.845C20.9362 17.0265 21.6 18.6289 21.6 20.2998ZM14.628 17.5474C14.5372 17.4851 14.4317 17.4475 14.322 17.4384C14.2122 17.4293 14.102 17.449 14.0022 17.4956C13.9207 17.5315 13.847 17.5828 13.7852 17.6468C13.6548 17.7804 13.5819 17.9599 13.5822 18.1466V22.4516C13.5813 22.5444 13.5988 22.6365 13.6336 22.7225C13.6685 22.8085 13.72 22.8868 13.7852 22.9528C13.8491 23.0163 13.9234 23.0684 14.005 23.1068C14.147 23.1719 14.3082 23.1819 14.4572 23.1348C14.5217 23.1135 14.583 23.0834 14.6392 23.0452L17.8536 20.8514C17.9514 20.787 18.0302 20.6975 18.0818 20.5924C18.135 20.4865 18.1623 20.3695 18.1616 20.251C18.1609 20.1325 18.1321 20.0158 18.0776 19.9106C18.0228 19.807 17.9423 19.7192 17.8438 19.6558L14.628 17.5474Z" fill="#003B80"/>
</svg>
