<svg width="96" height="96" viewBox="0 0 96 96" fill="none" xmlns="http://www.w3.org/2000/svg">
<path d="M55.6804 78.6961C62.0209 77.2775 68.0434 74.0765 72.9469 69.0923C86.3235 55.496 86.2369 33.3455 72.7594 19.8492C58.8162 5.88685 36.0135 6.17185 22.4318 20.7042C9.9833 34.0242 9.93867 54.95 22.3332 68.3202C27.3987 73.7847 33.7624 77.2512 40.4757 78.7246C41.085 78.8585 41.6033 79.2549 41.8707 79.8185L46.2792 89.1177C46.9973 90.6323 49.1528 90.6323 49.8709 89.1177L54.294 79.7881C54.5599 79.2271 55.0744 78.8318 55.6804 78.6961Z" fill="#C6C6C6"/>
<path d="M40.9575 77.2764C40.905 77.2764 40.8488 77.2726 40.7963 77.2614C34.1175 75.7951 28.1138 72.3489 23.4338 67.3014C17.7113 61.1289 14.5575 53.0551 14.5613 44.5651C14.5575 36.0264 17.745 27.9151 23.5275 21.7276C29.94 14.8651 38.6288 11.0889 48 11.0889H48.0075C50.9063 11.0889 53.7825 11.4564 56.5538 12.1801C59.3063 12.9025 61.9543 13.9764 64.4325 15.3751C64.7925 15.5776 64.92 16.0389 64.7175 16.3989C64.5225 16.7439 64.0463 16.8789 63.6938 16.6801C58.95 14.0026 53.5275 12.5889 48.0075 12.5851C39.0563 12.5889 30.75 16.2001 24.6225 22.7514C19.1025 28.6614 16.0613 36.4089 16.0613 44.5651C16.0613 52.6764 19.0688 60.3864 24.5325 66.2814C29.0063 71.1039 34.74 74.3926 41.1188 75.7951C41.5238 75.8851 41.7788 76.2864 41.6925 76.6876C41.6538 76.854 41.5603 77.0025 41.427 77.1093C41.2937 77.2161 41.1283 77.2749 40.9575 77.2764ZM66.6038 18.3714C66.45 18.3714 66.3038 18.3264 66.1763 18.2401C66.1763 18.2364 66.1725 18.2364 66.1725 18.2364C66.0113 18.1201 65.9025 17.9514 65.865 17.7564C65.8313 17.5576 65.8725 17.3589 65.9888 17.1939C66.2138 16.8676 66.7013 16.7776 67.0313 17.0064C67.3725 17.2426 67.455 17.7076 67.2225 18.0489C67.08 18.2514 66.8513 18.3714 66.6038 18.3714Z" fill="#999999"/>
<path d="M72.7594 19.8489C72.1255 19.2141 71.4678 18.6036 70.7877 18.0186C82.4667 31.6187 81.9574 52.3723 69.1969 65.3421C64.2934 70.3262 58.2709 73.5268 51.9304 74.9458C51.3244 75.0816 50.8095 75.4768 50.5437 76.0382L46.1209 85.3678C46.0107 85.6062 45.8536 85.8198 45.6588 85.996C45.4641 86.1722 45.2358 86.3072 44.9877 86.3931L46.2795 89.1178C46.9977 90.6324 49.1532 90.6324 49.8713 89.1178L54.294 79.7882C54.5599 79.2272 55.0748 78.8316 55.6808 78.6958C62.0213 77.2772 68.0438 74.0762 72.9473 69.0921C86.3239 55.4957 86.2373 33.3452 72.7594 19.8489Z" fill="#999999"/>
<path d="M72.7594 19.8492C72.4397 19.5289 72.1137 19.2149 71.7818 18.9072C84.3589 32.4725 84.1448 53.93 71.0719 67.2174C66.1684 72.2015 60.1459 75.4021 53.8054 76.8211C53.1994 76.9569 52.6846 77.3521 52.4187 77.9135L47.9959 87.2431C47.5902 88.0992 46.7251 88.4712 45.9196 88.3595L46.2792 89.1181C46.9973 90.6327 49.1528 90.6327 49.8709 89.1181L54.2937 79.7885C54.5596 79.2275 55.0744 78.8319 55.6804 78.6961C62.0209 77.2775 68.0434 74.0765 72.9469 69.0924C86.3239 55.496 86.2373 33.3455 72.7594 19.8492Z" fill="#606060"/>
<path d="M33.2051 56.5423C40.0313 56.5423 45.5651 51.0085 45.5651 44.1823C45.5651 37.356 40.0313 31.8223 33.2051 31.8223C26.3789 31.8223 20.8451 37.356 20.8451 44.1823C20.8451 51.0085 26.3789 56.5423 33.2051 56.5423Z" fill="#999999"/>
<path d="M62.7948 56.5423C69.6211 56.5423 75.1548 51.0085 75.1548 44.1823C75.1548 37.356 69.6211 31.8223 62.7948 31.8223C55.9686 31.8223 50.4348 37.356 50.4348 44.1823C50.4348 51.0085 55.9686 56.5423 62.7948 56.5423Z" fill="#999999"/>
<path d="M34.0609 35.4597L35.5388 40.0081C35.5975 40.1888 35.7119 40.3463 35.8657 40.458C36.0194 40.5697 36.2045 40.6298 36.3945 40.6299H41.1769C42.0488 40.6299 42.411 41.7455 41.706 42.2577L37.8368 45.0687C37.683 45.1804 37.5686 45.3379 37.5098 45.5187C37.4511 45.6994 37.4511 45.8941 37.5098 46.0749L38.9876 50.6232C39.2569 51.4524 38.3081 52.142 37.6028 51.6294L33.7335 48.8184C33.5798 48.7067 33.3946 48.6465 33.2046 48.6465C33.0146 48.6465 32.8294 48.7067 32.6756 48.8184L28.8064 51.6294C28.101 52.142 27.1519 51.4524 27.4215 50.6232L28.8994 46.0749C28.9581 45.8941 28.9581 45.6994 28.8993 45.5187C28.8406 45.3379 28.7261 45.1804 28.5724 45.0687L24.7031 42.2577C23.9978 41.7451 24.3604 40.6299 25.2323 40.6299H30.0146C30.4046 40.6299 30.75 40.379 30.8704 40.0081L32.3483 35.4597C32.6186 34.6306 33.7916 34.6306 34.0609 35.4597ZM63.651 35.4597L65.1289 40.0081C65.1876 40.1888 65.3021 40.3463 65.4558 40.458C65.6095 40.5697 65.7946 40.6298 65.9846 40.6299H70.767C71.6389 40.6299 72.0011 41.7455 71.2961 42.2577L67.4269 45.0687C67.2731 45.1804 67.1587 45.3379 67.1 45.5187C67.0412 45.6994 67.0412 45.8941 67.0999 46.0749L68.5778 50.6232C68.847 51.4524 67.8983 52.142 67.1929 51.6294L63.3237 48.8184C63.1699 48.7067 62.9847 48.6465 62.7947 48.6465C62.6047 48.6465 62.4195 48.7067 62.2658 48.8184L58.3965 51.6294C57.6911 52.142 56.7424 51.4524 57.0117 50.6232L58.4895 46.0749C58.5482 45.8941 58.5482 45.6994 58.4895 45.5187C58.4307 45.3379 58.3163 45.1804 58.1625 45.0687L54.2933 42.2577C53.5879 41.7451 53.9505 40.6299 54.8224 40.6299H59.6048C59.9948 40.6299 60.3401 40.379 60.4605 40.0081L61.9384 35.4597C62.2084 34.6306 63.3814 34.6306 63.651 35.4597Z" fill="white"/>
</svg>
