<svg width="28" height="28" viewBox="0 0 28 28" fill="none" xmlns="http://www.w3.org/2000/svg">
<path d="M8.74002 14.8747L10 13.918L11.2484 14.863C11.7034 15.2013 12.3217 14.7697 12.1584 14.2213L11.6684 12.6347L13.0684 11.5263C13.5 11.1997 13.255 10.4997 12.695 10.4997H11.0617L10.56 8.93634C10.5217 8.81963 10.4474 8.71802 10.3479 8.64598C10.2484 8.57394 10.1287 8.53515 10.0059 8.53515C9.883 8.53515 9.76329 8.57394 9.66378 8.64598C9.56427 8.71802 9.49005 8.81963 9.45169 8.93634L8.93835 10.4997H7.29335C6.74502 10.4997 6.50002 11.1997 6.93169 11.538L8.32002 12.6463L7.83002 14.233C7.66669 14.7813 8.28502 15.213 8.74002 14.8747ZM3.00002 25.2113C3.00002 26.0047 3.78169 26.5647 4.54002 26.3197L10 24.4997L15.46 26.3197C15.6358 26.3796 15.8233 26.3966 16.007 26.3693C16.1907 26.342 16.3651 26.2711 16.5158 26.1626C16.6666 26.0542 16.7891 25.9112 16.8734 25.7458C16.9576 25.5803 17.001 25.397 17 25.2113V17.8263C18.5044 16.1271 19.3344 13.9358 19.3334 11.6663C19.3334 6.50967 15.1567 2.33301 10 2.33301C4.84335 2.33301 0.666687 6.50967 0.666687 11.6663C0.666687 14.0347 1.55335 16.1813 3.00002 17.8263V25.2113ZM10 4.66634C13.8617 4.66634 17 7.80468 17 11.6663C17 15.528 13.8617 18.6663 10 18.6663C6.13835 18.6663 3.00002 15.528 3.00002 11.6663C3.00002 7.80468 6.13835 4.66634 10 4.66634Z" fill="#003B80"/>
</svg>
