<svg width="24" height="24" viewBox="0 0 24 24" fill="none" xmlns="http://www.w3.org/2000/svg">
<path d="M12 24C18.6274 24 24 18.6274 24 12C24 5.37258 18.6274 0 12 0C5.37258 0 0 5.37258 0 12C0 18.6274 5.37258 24 12 24Z" fill="url(#paint0_linear_1239_2858)"/>
<path d="M12.9496 3.4709L14.3846 7.88676C14.5015 8.24678 14.8372 8.49047 15.2156 8.49047H19.8587C20.7053 8.49047 21.0571 9.57364 20.3724 10.0712L16.616 12.8005C16.3098 13.0229 16.1816 13.4175 16.2987 13.7775L17.7337 18.1934C17.9952 18.9983 17.074 19.6677 16.389 19.1704L12.6326 16.4411C12.3264 16.2187 11.9117 16.2187 11.6055 16.4411L7.84909 19.1704C7.16444 19.668 6.24288 18.9986 6.50441 18.1934L7.93938 13.7775C8.05627 13.4175 7.92834 13.0232 7.6221 12.8005L3.8657 10.0712C3.18104 9.57364 3.53285 8.49047 4.3794 8.49047H9.02255C9.40096 8.49047 9.73663 8.24678 9.85353 7.88676L11.2885 3.4709C11.5495 2.66595 12.6881 2.66595 12.9496 3.4709Z" fill="#ECF5FF"/>
<defs>
<linearGradient id="paint0_linear_1239_2858" x1="-12.3516" y1="-3.03106" x2="30.254" y2="41.0038" gradientUnits="userSpaceOnUse">
<stop stop-color="#0965CE"/>
<stop offset="1" stop-color="#01152C"/>
</linearGradient>
</defs>
</svg>
