<svg width="28" height="28" viewBox="0 0 28 28" fill="none" xmlns="http://www.w3.org/2000/svg">
<g clip-path="url(#clip0_1227_7781)">
<path d="M9.00001 5.83329V2.57829C9.00001 2.05329 8.37001 1.79662 8.00835 2.16995L3.57501 6.59162C3.34168 6.82495 3.34168 7.18662 3.57501 7.41995L7.99668 11.8416C8.37001 12.2033 9.00001 11.9466 9.00001 11.4216V8.16662C13.3517 8.16662 16.7933 12.1566 15.8367 16.6716C15.2883 19.32 13.1417 21.455 10.505 22.0033C6.34001 22.8783 2.63001 20.02 2.07001 16.1583C2.02842 15.8841 1.89049 15.6336 1.68097 15.4519C1.47144 15.2702 1.20403 15.169 0.926679 15.1666C0.226679 15.1666 -0.333321 15.785 -0.239988 16.485C0.483346 21.6066 5.36001 25.3983 10.8783 24.325C14.5183 23.6133 17.4467 20.685 18.1583 17.045C19.3133 11.06 14.7633 5.83329 9.00001 5.83329Z" fill="#003B80"/>
</g>
<defs>
<clipPath id="clip0_1227_7781">
<rect width="28" height="28" fill="white"/>
</clipPath>
</defs>
</svg>
