<svg width="28" height="28" viewBox="0 0 28 28" fill="none" xmlns="http://www.w3.org/2000/svg">
<path d="M18.6667 4.40022H13.79C13.5511 3.69875 13.1062 3.09098 12.5168 2.66098C11.9274 2.23098 11.2226 2 10.5 2C9.77738 2 9.07262 2.23098 8.48322 2.66098C7.89381 3.09098 7.44889 3.69875 7.21 4.40022H2.33333C1.71506 4.40212 1.12264 4.65558 0.685457 5.10525C0.248272 5.55493 0.00184651 6.16427 0 6.80019V23.6C0.00184651 24.236 0.248272 24.8453 0.685457 25.295C1.12264 25.7446 1.71506 25.9981 2.33333 26H18.6667C19.2849 25.9981 19.8774 25.7446 20.3145 25.295C20.7517 24.8453 20.9982 24.236 21 23.6V6.80019C20.9982 6.16427 20.7517 5.55493 20.3145 5.10525C19.8774 4.65558 19.2849 4.40212 18.6667 4.40022ZM10.5 4.40022C10.7307 4.40022 10.9563 4.4706 11.1482 4.60245C11.34 4.73431 11.4896 4.92172 11.5779 5.14099C11.6662 5.36026 11.6893 5.60154 11.6442 5.83431C11.5992 6.06709 11.4881 6.2809 11.325 6.44873C11.1618 6.61655 10.9539 6.73084 10.7276 6.77714C10.5013 6.82344 10.2667 6.79967 10.0535 6.70885C9.84035 6.61803 9.65815 6.46422 9.52995 6.26688C9.40176 6.06955 9.33333 5.83754 9.33333 5.60021C9.33426 5.28224 9.45747 4.97757 9.67606 4.75274C9.89465 4.5279 10.1909 4.40117 10.5 4.40022ZM8.16667 10.4002L11.4217 13.7529L14.3617 10.729L12.8333 9.20017H17.5V14.0001L16.0113 12.4269L11.424 17.1489L8.16667 13.7961L5.14967 16.8969L3.5 15.2001L8.16667 10.4002ZM18.6667 22.4H2.33333V20.0001H18.6667V22.4Z" fill="#003B80"/>
</svg>
