<svg width="24" height="25" viewBox="0 0 24 25" fill="none" xmlns="http://www.w3.org/2000/svg">
<path d="M12 24.5C18.6274 24.5 24 19.1274 24 12.5C24 5.87258 18.6274 0.5 12 0.5C5.37258 0.5 0 5.87258 0 12.5C0 19.1274 5.37258 24.5 12 24.5Z" fill="white"/>
<path d="M12.9496 3.97126L14.3846 8.38713C14.5015 8.74715 14.8372 8.99084 15.2156 8.99084H19.8587C20.7053 8.99084 21.0571 10.074 20.3724 10.5716L16.616 13.3009C16.3098 13.5233 16.1816 13.9179 16.2987 14.2779L17.7337 18.6937C17.9952 19.4987 17.074 20.1681 16.389 19.6708L12.6326 16.9415C12.3264 16.719 11.9117 16.719 11.6055 16.9415L7.84909 19.6708C7.16444 20.1683 6.24288 19.499 6.50441 18.6937L7.93938 14.2779C8.05627 13.9179 7.92834 13.5236 7.6221 13.3009L3.8657 10.5716C3.18104 10.074 3.53285 8.99084 4.3794 8.99084H9.02255C9.40096 8.99084 9.73663 8.74715 9.85353 8.38713L11.2885 3.97126C11.5495 3.16632 12.6881 3.16632 12.9496 3.97126Z" fill="url(#paint0_linear_1436_10973)"/>
<defs>
<linearGradient id="paint0_linear_1436_10973" x1="-5.3637" y1="1.28697" x2="23.8091" y2="32.8224" gradientUnits="userSpaceOnUse">
<stop stop-color="#0965CE"/>
<stop offset="1" stop-color="#01152C"/>
</linearGradient>
</defs>
</svg>
