<svg width="28" height="28" viewBox="0 0 28 28" fill="none" xmlns="http://www.w3.org/2000/svg">
<g clip-path="url(#clip0_1227_7771)">
<path d="M10.5 4C16.2991 4 21 8.70085 21 14.5C21 20.2991 16.2991 25 10.5 25C4.70085 25 0 20.2991 0 14.5C0 8.70085 4.70085 4 10.5 4ZM10.5 8.2C10.2215 8.2 9.95445 8.31062 9.75754 8.50754C9.56062 8.70445 9.45 8.97152 9.45 9.25V14.5C9.45006 14.7785 9.56072 15.0455 9.75765 15.2423L12.9076 18.3923C13.1057 18.5836 13.3709 18.6894 13.6462 18.6871C13.9215 18.6847 14.1849 18.5742 14.3796 18.3796C14.5742 18.1849 14.6847 17.9215 14.6871 17.6462C14.6894 17.3709 14.5836 17.1057 14.3923 16.9076L11.55 14.0653V9.25C11.55 8.97152 11.4394 8.70445 11.2425 8.50754C11.0455 8.31062 10.7785 8.2 10.5 8.2Z" fill="#003B80"/>
</g>
<defs>
<clipPath id="clip0_1227_7771">
<rect width="28" height="28" fill="white"/>
</clipPath>
</defs>
</svg>
