<svg width="28" height="28" viewBox="0 0 28 28" fill="none" xmlns="http://www.w3.org/2000/svg">
<path d="M14 1.75C17.2489 1.75 20.3647 3.04062 22.6621 5.33794C24.9594 7.63526 26.25 10.7511 26.25 14C26.25 17.2489 24.9594 20.3647 22.6621 22.6621C20.3647 24.9594 17.2489 26.25 14 26.25C10.7511 26.25 7.63526 24.9594 5.33794 22.6621C3.04062 20.3647 1.75 17.2489 1.75 14C1.75 10.7511 3.04062 7.63526 5.33794 5.33794C7.63526 3.04062 10.7511 1.75 14 1.75ZM14 10.9375C14.1724 10.9375 14.343 10.9036 14.5023 10.8376C14.6615 10.7716 14.8062 10.675 14.9281 10.5531C15.05 10.4312 15.1466 10.2865 15.2126 10.1273C15.2786 9.96803 15.3125 9.79736 15.3125 9.625C15.3125 9.45264 15.2786 9.28197 15.2126 9.12273C15.1466 8.96349 15.05 8.8188 14.9281 8.69692C14.8062 8.57505 14.6615 8.47837 14.5023 8.41241C14.343 8.34645 14.1724 8.3125 14 8.3125C13.6524 8.3125 13.319 8.4506 13.0732 8.69641C12.8273 8.94222 12.6892 9.27562 12.6892 9.62325C12.6892 9.97088 12.8273 10.3043 13.0732 10.5501C13.319 10.7959 13.6524 10.934 14 10.934M14.875 13.1215C14.875 12.8894 14.7828 12.6669 14.6187 12.5028C14.4546 12.3387 14.2321 12.2465 14 12.2465C13.7679 12.2465 13.5454 12.3387 13.3813 12.5028C13.2172 12.6669 13.125 12.8894 13.125 13.1215V18.3715C13.125 18.6036 13.2172 18.8261 13.3813 18.9902C13.5454 19.1543 13.7679 19.2465 14 19.2465C14.2321 19.2465 14.4546 19.1543 14.6187 18.9902C14.7828 18.8261 14.875 18.6036 14.875 18.3715V13.1215Z" fill="#409BFF"/>
</svg>
