<svg width="80" height="80" viewBox="0 0 80 80" fill="none" xmlns="http://www.w3.org/2000/svg">
<g filter="url(#filter0_d_1534_13158)">
<circle cx="40" cy="37" r="30" fill="#0077FF"/>
<path d="M25 51.9719L27.7488 45.6385C25.6458 42.652 24.7046 39.0003 25.1017 35.3687C25.4988 31.7372 27.207 28.3754 29.9058 25.9144C32.6045 23.4534 36.1082 22.0622 39.7593 22.002C43.4105 21.9418 46.9581 23.2168 49.7364 25.5875C52.5147 27.9582 54.3327 31.2618 54.8492 34.8783C55.3657 38.4948 54.5452 42.1756 52.5417 45.2298C50.5382 48.2841 47.4895 50.5019 43.9676 51.4671C40.4456 52.4322 36.6927 52.0783 33.4131 50.4719L25 51.9719Z" stroke="white" stroke-width="3.75" stroke-linecap="round" stroke-linejoin="round"/>
<path d="M34.9957 33.6389C34.9957 33.8599 35.0835 34.0719 35.2397 34.2282C35.3959 34.3845 35.6078 34.4722 35.8287 34.4722C36.0496 34.4722 36.2615 34.3845 36.4177 34.2282C36.5739 34.0719 36.6617 33.8599 36.6617 33.6389V31.9722C36.6617 31.7512 36.5739 31.5393 36.4177 31.383C36.2615 31.2267 36.0496 31.1389 35.8287 31.1389C35.6078 31.1389 35.3959 31.2267 35.2397 31.383C35.0835 31.5393 34.9957 31.7512 34.9957 31.9722V33.6389ZM34.9957 33.6389C34.9957 35.8491 35.8733 37.9687 37.4355 39.5315C38.9976 41.0943 41.1163 41.9722 43.3255 41.9722M43.3255 41.9722H44.9915C45.2124 41.9722 45.4242 41.8845 45.5805 41.7282C45.7367 41.5719 45.8244 41.3599 45.8244 41.1389C45.8244 40.9179 45.7367 40.7059 45.5805 40.5497C45.4242 40.3934 45.2124 40.3056 44.9915 40.3056H43.3255C43.1046 40.3056 42.8927 40.3934 42.7365 40.5497C42.5803 40.7059 42.4925 40.9179 42.4925 41.1389C42.4925 41.3599 42.5803 41.5719 42.7365 41.7282C42.8927 41.8845 43.1046 41.9722 43.3255 41.9722Z" stroke="white" stroke-width="3.75" stroke-linecap="round" stroke-linejoin="round"/>
</g>
<defs>
<filter id="filter0_d_1534_13158" x="0" y="0" width="80" height="80" filterUnits="userSpaceOnUse" color-interpolation-filters="sRGB">
<feFlood flood-opacity="0" result="BackgroundImageFix"/>
<feColorMatrix in="SourceAlpha" type="matrix" values="0 0 0 0 0 0 0 0 0 0 0 0 0 0 0 0 0 0 127 0" result="hardAlpha"/>
<feOffset dy="3"/>
<feGaussianBlur stdDeviation="5"/>
<feComposite in2="hardAlpha" operator="out"/>
<feColorMatrix type="matrix" values="0 0 0 0 0.334618 0 0 0 0 0.504353 0 0 0 0 0.698333 0 0 0 0.5 0"/>
<feBlend mode="normal" in2="BackgroundImageFix" result="effect1_dropShadow_1534_13158"/>
<feBlend mode="normal" in="SourceGraphic" in2="effect1_dropShadow_1534_13158" result="shape"/>
</filter>
</defs>
</svg>
