<svg width="63" height="63" viewBox="0 0 63 63" fill="none" xmlns="http://www.w3.org/2000/svg">
<mask id="mask0_142_6624" style="mask-type:luminance" maskUnits="userSpaceOnUse" x="0" y="0" width="63" height="63">
<path d="M0.288991 0.866994H62.711V56.0642C62.711 57.8271 62.0107 59.5177 60.7642 60.7642C59.5177 62.0107 57.8271 62.711 56.0642 62.711H0.288991V0.866994Z" fill="white" stroke="white" stroke-width="0.577982"/>
</mask>
<g mask="url(#mask0_142_6624)">
<path d="M0.168762 56.2845C0.16899 56.1754 0.190698 56.0675 0.232648 55.9668C0.274598 55.8661 0.335967 55.7747 0.413253 55.6977C0.490539 55.6208 0.582227 55.5598 0.683082 55.5183C0.783938 55.4767 0.891985 55.4555 1.00106 55.4557H16.2523V55.7447M0.168762 56.2845V62.7579H0.457753M0.168762 56.2845L0.457752 56.2851C0.457753 56.285 0.457753 56.2849 0.457753 56.2848M0.168762 56.2845H0.457753V56.2848M0.457753 62.7579V63.0469H16.2523V62.7579M0.457753 62.7579H16.2523M0.457753 62.7579V56.2848M16.2523 62.7579H16.5412V55.7447H16.2523M16.2523 62.7579V55.7447M16.2523 55.7447H1.00106H1.00045V55.7447C0.929342 55.7445 0.858888 55.7584 0.793116 55.7855C0.727343 55.8126 0.66756 55.8523 0.617173 55.9025C0.566779 55.9527 0.526763 56.0123 0.499409 56.078C0.47209 56.1435 0.457936 56.2138 0.457753 56.2848" fill="#BFDEFF" stroke="#0059BF" stroke-width="0.577982"/>
<path d="M15.9968 48.6928C15.9968 48.5837 16.0184 48.4756 16.0603 48.3748C16.1021 48.2741 16.1634 48.1825 16.2406 48.1054C16.3179 48.0284 16.4096 47.9673 16.5104 47.9256C16.6113 47.884 16.7194 47.8626 16.8285 47.8628L32.0803 47.8628L32.0802 48.1518M15.9968 48.6928V62.758H16.2858M15.9968 48.6928L16.2858 48.693C16.2858 48.693 16.2858 48.6929 16.2858 48.6929M15.9968 48.6928H16.2858V48.6929M16.2858 62.758V63.0469H32.3687L32.0797 63.0469L32.0797 62.758M16.2858 62.758H32.0797M16.2858 62.758V48.6929M32.0797 62.758H32.3687L32.3692 48.1518H32.0802M32.0797 62.758L32.0802 48.1518M32.0802 48.1518H16.8285H16.8281C16.7569 48.1517 16.6864 48.1656 16.6207 48.1927C16.5549 48.2199 16.4952 48.2597 16.4448 48.31C16.3944 48.3603 16.3544 48.42 16.3272 48.4857C16.2999 48.5514 16.2858 48.6218 16.2858 48.6929" fill="#80BCFF" stroke="#0059BF" stroke-width="0.577982"/>
<path d="M32.6558 40.5594H32.656H47.9077L47.9072 62.7579H32.1138V41.1005C32.1139 41.0294 32.1279 40.959 32.1552 40.8934C32.1825 40.8277 32.2224 40.768 32.2727 40.7177C32.323 40.6675 32.3827 40.6276 32.4485 40.6005C32.5142 40.5733 32.5846 40.5593 32.6558 40.5594Z" fill="#409BFF" stroke="#0059BF" stroke-width="0.577982"/>
<path d="M29.4019 19.1221L29.4008 19.1221C29.3025 19.1225 29.206 19.0961 29.1215 19.0458C29.0371 18.9955 28.968 18.9232 28.9215 18.8366C28.875 18.75 28.853 18.6524 28.8577 18.5542C28.8625 18.4561 28.8939 18.3611 28.9485 18.2794L28.9488 18.279L31.8844 13.876L31.9912 13.7156L31.8844 13.5553L28.9488 9.15229C28.9488 9.15229 28.9488 9.15228 28.9488 9.15227C28.8944 9.0706 28.8631 8.97567 28.8585 8.87763C28.8538 8.77959 28.8759 8.68212 28.9224 8.59565C28.9688 8.50917 29.0379 8.43695 29.1222 8.3867C29.2065 8.33645 29.3029 8.31006 29.4011 8.31036V8.31036H29.4019H42.7042V18.5805C42.7042 18.7241 42.6471 18.8619 42.5455 18.9635C42.444 19.065 42.3062 19.1221 42.1626 19.1221L29.4019 19.1221Z" fill="#34A853" stroke="#34A853" stroke-width="0.577982"/>
<path d="M29.2244 19.1209L29.2236 19.1209C29.1254 19.1212 29.029 19.0948 28.9447 19.0445C28.8604 18.9943 28.7913 18.922 28.7449 18.8356C28.6984 18.7491 28.6764 18.6516 28.681 18.5536C28.6857 18.4555 28.7169 18.3606 28.7713 18.2789L31.7063 13.8765L31.8132 13.7162L31.7063 13.5559L28.7713 9.15339C28.7713 9.15339 28.7713 9.15338 28.7713 9.15337C28.7169 9.0717 28.6857 8.97678 28.681 8.87874C28.6764 8.78069 28.6984 8.68322 28.7449 8.59675C28.7913 8.51028 28.8604 8.43806 28.9447 8.3878C29.029 8.33755 29.1254 8.31116 29.2236 8.31145V8.31146H29.2244H29.9622L33.5651 13.7162L29.9622 19.1209L29.2244 19.1209Z" fill="#57BB72" stroke="#34A853" stroke-width="0.577982"/>
<path d="M40.8407 15.3258H40.8405C40.7694 15.3259 40.6989 15.3119 40.6332 15.2847L40.5234 15.5502L40.6332 15.2847C40.5674 15.2575 40.5076 15.2176 40.4573 15.1673C40.407 15.117 40.3671 15.0573 40.3398 14.9916C40.3126 14.9259 40.2986 14.8554 40.2986 14.7842L40.2986 5.05681L40.2986 5.05641C40.2985 4.98521 40.3124 4.91467 40.3396 4.84884C40.3668 4.78302 40.4067 4.72321 40.4571 4.67284C40.5074 4.62247 40.5672 4.58252 40.633 4.55528C40.6988 4.52803 40.7693 4.51404 40.8405 4.51409H40.8407H54.1921V15.3258H40.8407Z" fill="#34A853" stroke="#34A853" stroke-width="0.577982"/>
<path d="M41.51 4.51641V15.3247L40.1861 15.3247C40.186 15.3247 40.1859 15.3247 40.1858 15.3247C40.0427 15.3242 39.9055 15.2671 39.8044 15.1658C39.7032 15.0645 39.6463 14.9272 39.646 14.784V5.05658C39.6464 4.9135 39.7034 4.77638 39.8045 4.67516C39.9057 4.57397 40.0427 4.5169 40.1858 4.51641H41.51Z" fill="#57BB72" stroke="#34A853" stroke-width="0.577982"/>
<path d="M53.5864 1.94268L53.5864 1.94228C53.5863 1.87111 53.6002 1.80064 53.6274 1.73488C53.6545 1.66913 53.6944 1.60935 53.7446 1.55897C53.7949 1.50861 53.8546 1.46864 53.9203 1.44136C53.986 1.41407 54.0565 1.4 54.1276 1.39995L56.2631 1.39995C56.4067 1.39995 56.5444 1.45701 56.646 1.55857C56.7476 1.66013 56.8046 1.79788 56.8046 1.94152L56.804 32.3884H53.5864L53.5864 1.94268Z" fill="#F4BA4F" stroke="#34A853" stroke-width="0.577982"/>
<path d="M62.4983 62.7578H47.8915V33.5079C47.8915 33.3643 47.9486 33.2266 48.0502 33.125C48.1517 33.0234 48.2895 32.9664 48.4331 32.9664H61.9579C62.1015 32.9664 62.2393 33.0234 62.3408 33.125L62.5452 32.9206L62.3408 33.125C62.4424 33.2265 62.4994 33.3643 62.4994 33.5079L62.4983 62.7578Z" fill="#0077FF" stroke="#0059BF" stroke-width="0.577982"/>
</g>
</svg>
