<svg width="80" height="80" viewBox="0 0 80 80" fill="none" xmlns="http://www.w3.org/2000/svg">
<g clip-path="url(#clip0_142_6657)">
<mask id="mask0_142_6657" style="mask-type:luminance" maskUnits="userSpaceOnUse" x="0" y="0" width="80" height="80">
<path d="M0 0.666626H80V72C80 74.1217 79.1572 76.1565 77.6569 77.6568C76.1566 79.1571 74.1217 80 72 80H0V0.666626Z" fill="white"/>
</mask>
<g mask="url(#mask0_142_6657)">
<path d="M86.3695 87.3678H79.3128C79.7016 86.5548 79.8781 85.6566 79.8258 84.7569C79.7735 83.8572 79.494 82.9855 79.0135 82.2231C78.5331 81.4607 77.8672 80.8324 77.0782 80.397C76.2892 79.9616 75.4027 79.7333 74.5015 79.7333C73.6003 79.7333 72.7138 79.9616 71.9248 80.397C71.1357 80.8324 70.4699 81.4607 69.9894 82.2231C69.5089 82.9855 69.2295 83.8572 69.1771 84.7569C69.1248 85.6566 69.3013 86.5548 69.6901 87.3678H62.6335V80.3105C61.8205 80.6992 60.9223 80.8755 60.0227 80.8231C59.1231 80.7707 58.2514 80.4912 57.4891 80.0107C56.7268 79.5302 56.0986 78.8643 55.6633 78.0753C55.228 77.2864 54.9996 76.3999 54.9996 75.4988C54.9996 74.5977 55.228 73.7113 55.6633 72.9223C56.0986 72.1333 56.7268 71.4674 57.4891 70.9869C58.2514 70.5064 59.1231 70.2269 60.0227 70.1745C60.9223 70.1221 61.8205 70.2984 62.6335 70.6871V64.5758C62.6347 64.3258 62.7348 64.0864 62.9119 63.9099C63.089 63.7334 63.3288 63.6341 63.5788 63.6338H69.6915C69.3026 62.8208 69.1261 61.9226 69.1785 61.0229C69.2308 60.1232 69.5103 59.2515 69.9907 58.4891C70.4712 57.7266 71.1371 57.0984 71.9261 56.663C72.7151 56.2276 73.6016 55.9993 74.5028 55.9993C75.404 55.9993 76.2905 56.2276 77.0795 56.663C77.8686 57.0984 78.5344 57.7266 79.0149 58.4891C79.4954 59.2515 79.7748 60.1232 79.8271 61.0229C79.8795 61.9226 79.703 62.8208 79.3141 63.6338H85.4248C85.6748 63.6341 85.9146 63.7334 86.0917 63.9099C86.2688 64.0864 86.3689 64.3258 86.3701 64.5758V87.3678H86.3695Z" fill="#F4BA4F"/>
<path d="M46.2484 37.5755L47.8841 31.6857C47.9527 31.4451 48.1133 31.2413 48.3311 31.1182C48.5489 30.9952 48.8065 30.9629 49.0479 31.0284L54.9365 32.6686C54.793 31.8813 54.8317 31.0716 55.0497 30.3016C55.4289 28.9385 56.334 27.7819 57.566 27.0861C58.798 26.3904 60.2558 26.2126 61.6189 26.5917C62.982 26.9709 64.1386 27.876 64.8344 29.108C65.5301 30.34 65.7079 31.7979 65.3287 33.1609C65.1177 33.9333 64.7324 34.647 64.2024 35.2472L70.094 36.8819C70.3345 36.9506 70.5383 37.1112 70.6613 37.329C70.7843 37.5468 70.8166 37.8043 70.7513 38.0457L69.1113 43.9387C69.898 43.7958 70.7068 43.8335 71.4767 44.0491C72.2474 44.2646 72.9596 44.6508 73.5607 45.1791C74.1618 45.7073 74.6364 46.364 74.9492 47.1005C75.262 47.8371 75.405 48.6346 75.3677 49.4339C75.3304 50.2333 75.1137 51.014 74.7337 51.7182C74.3536 52.4224 73.82 53.0321 73.1723 53.502C72.5247 53.972 71.7795 54.2902 70.9922 54.433C70.2048 54.5758 69.3954 54.5397 68.6239 54.3272C67.8524 54.1147 67.1387 53.7313 66.5355 53.2055L64.8982 59.0924C64.865 59.212 64.8085 59.3239 64.732 59.4217C64.6556 59.5195 64.5606 59.6012 64.4525 59.6623C64.3444 59.7233 64.2253 59.7625 64.1021 59.7775C63.9789 59.7925 63.8539 59.783 63.7343 59.7497L57.8474 58.1124C57.9883 58.9017 57.9496 59.7126 57.7342 60.4849C57.5188 61.2572 57.1321 61.9711 56.603 62.5735C56.0738 63.1758 55.4158 63.6513 54.6777 63.9645C53.9396 64.2777 53.1404 64.4206 52.3395 64.3826C51.5387 64.3446 50.7566 64.1267 50.0515 63.745C49.3464 63.3634 48.7363 62.8277 48.2666 62.178C47.7968 61.5282 47.4795 60.781 47.3381 59.9917C47.1968 59.2025 47.235 58.3916 47.45 57.6191C47.6648 56.8492 48.0499 56.1375 48.5768 55.5364L42.6883 53.8962C42.4468 53.829 42.2419 53.6686 42.1186 53.4504C41.9953 53.2321 41.9638 52.9739 42.0309 52.7324L43.6682 46.8455C44.2712 47.3734 44.9853 47.7587 45.7576 47.9729C46.5299 48.1871 47.3405 48.2245 48.1293 48.0825C48.918 47.9405 49.6647 47.6227 50.3138 47.1527C50.9629 46.6826 51.4978 46.0724 51.8788 45.3673C52.2598 44.6622 52.4771 43.8804 52.5145 43.0798C52.552 42.2793 52.4087 41.4806 52.0952 40.743C51.7818 40.0054 51.3062 39.3479 50.7039 38.8193C50.1015 38.2906 49.3878 37.9044 48.6158 37.6894C47.8454 37.4731 47.036 37.4342 46.2484 37.5755Z" fill="#0077FF"/>
<path d="M61.9673 90.8467H39.1793C38.9288 90.8461 38.6886 90.7464 38.5115 90.5692C38.3343 90.392 38.2345 90.1519 38.234 89.9013V83.7873C37.421 84.1768 36.5226 84.3538 35.6226 84.3018C34.7227 84.2498 33.8506 83.9706 33.0878 83.4902C32.325 83.0098 31.6964 82.3439 31.2608 81.5547C30.8252 80.7655 30.5967 79.8788 30.5967 78.9773C30.5967 78.0759 30.8252 77.1891 31.2608 76.3999C31.6964 75.6107 32.325 74.9448 33.0878 74.4644C33.8506 73.984 34.7227 73.7048 35.6226 73.6529C36.5226 73.6009 37.421 73.7779 38.234 74.1673V68.058C38.2345 67.8074 38.3343 67.5673 38.5115 67.3901C38.6886 67.213 38.9288 67.1132 39.1793 67.1127H45.2907C44.8989 67.9264 44.72 68.8262 44.7708 69.7279C44.8215 70.6296 45.1002 71.5037 45.5807 72.2684C46.0612 73.0331 46.7279 73.6633 47.5184 74.1002C48.3088 74.537 49.1972 74.7661 50.1003 74.7661C51.0035 74.7661 51.8918 74.537 52.6823 74.1002C53.4727 73.6633 54.1394 73.0331 54.62 72.2684C55.1005 71.5037 55.3792 70.6296 55.4299 69.7279C55.4806 68.8262 55.3017 67.9264 54.91 67.1127H61.9667L73.5213 78.9793L61.9673 90.8467Z" fill="#34A853"/>
</g>
</g>
<defs>
<clipPath id="clip0_142_6657">
<rect width="80" height="79.3333" fill="white" transform="translate(0 0.666626)"/>
</clipPath>
</defs>
</svg>
