<svg width="375" height="128" viewBox="0 0 375 128" fill="none" xmlns="http://www.w3.org/2000/svg">
<g clip-path="url(#clip0_1_6)">
<rect width="375" height="128" fill="#ECF5FF"/>
<g opacity="0.7" clip-path="url(#clip1_1_6)">
<path d="M367.271 90.0375C366.44 90.6735 365.391 90.9536 364.354 90.8162C363.317 90.6787 362.378 90.135 361.742 89.3046L359.943 86.9563L352.898 92.352L354.697 94.7003C355.333 95.5306 355.613 96.5797 355.476 97.6166C355.338 98.6535 354.794 99.5933 353.964 100.229L367.271 90.0375Z" fill="#CCD5E2"/>
<path d="M355.522 88.4802C355.954 88.1491 356.036 87.5301 355.705 87.0978C355.374 86.6654 354.755 86.5834 354.323 86.9145C353.891 87.2457 353.808 87.8646 354.14 88.297C354.471 88.7293 355.09 88.8113 355.522 88.4802Z" fill="#95A0BA"/>
<path d="M319.649 80.5601L357.221 51.7833L372.209 71.352L334.637 100.129L319.649 80.5601Z" fill="#798199"/>
<path d="M321.489 77.2879C321.921 76.9568 322.003 76.3379 321.672 75.9055C321.341 75.4732 320.722 75.3911 320.29 75.7223C319.857 76.0534 319.775 76.6723 320.106 77.1047C320.438 77.537 321.056 77.6191 321.489 77.2879Z" fill="#FB5F5C"/>
<path d="M323.838 75.4893C324.271 75.1582 324.353 74.5393 324.021 74.1069C323.69 73.6746 323.071 73.5925 322.639 73.9237C322.207 74.2548 322.125 74.8737 322.456 75.3061C322.787 75.7384 323.406 75.8205 323.838 75.4893Z" fill="#FDBB3B"/>
<path d="M326.186 73.6909C326.619 73.3597 326.701 72.7408 326.37 72.3085C326.038 71.8761 325.42 71.7941 324.987 72.1252C324.555 72.4563 324.473 73.0753 324.804 73.5076C325.135 73.94 325.754 74.022 326.186 73.6909Z" fill="#39C948"/>
<path d="M319.649 80.5601L357.221 51.7833" stroke="#47537A" stroke-width="0.520833" stroke-linecap="round" stroke-linejoin="round"/>
<path d="M315.72 72.1885L350.161 45.8097C350.576 45.4917 351.101 45.3517 351.619 45.4204C352.137 45.4891 352.607 45.761 352.925 46.1762L354.124 47.7417L316.552 76.5186L315.353 74.9531C315.035 74.5379 314.895 74.0134 314.964 73.4949C315.033 72.9765 315.305 72.5065 315.72 72.1885Z" fill="#CCD5E2"/>
<path opacity="0.5" d="M340.89 113.969L349.109 107.674M357.72 101.079L380.811 83.3932M350.675 106.475L356.154 102.278" stroke="#9BA1B2" stroke-width="0.520833" stroke-linejoin="round"/>
<path d="M334.637 100.129L372.209 71.3521M316.652 76.6465L354.224 47.8696" stroke="#47537A" stroke-width="0.520833" stroke-linecap="round" stroke-linejoin="round"/>
<path d="M334.838 61.4754C335.271 61.1443 335.353 60.5253 335.022 60.093C334.691 59.6606 334.072 59.5786 333.639 59.9097C333.207 60.2409 333.125 60.8598 333.456 61.2922C333.787 61.7245 334.406 61.8065 334.838 61.4754Z" fill="#95A0BA"/>
<path d="M350.26 45.9376L315.819 72.3164C314.955 72.9787 314.79 74.2164 315.453 75.081L336.436 102.477C337.098 103.342 338.336 103.506 339.2 102.844L373.641 76.4649C374.506 75.8027 374.67 74.565 374.008 73.7004L353.025 46.3041C352.362 45.4395 351.125 45.2754 350.26 45.9376Z" stroke="#47537A" stroke-width="0.520833" stroke-linecap="round" stroke-linejoin="round"/>
<path d="M351.225 102.328L370.011 87.9394" stroke="#47537A" stroke-width="0.520833" stroke-linejoin="round"/>
<path d="M352.898 92.352L354.697 94.7003C355.333 95.5306 355.613 96.5797 355.476 97.6166C355.338 98.6535 354.794 99.5933 353.964 100.229M359.943 86.9563L361.742 89.3046C362.378 90.135 363.317 90.6787 364.354 90.8162C365.391 90.9536 366.44 90.6735 367.271 90.0375" stroke="#47537A" stroke-width="0.520833" stroke-linecap="round" stroke-linejoin="round"/>
<path d="M323.405 81.4096L324.187 80.8101M324.604 82.9751L325.386 82.3756M325.803 84.5406L326.585 83.9411M327.002 86.1061L327.784 85.5066M328.201 87.6716L328.983 87.0721M329.4 89.2371L330.182 88.6376M330.599 90.8026L331.382 90.2031M331.798 92.3681L332.581 91.7686M332.997 93.9336L333.78 93.3341M334.196 95.4991L334.979 94.8996M335.395 97.0646L336.178 96.4651" stroke="#CCD5E2" stroke-width="0.520833" stroke-miterlimit="10"/>
<path d="M325.753 79.6112L326.535 79.0116M326.952 81.1767L327.734 80.5771M328.151 82.7422L328.934 82.1426M329.35 84.3077L330.133 83.7081M330.549 85.8732L331.332 85.2736M331.748 87.4387L332.531 86.8391M334.512 87.8051L335.295 87.2056M340.041 88.538L340.824 87.9385" stroke="white" stroke-width="0.520833" stroke-miterlimit="10"/>
<path d="M327.319 78.412L328.884 77.2128" stroke="#FF6490" stroke-width="0.520833" stroke-miterlimit="10"/>
<path d="M338.669 69.7191L339.451 69.1196M335.954 74.2822L336.737 73.6827" stroke="white" stroke-width="0.520833" stroke-miterlimit="10"/>
<path d="M336.761 76.1473L337.544 75.5477" stroke="#FFEB5C" stroke-width="0.520833" stroke-miterlimit="10"/>
<path d="M329.667 76.6135L331.232 75.4145M332.015 74.815L335.146 72.4169M335.929 71.8174L337.886 70.3186M344.98 69.8525L345.763 69.253M348.894 66.8549L349.677 66.2554M332.065 79.7445L335.979 76.7469" stroke="white" stroke-width="0.520833" stroke-miterlimit="10"/>
<path d="M338.327 74.9485L341.458 72.5504" stroke="#CCD5E2" stroke-width="0.520833" stroke-miterlimit="10"/>
<path d="M342.24 71.9509L344.197 70.452" stroke="#FFEB5C" stroke-width="0.520833" stroke-miterlimit="10"/>
<path d="M328.518 79.9776L330.866 78.1791" stroke="#FF6490" stroke-width="0.520833" stroke-miterlimit="10"/>
<path d="M331.649 77.5796L335.171 74.8818" stroke="#7DFF86" stroke-width="0.520833" stroke-miterlimit="10"/>
<path d="M348.086 64.9896L348.869 64.39" stroke="white" stroke-width="0.520833" stroke-miterlimit="10"/>
<path d="M337.519 73.0831L347.303 65.5892" stroke="#FFEB5C" stroke-width="0.520833" stroke-miterlimit="10"/>
<path d="M339.209 84.2079L339.992 83.6084M345.08 79.7116L347.036 78.2128" stroke="#7DFF86" stroke-width="0.520833" stroke-miterlimit="10"/>
<path d="M336.078 86.606L338.427 84.8074" stroke="#FF6490" stroke-width="0.520833" stroke-miterlimit="10"/>
<path d="M340.775 83.0089L344.298 80.3111M347.82 77.6133L352.517 74.0162" stroke="#FFEB5C" stroke-width="0.520833" stroke-miterlimit="10"/>
<path d="M329.717 81.5431L331.282 80.3441M346.546 68.6535L348.111 67.4544M330.916 83.1086L332.481 81.9096" stroke="#FF6490" stroke-width="0.520833" stroke-miterlimit="10"/>
<path d="M332.115 84.6742L335.246 82.2761M337.227 83.2421L341.924 79.645M336.028 81.6766L336.811 81.0771" stroke="white" stroke-width="0.520833" stroke-miterlimit="10"/>
<path d="M333.313 86.2395L336.444 83.8414" stroke="#FF6490" stroke-width="0.520833" stroke-miterlimit="10"/>
<path d="M338.06 87.572L339.626 86.373M346.72 85.9069L348.286 84.7079M343.173 86.1399L347.87 82.5428M350.218 80.7443L354.914 77.1472" stroke="white" stroke-width="0.520833" stroke-miterlimit="10"/>
<path d="M341.608 87.339L342.39 86.7394M348.652 81.9433L349.435 81.3438M341.241 90.1035L342.024 89.504" stroke="#FF6490" stroke-width="0.520833" stroke-miterlimit="10"/>
<path d="M342.806 88.9044L345.937 86.5064" stroke="#76D8FF" stroke-width="0.520833" stroke-miterlimit="10"/>
<rect x="326.157" y="92.2924" width="4.6875" height="2.34375" rx="1.17188" transform="rotate(-129.478 326.157 92.2924)" fill="#ECF5FF"/>
<rect x="343.229" y="49.3389" width="3.9665" height="1.98325" rx="0.991625" transform="rotate(-39.4331 343.229 49.3389)" fill="#ECF5FF"/>
</g>
<g opacity="0.7" clip-path="url(#clip2_1_6)">
<path d="M25.8335 102.674C24.8942 102.213 24.1762 101.399 23.8375 100.409C23.4987 99.4196 23.567 98.3359 24.0272 97.3967L25.3287 94.7405L17.3602 90.8361L16.0587 93.4922C15.5985 94.4315 14.784 95.1495 13.7943 95.4882C12.8047 95.827 11.7211 95.7587 10.7818 95.2985L25.8335 102.674Z" fill="#CCD5E2"/>
<path d="M21.9955 91.4603C22.4846 91.6999 23.0753 91.4977 23.3149 91.0087C23.5545 90.5196 23.3523 89.9289 22.8633 89.6893C22.3742 89.4497 21.7835 89.6519 21.5439 90.1409C21.3043 90.63 21.5065 91.2207 21.9955 91.4603Z" fill="#95A0BA"/>
<path d="M13.1096 55.8147L55.6084 76.6383L44.7627 98.7731L2.264 77.9495L13.1096 55.8147Z" fill="#798199"/>
<path d="M16.8598 56.0052C17.3488 56.2448 17.9395 56.0426 18.1791 55.5536C18.4188 55.0645 18.2166 54.4738 17.7275 54.2342C17.2385 53.9946 16.6478 54.1968 16.4082 54.6858C16.1685 55.1749 16.3707 55.7656 16.8598 56.0052Z" fill="#FB5F5C"/>
<path d="M19.5168 57.3067C20.0058 57.5463 20.5965 57.3441 20.8361 56.8551C21.0758 56.3661 20.8736 55.7754 20.3845 55.5357C19.8955 55.2961 19.3048 55.4983 19.0651 55.9874C18.8255 56.4764 19.0277 57.0671 19.5168 57.3067Z" fill="#FDBB3B"/>
<path d="M22.172 58.6081C22.6611 58.8477 23.2518 58.6455 23.4914 58.1565C23.731 57.6674 23.5288 57.0767 23.0398 56.8371C22.5507 56.5975 21.96 56.7997 21.7204 57.2887C21.4808 57.7778 21.683 58.3685 22.172 58.6081Z" fill="#39C948"/>
<path d="M13.1096 55.8147L55.6084 76.6383" stroke="#47537A" stroke-width="0.520833" stroke-linecap="round" stroke-linejoin="round"/>
<path d="M18.856 48.568L57.8132 67.6563C58.2828 67.8864 58.6418 68.2937 58.8112 68.7885C58.9805 69.2833 58.9464 69.8251 58.7163 70.2947L57.8486 72.0655L15.3499 51.2419L16.2176 49.4711C16.4477 49.0015 16.8549 48.6425 17.3497 48.4731C17.8445 48.3038 18.3863 48.3379 18.856 48.568Z" fill="#CCD5E2"/>
<path opacity="0.5" d="M-7.3418 89.7119L1.9548 94.2671M11.6941 99.0391L37.8131 111.837M3.72558 95.1347L9.92332 98.1715" stroke="#9BA1B2" stroke-width="0.520833" stroke-linejoin="round"/>
<path d="M2.26431 77.9494L44.7631 98.773M15.2791 51.3877L57.7778 72.2113" stroke="#47537A" stroke-width="0.520833" stroke-linecap="round" stroke-linejoin="round"/>
<path d="M36.9618 60.9144C37.4509 61.154 38.0416 60.9519 38.2812 60.4628C38.5208 59.9738 38.3186 59.3831 37.8296 59.1434C37.3405 58.9038 36.7498 59.106 36.5102 59.5951C36.2706 60.0841 36.4728 60.6748 36.9618 60.9144Z" fill="#95A0BA"/>
<path d="M57.7416 67.802L18.7845 48.7137C17.8065 48.2345 16.6252 48.6389 16.146 49.6168L0.962159 80.6055C0.482968 81.5835 0.887315 82.7647 1.86529 83.2439L40.8225 102.332C41.8004 102.811 42.9817 102.407 43.4609 101.429L58.6448 70.4404C59.124 69.4625 58.7196 68.2812 57.7416 67.802Z" stroke="#47537A" stroke-width="0.520833" stroke-linecap="round" stroke-linejoin="round"/>
<path d="M7.68262 93.7798L28.932 104.192" stroke="#47537A" stroke-width="0.520833" stroke-linejoin="round"/>
<path d="M17.3602 90.8361L16.0587 93.4922C15.5985 94.4315 14.784 95.1495 13.7943 95.4882C12.8047 95.827 11.7211 95.7587 10.7818 95.2985M25.3287 94.7405L24.0272 97.3967C23.567 98.3359 23.4987 99.4196 23.8375 100.409C24.1762 101.399 24.8942 102.213 25.8335 102.674" stroke="#47537A" stroke-width="0.520833" stroke-linecap="round" stroke-linejoin="round"/>
<path d="M14.0222 59.5554L14.9076 59.9893M13.1546 61.3262L14.04 61.76M12.2869 63.097L13.1723 63.5308M11.4193 64.8678L12.3047 65.3016M10.5516 66.6385L11.437 67.0724M9.68397 68.4093L10.5694 68.8432M8.81632 70.1801L9.70171 70.6139M7.94867 71.9509L8.83406 72.3847M7.08102 73.7217L7.96641 74.1555M6.21337 75.4925L7.09876 75.9263M5.34572 77.2632L6.23111 77.6971" stroke="#CCD5E2" stroke-width="0.520833" stroke-miterlimit="10"/>
<path d="M16.6787 60.8568L17.5641 61.2906M15.8111 62.6275L16.6965 63.0614M14.9434 64.3983L15.8288 64.8321M14.0758 66.1691L14.9612 66.6029M13.2081 67.9399L14.0935 68.3737M12.3405 69.7107L13.2259 70.1445M13.2436 72.3491L14.129 72.7829M15.0499 77.626L15.9352 78.0598" stroke="white" stroke-width="0.520833" stroke-miterlimit="10"/>
<path d="M18.449 61.7244L20.22 62.5922" stroke="#FF6490" stroke-width="0.520833" stroke-miterlimit="10"/>
<path d="M31.2871 68.015L32.1724 68.4488M25.9925 67.6166L26.8778 68.0504" stroke="white" stroke-width="0.520833" stroke-miterlimit="10"/>
<path d="M24.6819 69.1705L25.5674 69.6044" stroke="#FFEB5C" stroke-width="0.520833" stroke-miterlimit="10"/>
<path d="M21.1055 63.0261L22.8762 63.8937M23.7616 64.3275L27.3032 66.0628M28.1886 66.4967L30.4021 67.5812M33.9791 73.7257L34.8645 74.1595M38.4061 75.8948L39.2915 76.3287M19.3702 66.5676L23.7971 68.7367" stroke="white" stroke-width="0.520833" stroke-miterlimit="10"/>
<path d="M26.4529 70.0382L29.9944 71.7735" stroke="#CCD5E2" stroke-width="0.520833" stroke-miterlimit="10"/>
<path d="M30.8796 72.2072L33.0934 73.2919" stroke="#FFEB5C" stroke-width="0.520833" stroke-miterlimit="10"/>
<path d="M17.5811 63.4953L20.2372 64.7968" stroke="#FF6490" stroke-width="0.520833" stroke-miterlimit="10"/>
<path d="M21.123 65.2307L25.1073 67.1829" stroke="#7DFF86" stroke-width="0.520833" stroke-miterlimit="10"/>
<path d="M39.7168 74.3409L40.6023 74.7748" stroke="white" stroke-width="0.520833" stroke-miterlimit="10"/>
<path d="M27.7627 68.4843L38.8301 73.9071" stroke="#FFEB5C" stroke-width="0.520833" stroke-miterlimit="10"/>
<path d="M18.5547 74.952L19.4401 75.3859M25.1951 78.2057L27.4086 79.2903" stroke="#7DFF86" stroke-width="0.520833" stroke-miterlimit="10"/>
<path d="M15.0139 73.2169L17.6701 74.5184" stroke="#FF6490" stroke-width="0.520833" stroke-miterlimit="10"/>
<path d="M20.3262 75.8198L24.3104 77.772M28.2947 79.7242L33.607 82.3271" stroke="#FFEB5C" stroke-width="0.520833" stroke-miterlimit="10"/>
<path d="M16.7139 65.266L18.4846 66.1337M35.7498 74.5933L37.5205 75.4609M15.8462 67.0368L17.617 67.9045" stroke="#FF6490" stroke-width="0.520833" stroke-miterlimit="10"/>
<path d="M14.9775 68.8077L18.5191 70.543M18.5368 72.7476L23.8492 75.3505M19.4045 70.9768L20.2899 71.4106" stroke="white" stroke-width="0.520833" stroke-miterlimit="10"/>
<path d="M14.1104 70.5784L17.6519 72.3137" stroke="#FF6490" stroke-width="0.520833" stroke-miterlimit="10"/>
<path d="M15.0315 75.4215L16.8023 76.2892M20.3793 82.4337L22.1501 83.3013M18.5908 79.3614L23.9031 81.9644M26.5593 83.2658L31.8717 85.8688" stroke="white" stroke-width="0.520833" stroke-miterlimit="10"/>
<path d="M16.8199 78.4938L17.7052 78.9276M24.7884 82.3982L25.6738 82.832M14.1814 79.3969L15.0668 79.8308" stroke="#FF6490" stroke-width="0.520833" stroke-miterlimit="10"/>
<path d="M15.9521 80.2644L19.4937 81.9997" stroke="#76D8FF" stroke-width="0.520833" stroke-miterlimit="10"/>
</g>
<g clip-path="url(#clip3_1_6)">
<path fill-rule="evenodd" clip-rule="evenodd" d="M318.626 18.5001H321.517C323.112 18.5001 324.407 19.7951 324.407 21.3907C324.407 22.98 323.122 24.2715 321.535 24.2813H318.626V32.3751H324.985V29.4844C324.985 27.8888 326.28 26.5938 327.876 26.5938C329.465 26.5938 330.757 27.879 330.767 29.4659V32.3751H334.813V16.1876H318.626V18.5001Z" fill="#F8D491"/>
<path fill-rule="evenodd" clip-rule="evenodd" d="M331.923 8.09375V6.33337C331.909 4.11164 330.101 2.3125 327.876 2.3125C325.643 2.3125 323.829 4.12608 323.829 6.35938V8.09375H318.626C317.987 8.09375 317.47 8.61117 317.47 9.25V18.5C317.47 19.1388 317.987 19.6563 318.626 19.6563H321.517C322.474 19.6563 323.251 20.4333 323.251 21.3906C323.251 22.344 322.48 23.1192 321.535 23.125H318.626C317.987 23.125 317.47 23.6424 317.47 24.2813V25.4375C317.47 26.0758 317.988 26.5938 318.626 26.5938C319.264 26.5938 319.782 26.0758 319.782 25.4375H321.543C323.764 25.4236 325.563 23.6153 325.563 21.3906C325.563 19.1573 323.75 17.3438 321.517 17.3438H319.782V10.4063H324.985C325.624 10.4063 326.142 9.88883 326.142 9.25V6.35938C326.142 5.402 326.919 4.625 327.876 4.625C328.829 4.625 329.605 5.39623 329.61 6.34089V9.25C329.61 9.88883 330.128 10.4063 330.767 10.4063H340.595V18.5C340.595 19.1388 341.112 19.6563 341.751 19.6563H344.642C345.599 19.6563 346.376 20.4333 346.376 21.3906C346.376 22.344 345.605 23.1192 344.66 23.125H341.751C341.112 23.125 340.595 23.6424 340.595 24.2813V31.2188H331.923V29.4584C331.909 27.2366 330.101 25.4375 327.876 25.4375C325.643 25.4375 323.829 27.2511 323.829 29.4844V31.2188H319.782V30.0625C319.782 29.4243 319.264 28.9063 318.626 28.9063C317.988 28.9063 317.47 29.4243 317.47 30.0625V32.375C317.47 33.0138 317.987 33.5313 318.626 33.5313H324.985C325.624 33.5313 326.142 33.0138 326.142 32.375V29.4844C326.142 28.527 326.919 27.75 327.876 27.75C328.829 27.75 329.605 28.5212 329.61 29.4659V32.375C329.61 33.0138 330.128 33.5313 330.767 33.5313H341.751C342.39 33.5313 342.907 33.0138 342.907 32.375V25.4375H344.668C346.889 25.4236 348.688 23.6153 348.688 21.3906C348.688 19.1573 346.875 17.3438 344.642 17.3438H342.907V9.25C342.907 8.61117 342.39 8.09375 341.751 8.09375H331.923Z" fill="#364F6B"/>
</g>
<g clip-path="url(#clip4_1_6)">
<path fill-rule="evenodd" clip-rule="evenodd" d="M56.375 18.5001H53.4844C51.8888 18.5001 50.5938 19.7951 50.5938 21.3907C50.5938 22.98 51.8789 24.2715 53.4659 24.2813H56.375V32.3751H50.0156V29.4844C50.0156 27.8888 48.7206 26.5938 47.125 26.5938C45.5357 26.5938 44.2442 27.879 44.2344 29.4659V32.3751H40.1875V16.1876H56.375V18.5001Z" fill="#F8D491"/>
<path fill-rule="evenodd" clip-rule="evenodd" d="M43.0772 8.09375V6.33337C43.091 4.11164 44.8994 2.3125 47.124 2.3125C49.3573 2.3125 51.1709 4.12608 51.1709 6.35938V8.09375H56.374C57.0129 8.09375 57.5303 8.61117 57.5303 9.25V18.5C57.5303 19.1388 57.0129 19.6563 56.374 19.6563H53.4834C52.526 19.6563 51.749 20.4333 51.749 21.3906C51.749 22.344 52.5203 23.1192 53.4649 23.125H56.374C57.0129 23.125 57.5303 23.6424 57.5303 24.2813V25.4375C57.5303 26.0758 57.0123 26.5938 56.374 26.5938C55.7358 26.5938 55.2178 26.0758 55.2178 25.4375H53.4574C51.2357 25.4236 49.4365 23.6153 49.4365 21.3906C49.4365 19.1573 51.2501 17.3438 53.4834 17.3438H55.2178V10.4063H50.0147C49.3758 10.4063 48.8584 9.88883 48.8584 9.25V6.35938C48.8584 5.402 48.0814 4.625 47.124 4.625C46.1707 4.625 45.3954 5.39623 45.3897 6.34089V9.25C45.3897 9.88883 44.8722 10.4063 44.2334 10.4063H34.4053V18.5C34.4053 19.1388 33.8879 19.6563 33.249 19.6563H30.3584C29.401 19.6563 28.624 20.4333 28.624 21.3906C28.624 22.344 29.3953 23.1192 30.3399 23.125H33.249C33.8879 23.125 34.4053 23.6424 34.4053 24.2813V31.2188H43.0772V29.4584C43.091 27.2366 44.8994 25.4375 47.124 25.4375C49.3573 25.4375 51.1709 27.2511 51.1709 29.4844V31.2188H55.2178V30.0625C55.2178 29.4243 55.7358 28.9063 56.374 28.9063C57.0123 28.9063 57.5303 29.4243 57.5303 30.0625V32.375C57.5303 33.0138 57.0129 33.5313 56.374 33.5313H50.0147C49.3758 33.5313 48.8584 33.0138 48.8584 32.375V29.4844C48.8584 28.527 48.0814 27.75 47.124 27.75C46.1707 27.75 45.3954 28.5212 45.3897 29.4659V32.375C45.3897 33.0138 44.8722 33.5313 44.2334 33.5313H33.249C32.6102 33.5313 32.0928 33.0138 32.0928 32.375V25.4375H30.3324C28.1107 25.4236 26.3115 23.6153 26.3115 21.3906C26.3115 19.1573 28.1251 17.3438 30.3584 17.3438H32.0928V9.25C32.0928 8.61117 32.6102 8.09375 33.249 8.09375H43.0772Z" fill="#364F6B"/>
</g>
<g opacity="0.7">
<path d="M314.451 87.7675L312.851 89.4074C312.493 89.1592 312.008 89.2054 311.703 89.5168L310.869 90.371C310.565 90.6832 310.531 91.169 310.788 91.521L309.558 92.7815L305.038 88.3702L304.828 88.5854L314.082 97.6178L314.292 97.4026L309.773 92.9915L311.003 91.731C311.361 91.9791 311.846 91.9329 312.151 91.6216L312.984 90.7674C313.288 90.4553 313.323 89.9695 313.066 89.6175L314.666 87.9777C317.122 90.4879 317.125 94.4999 314.673 97.0135L308.63 103.205C306.136 105.76 302.042 105.81 299.487 103.316C298.259 102.118 297.558 100.482 297.537 98.7668C297.516 97.052 298.177 95.3992 299.375 94.1719L305.418 87.9809C307.871 85.4677 311.882 85.373 314.451 87.7675ZM301.181 96.721C301.56 97.0915 302.361 96.8868 302.969 96.2638C303.577 95.6409 303.762 94.8354 303.383 94.465C303.003 94.0946 302.203 94.2992 301.594 94.9222C300.986 95.5451 300.801 96.3504 301.181 96.721Z" fill="#2B3030" fill-opacity="0.5"/>
<path d="M312.969 89.5016C312.932 89.467 312.893 89.4355 312.851 89.4075L314.451 87.7676L314.454 87.7649L314.669 87.9749L314.667 87.9777L313.066 89.6176C313.037 89.5762 313.005 89.5374 312.969 89.5016ZM311.003 91.7312L309.773 92.9917L314.293 97.4028L314.083 97.618L304.828 88.5856L305.038 88.3704L309.558 92.7816L310.788 91.5212C310.845 91.6049 310.918 91.6764 311.003 91.7312Z" fill="#2B3030"/>
<path d="M313.066 89.6176C313.323 89.9696 313.288 90.4554 312.984 90.7675L312.151 91.6217C311.805 91.9727 311.24 91.9783 310.888 91.6341C310.535 91.2899 310.527 90.7255 310.869 90.3712L311.703 89.5171C311.885 89.3248 312.144 89.2246 312.408 89.2441C312.673 89.2636 312.914 89.4007 313.066 89.6176Z" fill="#2B3030"/>
<path d="M301.181 96.7209C300.801 96.3504 300.987 95.545 301.595 94.922C302.203 94.2991 303.003 94.0944 303.383 94.4649C303.763 94.8355 303.577 95.6409 302.969 96.2638C302.361 96.8868 301.561 97.0914 301.181 96.7209Z" fill="#2B3030"/>
<path opacity="0.61" d="M301.181 96.7209C300.801 96.3504 300.987 95.545 301.595 94.922C302.203 94.2991 303.003 94.0944 303.383 94.4649C303.763 94.8355 303.577 95.6409 302.969 96.2638C302.361 96.8868 301.561 97.0914 301.181 96.7209Z" fill="#2B3030"/>
<path d="M317.046 87.2144L315.446 88.8543C315.087 88.6061 314.603 88.6523 314.298 88.9637L313.464 89.8178C313.16 90.13 313.126 90.6159 313.383 90.9678L312.152 92.2283L307.632 87.8171L307.422 88.0323L316.677 97.0648L316.887 96.8496L312.368 92.4385L313.598 91.178C313.956 91.4262 314.441 91.3799 314.745 91.0685L315.579 90.2144C315.883 89.9023 315.917 89.4164 315.661 89.0645L317.261 87.4246C319.717 89.9348 319.72 93.9467 317.267 96.4603L311.225 102.651C308.731 105.207 304.637 105.257 302.081 102.762C300.854 101.565 300.153 99.9284 300.132 98.2136C300.111 96.4989 300.773 94.8461 301.97 93.6188L308.013 87.4278C310.466 84.9147 314.477 84.82 317.046 87.2144ZM303.776 96.1678C304.155 96.5383 304.956 96.3336 305.564 95.7106C306.172 95.0877 306.357 94.2822 305.978 93.9118C305.598 93.5415 304.797 93.746 304.189 94.369C303.581 94.992 303.396 95.7974 303.776 96.1678Z" fill="#D9E7E8"/>
<path d="M315.563 88.9483C315.527 88.9137 315.487 88.8822 315.445 88.8542L317.046 87.2143L317.048 87.2116L317.264 87.4216L317.261 87.4244L315.66 89.0642C315.631 89.0229 315.599 88.9842 315.563 88.9483ZM313.597 91.1779L312.367 92.4384L316.887 96.8495L316.677 97.0647L307.422 88.0322L307.632 87.817L312.152 92.2283L313.382 90.9678C313.439 91.0516 313.512 91.1231 313.597 91.1779Z" fill="#B0C0C1"/>
<path d="M315.66 89.0643C315.917 89.4163 315.883 89.9021 315.579 90.2143L314.745 91.0684C314.4 91.4222 313.833 91.4291 313.479 91.0838C313.126 90.7385 313.119 90.1717 313.464 89.8179L314.298 88.9638C314.48 88.7715 314.739 88.6713 315.003 88.6908C315.267 88.7103 315.508 88.8474 315.66 89.0643Z" fill="#7A8B8E"/>
<path d="M303.775 96.1678C303.395 95.7973 303.58 94.9919 304.188 94.3689C304.796 93.746 305.597 93.5413 305.977 93.9119C306.356 94.2824 306.171 95.0878 305.563 95.7108C304.955 96.3337 304.155 96.5384 303.775 96.1678Z" fill="#D9E7E8"/>
<path opacity="0.61" d="M303.775 96.1678C303.395 95.7973 303.58 94.9919 304.188 94.3689C304.796 93.746 305.597 93.5413 305.977 93.9119C306.356 94.2824 306.171 95.0878 305.563 95.7108C304.955 96.3337 304.155 96.5384 303.775 96.1678Z" fill="white"/>
</g>
<g opacity="0.7">
<path d="M61.5682 87.5072L63.1687 89.1471C63.5268 88.8988 64.0117 88.945 64.3164 89.2565L65.15 90.1106C65.4539 90.4228 65.4884 90.9087 65.2316 91.2606L66.4617 92.5211L70.9816 88.1098L71.1916 88.325L61.937 97.3574L61.7269 97.1422L66.2465 92.7311L65.0163 91.4707C64.6583 91.7187 64.1735 91.6725 63.8688 91.3612L63.0351 90.5071C62.7312 90.1949 62.6967 89.7091 62.9535 89.3572L61.353 87.7173C58.8968 90.2275 58.8941 94.2395 61.3467 96.7531L67.389 102.944C69.8833 105.5 73.977 105.55 76.5327 103.055C77.76 101.858 78.4612 100.221 78.4821 98.5065C78.503 96.7917 77.8418 95.1388 76.644 93.9115L70.6017 87.7205C68.1484 85.2074 64.1374 85.1126 61.5682 87.5072ZM74.8384 96.4606C74.4588 96.8311 73.6581 96.6264 73.0501 96.0034C72.4421 95.3805 72.2569 94.575 72.6365 94.2046C73.0162 93.8342 73.8168 94.0388 74.4248 94.6618C75.0328 95.2847 75.2179 96.0901 74.8384 96.4606Z" fill="#2B3030" fill-opacity="0.5"/>
<path d="M63.0512 89.2413C63.0879 89.2066 63.1274 89.1751 63.1693 89.1472L61.5688 87.5073L61.5661 87.5045L61.3509 87.7146L61.3536 87.7173L62.9541 89.3572C62.9832 89.3159 63.0156 89.2771 63.0512 89.2413ZM65.017 91.4709L66.2472 92.7313L61.7276 97.1424L61.9377 97.3576L71.1923 88.3252L70.9823 88.11L66.4624 92.5213L65.2323 91.2608C65.1754 91.3446 65.1021 91.416 65.017 91.4709Z" fill="#2B3030"/>
<path d="M62.9538 89.3573C62.697 89.7092 62.7315 90.195 63.0354 90.5072L63.869 91.3613C64.2149 91.7124 64.7794 91.7179 65.132 91.3737C65.4847 91.0295 65.4928 90.4651 65.1503 90.1108L64.3167 89.2567C64.1345 89.0645 63.8755 88.9642 63.6114 88.9837C63.3472 89.0032 63.1058 89.1404 62.9538 89.3573Z" fill="#2B3030"/>
<path d="M74.8384 96.4605C75.2181 96.09 75.0329 95.2846 74.4249 94.6617C73.8169 94.0387 73.0163 93.8341 72.6366 94.2046C72.257 94.5751 72.4421 95.3805 73.0501 96.0035C73.6581 96.6264 74.4587 96.8311 74.8384 96.4605Z" fill="#2B3030"/>
<path opacity="0.61" d="M74.8384 96.4605C75.2181 96.09 75.0329 95.2846 74.4249 94.6617C73.8169 94.0387 73.0163 93.8341 72.6366 94.2046C72.257 94.5751 72.4421 95.3805 73.0501 96.0035C73.6581 96.6264 74.4587 96.8311 74.8384 96.4605Z" fill="#2B3030"/>
<path d="M58.9735 86.954L60.574 88.5939C60.9321 88.3457 61.417 88.392 61.7217 88.7033L62.5553 89.5574C62.8593 89.8696 62.8937 90.3555 62.6369 90.7075L63.8671 91.9679L68.387 87.5567L68.5971 87.772L59.3423 96.8044L59.1323 96.5892L63.6519 92.1781L62.4217 90.9176C62.0636 91.1658 61.5788 91.1195 61.2742 90.8082L60.4405 89.954C60.1366 89.6419 60.1021 89.1561 60.3588 88.8041L58.7583 87.1642C56.3023 89.6745 56.2996 93.6863 58.7522 96.1999L64.7945 102.391C67.2887 104.947 71.3824 104.996 73.938 102.502C75.1653 101.304 75.8665 99.668 75.8873 97.9532C75.9082 96.2385 75.247 94.5857 74.0492 93.3584L68.0069 87.1674C65.5536 84.6544 61.5427 84.5596 58.9735 86.954ZM72.2437 95.9074C71.8641 96.2779 71.0635 96.0732 70.4554 95.4503C69.8474 94.8273 69.6623 94.0218 70.0419 93.6515C70.4215 93.2811 71.2221 93.4857 71.8301 94.1086C72.4382 94.7316 72.6233 95.537 72.2437 95.9074Z" fill="#D9E7E8"/>
<path d="M60.4558 88.6879C60.4924 88.6533 60.5319 88.6218 60.5739 88.5938L58.9733 86.9539L58.9707 86.9512L58.7555 87.1612L58.7581 87.164L60.3587 88.8039C60.3877 88.7625 60.4202 88.7238 60.4558 88.6879ZM62.4216 90.9175L63.6518 92.178L59.1322 96.5891L59.3422 96.8043L68.5969 87.7718L68.3869 87.5566L63.8671 91.9679L62.6369 90.7074C62.58 90.7912 62.5067 90.8627 62.4216 90.9175Z" fill="#B0C0C1"/>
<path d="M60.3588 88.8039C60.102 89.1559 60.1365 89.6417 60.4405 89.9538L61.2741 90.808C61.6194 91.1618 62.1862 91.1687 62.54 90.8234C62.8938 90.4781 62.9006 89.9113 62.5553 89.5575L61.7217 88.7034C61.5395 88.5111 61.2806 88.4109 61.0164 88.4304C60.7522 88.4499 60.5108 88.587 60.3588 88.8039Z" fill="#7A8B8E"/>
<path d="M72.2437 95.9074C72.6233 95.5369 72.4382 94.7315 71.8302 94.1085C71.2222 93.4856 70.4216 93.2809 70.0419 93.6515C69.6623 94.022 69.8474 94.8274 70.4554 95.4503C71.0634 96.0733 71.864 96.278 72.2437 95.9074Z" fill="#D9E7E8"/>
<path opacity="0.61" d="M72.2437 95.9074C72.6233 95.5369 72.4382 94.7315 71.8302 94.1085C71.2222 93.4856 70.4216 93.2809 70.0419 93.6515C69.6623 94.022 69.8474 94.8274 70.4554 95.4503C71.0634 96.0733 71.864 96.278 72.2437 95.9074Z" fill="white"/>
</g>
<rect x="25.5137" y="50.1026" width="3.9665" height="1.98325" rx="0.991625" transform="rotate(28.5834 25.5137 50.1026)" fill="#ECF5FF"/>
<rect x="51.9043" y="89.0502" width="4.6875" height="2.34375" rx="1.17188" transform="rotate(117.574 51.9043 89.0502)" fill="#ECF5FF"/>
</g>
<defs>
<clipPath id="clip0_1_6">
<rect width="375" height="128" fill="white"/>
</clipPath>
<clipPath id="clip1_1_6">
<rect width="49.487" height="47.9734" fill="white" transform="translate(312.76 73.2645) rotate(-37.449)"/>
</clipPath>
<clipPath id="clip2_1_6">
<rect width="49.487" height="47.9734" fill="white" transform="translate(16.5742 46.3972) rotate(26.104)"/>
</clipPath>
<clipPath id="clip3_1_6">
<rect width="37" height="37" fill="white" transform="matrix(-1 0 0 1 351 0)"/>
</clipPath>
<clipPath id="clip4_1_6">
<rect width="37" height="37" fill="white" transform="translate(24)"/>
</clipPath>
</defs>
</svg>
