<svg width="40" height="41" viewBox="0 0 40 41" fill="none" xmlns="http://www.w3.org/2000/svg">
<rect x="0.5" y="1" width="39" height="39" rx="4.5" fill="#0077FF"/>
<rect x="0.5" y="1" width="39" height="39" rx="4.5" stroke="#0077FF"/>
<g clip-path="url(#clip0_725_4247)">
<path d="M23.9993 15.166H15.9993C15.263 15.166 14.666 15.763 14.666 16.4993V24.4993C14.666 25.2357 15.263 25.8327 15.9993 25.8327H23.9993C24.7357 25.8327 25.3327 25.2357 25.3327 24.4993V16.4993C25.3327 15.763 24.7357 15.166 23.9993 15.166Z" stroke="white" strokeWidth="1.33333" strokeLinecap="round" strokeLinejoin="round"/>
<path d="M17.334 19.834V23.1673" stroke="white" strokeWidth="1.33333" strokeLinecap="round" strokeLinejoin="round"/>
<path d="M17.334 17.834V17.8407" stroke="white" strokeWidth="1.33333" strokeLinecap="round" strokeLinejoin="round"/>
<path d="M20 23.1673V19.834" stroke="white" strokeWidth="1.33333" strokeLinecap="round" strokeLinejoin="round"/>
<path d="M22.6667 23.1673V21.1673C22.6667 20.8137 22.5262 20.4746 22.2761 20.2245C22.0261 19.9745 21.687 19.834 21.3333 19.834C20.9797 19.834 20.6406 19.9745 20.3905 20.2245C20.1405 20.4746 20 20.8137 20 21.1673" stroke="white" stroke-width="1.33333" strokeLinecap="round" strokeLinejoin="round"/>
</g>
<defs>
<clipPath id="clip0_725_4247">
<rect width="16" height="16" fill="white" transform="translate(12 12.5)"/>
</clipPath>
</defs>
</svg>
