<svg width="572" height="452" viewBox="0 0 572 452" fill="none" xmlns="http://www.w3.org/2000/svg">
<g clip-path="url(#clip0_142_6470)">
<rect width="572" height="452" rx="20" fill="white"/>
<g filter="url(#filter0_d_142_6470)">
<rect x="351.405" y="11.9999" width="329.38" height="305.736" transform="rotate(64.6562 351.405 11.9999)" fill="#ECF5FF"/>
</g>
<g opacity="0.1">
<g clip-path="url(#clip1_142_6470)">
<path d="M196.516 294.015C201.489 289.459 209.19 289.771 213.717 294.711C218.244 299.651 217.883 307.349 212.91 311.905C207.937 316.46 200.236 316.148 195.709 311.208C191.182 306.268 191.543 298.57 196.516 294.015Z" fill="#80BCFF"/>
<path d="M174.057 299.781C177.414 296.706 182.612 296.917 185.667 300.251C188.723 303.586 188.479 308.781 185.123 311.856C181.766 314.931 176.568 314.721 173.513 311.386C170.457 308.052 170.701 302.856 174.057 299.781Z" fill="#80BCFF"/>
<path d="M190.122 315.505C191.987 313.797 194.874 313.914 196.571 315.766C198.269 317.619 198.133 320.505 196.269 322.213C194.404 323.921 191.517 323.804 189.82 321.952C188.122 320.099 188.258 317.213 190.122 315.505Z" fill="#80BCFF"/>
<path d="M212.4 373.254C214.265 371.546 217.152 371.663 218.85 373.515C220.547 375.368 220.411 378.254 218.547 379.962C216.682 381.67 213.795 381.553 212.098 379.701C210.4 377.849 210.536 374.962 212.4 373.254Z" fill="#80BCFF"/>
<path d="M160.885 204.073C169.712 195.987 183.381 196.54 191.417 205.309C199.452 214.078 198.811 227.742 189.984 235.828C181.157 243.914 167.488 243.36 159.453 234.591C151.417 225.822 152.058 212.159 160.885 204.073Z" fill="#BFDEFF"/>
<path d="M259.489 99.7556C265.456 94.289 274.698 94.6633 280.13 100.591C285.563 106.52 285.129 115.757 279.162 121.224C273.194 126.69 263.953 126.316 258.521 120.388C253.088 114.46 253.522 105.222 259.489 99.7556Z" fill="#BFDEFF"/>
<path d="M352.269 95.2099C355.501 92.249 360.507 92.4516 363.449 95.6626C366.392 98.8736 366.157 103.877 362.925 106.838C359.693 109.799 354.687 109.596 351.745 106.385C348.802 103.174 349.037 98.1708 352.269 95.2099Z" fill="#BFDEFF"/>
<path d="M355.192 208.71C361.656 202.788 371.668 203.194 377.553 209.616C383.438 216.038 382.968 226.045 376.504 231.967C370.039 237.889 360.028 237.484 354.142 231.062C348.257 224.64 348.727 214.632 355.192 208.71Z" fill="#BFDEFF"/>
<path d="M281.837 344.196C284.945 341.349 289.758 341.544 292.587 344.632C295.416 347.719 295.19 352.53 292.082 355.377C288.975 358.224 284.162 358.029 281.332 354.942C278.503 351.854 278.729 347.043 281.837 344.196Z" fill="#BFDEFF"/>
<path d="M161.777 249.328C164.885 246.481 169.698 246.676 172.527 249.763C175.356 252.851 175.131 257.662 172.023 260.509C168.915 263.356 164.102 263.161 161.273 260.074C158.444 256.986 158.669 252.175 161.777 249.328Z" fill="#BFDEFF"/>
<path d="M383.085 163.819C386.193 160.972 391.006 161.167 393.835 164.255C396.665 167.342 396.439 172.153 393.331 175C390.223 177.847 385.41 177.652 382.581 174.565C379.752 171.477 379.977 166.666 383.085 163.819Z" fill="#80BCFF"/>
<path d="M293.357 61.5284C296.713 58.4536 301.911 58.6641 304.967 61.9985C308.023 65.333 307.779 70.5287 304.422 73.6036C301.066 76.6784 295.868 76.4679 292.812 73.1334C289.757 69.799 290 64.6032 293.357 61.5284Z" fill="#80BCFF"/>
</g>
</g>
<g opacity="0.1" clip-path="url(#clip2_142_6470)">
<path d="M312.912 188.891C311.294 195.438 304.709 199.443 298.204 197.837C291.699 196.231 287.736 189.621 289.354 183.074C290.971 176.527 297.556 172.522 304.062 174.128C310.567 175.734 314.529 182.344 312.912 188.891Z" fill="#80BCFF"/>
<path d="M328.418 171.651C327.326 176.07 322.882 178.774 318.491 177.69C314.1 176.606 311.425 172.144 312.517 167.725C313.609 163.306 318.054 160.603 322.444 161.687C326.835 162.771 329.51 167.232 328.418 171.651Z" fill="#80BCFF"/>
<path d="M306.334 167.456C305.727 169.911 303.258 171.412 300.819 170.81C298.38 170.208 296.894 167.73 297.501 165.275C298.107 162.82 300.576 161.319 303.015 161.921C305.454 162.523 306.94 165.001 306.334 167.456Z" fill="#80BCFF"/>
<path d="M255.801 131.711C255.195 134.165 252.726 135.667 250.287 135.065C247.848 134.463 246.362 131.985 246.968 129.53C247.575 127.075 250.044 125.573 252.483 126.176C254.922 126.778 256.408 129.256 255.801 131.711Z" fill="#80BCFF"/>
<path d="M392.392 244.046C389.521 255.667 377.833 262.777 366.286 259.926C354.739 257.075 347.705 245.343 350.576 233.722C353.448 222.101 365.136 214.991 376.683 217.842C388.23 220.693 395.263 232.425 392.392 244.046Z" fill="#BFDEFF"/>
<path d="M228.037 347.796C225.934 356.307 217.374 361.514 208.917 359.426C200.46 357.338 195.309 348.746 197.411 340.234C199.514 331.723 208.075 326.516 216.532 328.604C224.989 330.692 230.14 339.284 228.037 347.796Z" fill="#BFDEFF"/>
<path d="M214.079 194.36C213.068 198.452 208.953 200.955 204.887 199.952C200.822 198.948 198.345 194.817 199.356 190.725C200.367 186.634 204.483 184.13 208.548 185.134C212.614 186.138 215.09 190.269 214.079 194.36Z" fill="#BFDEFF"/>
<path d="M366.585 206.859C365.574 210.951 361.459 213.454 357.393 212.451C353.328 211.447 350.851 207.316 351.862 203.224C352.873 199.133 356.988 196.629 361.054 197.633C365.12 198.637 367.596 202.768 366.585 206.859Z" fill="#BFDEFF"/>
<path d="M229.674 400.622C228.663 404.714 224.547 407.217 220.482 406.213C216.416 405.21 213.94 401.079 214.951 396.987C215.962 392.895 220.077 390.392 224.143 391.396C228.208 392.4 230.685 396.53 229.674 400.622Z" fill="#80BCFF"/>
</g>
<path d="M220.52 303.963C225.473 303.963 229.488 299.948 229.488 294.995C229.488 290.042 225.473 286.027 220.52 286.027C215.568 286.027 211.553 290.042 211.553 294.995C211.553 299.948 215.568 303.963 220.52 303.963Z" fill="#E76562"/>
<path d="M227.727 294.882C227.549 294.321 227.219 293.819 226.774 293.433L226.398 293.105C224.705 291.874 222.666 291.211 220.573 291.211C218.48 291.211 216.441 291.874 214.748 293.105L214.372 293.433C213.928 293.819 213.6 294.321 213.427 294.882C213.312 295.243 213.316 295.63 213.439 295.988C213.561 296.345 213.796 296.654 214.107 296.868C214.476 297.012 214.87 297.076 215.265 297.055C215.66 297.035 216.046 296.93 216.397 296.748C216.918 296.564 217.51 296.292 217.606 295.755C217.702 295.219 217.198 294.602 217.438 294.098C217.541 293.947 217.677 293.82 217.835 293.727C217.992 293.635 218.169 293.578 218.351 293.561C219.817 293.257 221.329 293.257 222.795 293.561C222.977 293.577 223.154 293.633 223.312 293.726C223.47 293.819 223.605 293.946 223.708 294.098C223.948 294.602 223.443 295.195 223.547 295.755C223.652 296.316 224.236 296.556 224.748 296.748C225.103 296.926 225.492 297.026 225.888 297.041C226.284 297.056 226.679 296.986 227.046 296.836C227.35 296.622 227.578 296.319 227.7 295.969C227.822 295.618 227.832 295.238 227.727 294.882Z" fill="white"/>
<path d="M191.312 303.963C196.264 303.963 200.279 299.948 200.279 294.995C200.279 290.042 196.264 286.027 191.312 286.027C186.359 286.027 182.344 290.042 182.344 294.995C182.344 299.948 186.359 303.963 191.312 303.963Z" fill="#E76562"/>
<path d="M194.33 294.026C194.275 294.026 194.22 294.037 194.169 294.058C194.118 294.079 194.072 294.111 194.033 294.15C193.994 294.19 193.964 294.237 193.943 294.288C193.923 294.34 193.913 294.395 193.914 294.45V295.883C193.912 296.288 193.75 296.676 193.464 296.962C193.177 297.249 192.79 297.41 192.385 297.412H190.335C189.91 297.412 189.503 297.244 189.202 296.943C188.902 296.643 188.733 296.236 188.733 295.811V294.354C188.733 294.298 188.722 294.244 188.701 294.193C188.68 294.142 188.648 294.095 188.609 294.057C188.569 294.018 188.522 293.987 188.471 293.967C188.419 293.946 188.364 293.936 188.309 293.937C188.199 293.937 188.093 293.981 188.015 294.059C187.937 294.137 187.893 294.243 187.893 294.354V295.811C187.895 296.462 188.155 297.085 188.615 297.544C189.076 298.003 189.7 298.261 190.351 298.261H190.911V299.534H190.215C190.128 299.559 190.051 299.612 189.997 299.684C189.942 299.756 189.913 299.844 189.913 299.935C189.913 300.025 189.942 300.113 189.997 300.185C190.051 300.258 190.128 300.31 190.215 300.335H192.393C192.455 300.353 192.52 300.356 192.583 300.344C192.646 300.332 192.706 300.306 192.758 300.267C192.809 300.228 192.851 300.178 192.88 300.12C192.908 300.063 192.923 299.999 192.923 299.935C192.923 299.87 192.908 299.807 192.88 299.749C192.851 299.691 192.809 299.641 192.758 299.602C192.706 299.563 192.646 299.537 192.583 299.525C192.52 299.514 192.455 299.517 192.393 299.534H191.72V298.261H192.369C192.999 298.261 193.604 298.014 194.053 297.572C194.502 297.13 194.76 296.529 194.771 295.899V294.434C194.769 294.378 194.756 294.323 194.732 294.273C194.709 294.222 194.676 294.176 194.635 294.138C194.594 294.1 194.546 294.071 194.494 294.052C194.442 294.032 194.386 294.023 194.33 294.026Z" fill="white"/>
<path d="M189.246 293.13V291.576C189.246 291.029 189.463 290.503 189.851 290.116C190.238 289.728 190.764 289.511 191.312 289.511C191.859 289.511 192.385 289.728 192.772 290.116C193.16 290.503 193.377 291.029 193.377 291.576V294.635C193.377 295.183 193.16 295.708 192.772 296.096C192.385 296.483 191.859 296.701 191.312 296.701C190.764 296.701 190.238 296.483 189.851 296.096C189.463 295.708 189.246 295.183 189.246 294.635V293.13Z" fill="white"/>
<path d="M171.078 294.995C171.078 296.769 170.552 298.503 169.567 299.977C168.581 301.452 167.181 302.601 165.542 303.28C163.903 303.959 162.1 304.137 160.361 303.791C158.621 303.445 157.023 302.59 155.769 301.336C154.515 300.082 153.661 298.484 153.315 296.745C152.969 295.005 153.146 293.202 153.825 291.563C154.504 289.925 155.653 288.524 157.128 287.539C158.603 286.553 160.337 286.027 162.11 286.027C164.489 286.027 166.77 286.972 168.451 288.654C170.133 290.336 171.078 292.617 171.078 294.995Z" fill="#E76562"/>
<path d="M166.842 297.637L165.065 296.452V297.301C165.065 297.579 164.954 297.846 164.758 298.042C164.561 298.239 164.294 298.35 164.016 298.35H158.491C158.215 298.35 157.95 298.24 157.755 298.045C157.56 297.849 157.45 297.585 157.45 297.309V292.729C157.452 292.454 157.563 292.191 157.758 291.998C157.953 291.804 158.216 291.696 158.491 291.696H164.048C164.185 291.686 164.323 291.706 164.452 291.755C164.581 291.803 164.698 291.88 164.794 291.978C164.891 292.076 164.965 292.194 165.012 292.324C165.059 292.453 165.077 292.591 165.065 292.729V293.593L166.994 292.304C167.083 292.247 167.186 292.215 167.291 292.211C167.397 292.206 167.501 292.231 167.594 292.28C167.687 292.33 167.765 292.404 167.82 292.494C167.876 292.584 167.905 292.687 167.907 292.793V297.068C167.906 297.192 167.871 297.312 167.807 297.418C167.743 297.523 167.652 297.61 167.543 297.668C167.434 297.726 167.312 297.754 167.188 297.748C167.065 297.743 166.946 297.704 166.842 297.637Z" fill="white"/>
<path d="M243.597 70H133.782C126.335 70 120.298 76.0368 120.298 83.4837V331.955C120.298 339.401 126.335 345.438 133.782 345.438H243.597C251.043 345.438 257.08 339.401 257.08 331.955V83.4837C257.08 76.0368 251.043 70 243.597 70Z" fill="#393939"/>
<path d="M128.024 91.6904H249.345V315.292H128.024V91.6904Z" fill="#606060"/>
<path d="M243.341 109.209V296.571C243.341 297.841 243.09 299.099 242.604 300.272C242.118 301.445 241.405 302.51 240.507 303.408C239.609 304.305 238.543 305.017 237.369 305.502C236.196 305.988 234.938 306.237 233.668 306.236H144.855C143.586 306.236 142.33 305.986 141.157 305.5C139.985 305.014 138.919 304.302 138.022 303.405C137.124 302.508 136.412 301.442 135.927 300.27C135.441 299.097 135.191 297.84 135.191 296.571V109.209C135.191 106.645 136.209 104.186 138.021 102.373C139.833 100.559 142.292 99.539 144.855 99.5369H233.668C236.234 99.5369 238.694 100.556 240.508 102.37C242.322 104.184 243.341 106.644 243.341 109.209Z" fill="white"/>
<path d="M199.951 173.93C199.299 175.459 198.377 176.859 197.229 178.061C195.684 179.583 193.874 180.809 191.888 181.68C190.195 182.443 188.332 182.75 186.483 182.569C185.987 182.497 183.016 181.624 183.113 180.968C182.312 186.709 178.036 191.633 178.036 191.633L190.399 200.753L203.282 193.547C201.87 188.133 200.877 182.619 200.311 177.052C200.271 176.484 200.063 174.474 199.951 173.93Z" fill="#F8B68E"/>
<path d="M208.006 283.536L203.978 257.009L203.65 207.975L208.83 190.312L204.258 191.753L190.783 202.898L173.824 190.312L173.199 217.255L172.199 283.536H208.006Z" fill="#B37962"/>
<path d="M101.338 260.428C96.5735 254.214 89.2632 247.376 96.8858 249.354C96.8858 249.354 108.36 255.904 108.6 254.214C108.84 252.525 103.596 245.078 107.063 247.721C110.53 250.363 113.548 257.105 115.646 257.329C117.744 257.553 123.997 255.552 123.997 255.552V264.007C123.997 264.007 106.142 266.633 101.338 260.428Z" fill="#F8B68E"/>
<path d="M180.734 187.605L191.44 197.958L188.685 204.852L173.2 188.366L180.734 187.605Z" fill="#EDE5E4"/>
<path d="M208.07 189.192L207.453 189.968L206.901 190.657L204.835 193.099L195.163 204.581L194.899 204.861L191.44 197.959L191.584 197.831L198.654 191.618L202.161 187.494L205.908 188.567L207.157 188.919L208.07 189.192Z" fill="#EDE5E4"/>
<path d="M189.902 208.039L180.462 281.463C180.43 281.722 180.454 281.986 180.532 282.236C180.609 282.485 180.739 282.716 180.912 282.912C181.085 283.108 181.298 283.265 181.537 283.373C181.775 283.48 182.034 283.536 182.295 283.536H197.22C197.467 283.537 197.711 283.487 197.938 283.391C198.165 283.295 198.371 283.154 198.543 282.977C198.715 282.8 198.849 282.591 198.938 282.361C199.027 282.131 199.069 281.885 199.062 281.639L198.662 268.075C198.666 268.038 198.666 268 198.662 267.963L193.417 208.528C193.388 208.275 193.413 208.019 193.488 207.776C193.564 207.534 193.69 207.31 193.857 207.118C194.48 206.38 194.931 205.513 195.179 204.58C195.321 204.101 195.365 203.597 195.307 203.1C195.25 202.603 195.091 202.123 194.842 201.69L193.241 198.791C193.079 198.509 192.846 198.275 192.565 198.112C192.284 197.949 191.965 197.863 191.64 197.862C191.268 197.862 190.906 197.973 190.599 198.182C190.292 198.39 190.055 198.686 189.918 199.031L188.541 202.57C188.441 202.825 188.4 203.099 188.421 203.371C188.485 204.603 188.887 205.794 189.582 206.814C189.841 207.167 189.956 207.605 189.902 208.039Z" fill="#F3DA97"/>
<path d="M159.051 248.875L157.45 283.537H174.713L174.649 257.01L170.557 214.974L177.155 207.976L170.437 204.213L178.044 187.494C172.535 188.047 159.099 191.498 157.426 195.181C155.824 198.632 145.215 236.585 145.215 236.585C145.215 236.585 127.032 250.349 116.35 253.399C114.221 254.008 115.317 261.102 115.974 264.169C116.082 264.629 116.344 265.039 116.717 265.331C117.089 265.622 117.551 265.777 118.024 265.77C137.369 266.146 158.475 249.772 159.051 248.875Z" fill="#419598"/>
<path d="M177.868 187.894C178.778 190.269 179.388 192.749 179.685 195.276C180.298 200.404 180.347 205.583 179.829 210.721L174.665 257.009L169.396 214.621C169.357 214.306 169.404 213.986 169.532 213.695C169.661 213.405 169.865 213.154 170.125 212.971L177.203 207.975L170.95 205.493C170.731 205.407 170.533 205.278 170.365 205.114C170.198 204.949 170.065 204.753 169.974 204.537C169.884 204.32 169.838 204.088 169.839 203.853C169.84 203.618 169.888 203.386 169.981 203.171L175.393 190.664L176.522 188.03L177.868 187.894Z" fill="#92CCC1"/>
<path d="M174.689 259.94L169.02 214.661C168.973 214.284 169.029 213.902 169.183 213.555C169.337 213.208 169.582 212.909 169.893 212.691L176.459 208.063L170.79 205.813C170.528 205.711 170.289 205.557 170.088 205.36C169.887 205.164 169.728 204.928 169.621 204.668C169.41 204.155 169.41 203.58 169.621 203.067L176.242 187.742L178.068 187.557L178.164 187.798C179.092 190.197 179.711 192.704 180.006 195.26C180.622 200.411 180.673 205.615 180.158 210.777L174.689 259.94ZM176.731 188.358L170.269 203.307C170.194 203.482 170.156 203.669 170.156 203.859C170.156 204.049 170.195 204.237 170.27 204.411C170.344 204.586 170.454 204.743 170.592 204.874C170.729 205.005 170.892 205.107 171.07 205.173L177.916 207.887L170.317 213.252C170.107 213.398 169.941 213.6 169.838 213.834C169.735 214.069 169.699 214.327 169.733 214.581L174.673 254.087L179.477 210.681C179.991 205.57 179.942 200.417 179.333 195.316C179.045 192.906 178.475 190.539 177.636 188.262L176.731 188.358Z" fill="#606060"/>
<path d="M215.941 284.097C216.685 280.173 219.792 233.501 220.24 229.714C222.386 211.674 226.646 198.239 223.996 193.819C221.594 189.743 209.071 189.167 206.485 188.734L202.777 209.672L205.372 283.536L215.941 284.097Z" fill="#419598"/>
<path d="M204.018 208.801L210.031 215.206C210.224 215.414 210.368 215.662 210.453 215.931C210.539 216.201 210.565 216.487 210.528 216.767L204.763 260.005C204.763 260.005 201.424 232.637 201.424 219.113C201.424 210.658 203.402 199.849 204.875 193.099C205.291 191.233 205.563 190.088 205.844 188.983L207.253 189.12L207.493 189.968L211.833 205.286C211.905 205.543 211.923 205.813 211.884 206.078C211.846 206.342 211.752 206.596 211.609 206.823C211.467 207.049 211.278 207.243 211.056 207.392C210.834 207.541 210.583 207.642 210.32 207.688L204.018 208.801Z" fill="#92CCC1"/>
<path d="M204.755 262.743L204.426 260.085C204.426 259.813 201.04 232.501 201.04 219.114C201.04 210.138 203.209 198.92 204.499 193.027C204.891 191.274 205.171 190.072 205.467 188.895L205.539 188.615L207.477 188.799L207.781 189.872L212.169 205.19C212.256 205.493 212.278 205.812 212.233 206.125C212.189 206.438 212.08 206.738 211.912 207.006C211.745 207.274 211.523 207.504 211.261 207.68C210.999 207.857 210.703 207.977 210.392 208.032L204.699 209.025L210.304 214.99C210.533 215.234 210.705 215.526 210.807 215.844C210.91 216.163 210.94 216.5 210.896 216.832L204.755 262.743ZM206.06 189.352C205.788 190.433 205.523 191.57 205.171 193.171C203.89 199.04 201.728 210.202 201.728 219.114C201.728 229.971 203.938 250.036 204.787 257.291L210.183 216.768C210.216 216.538 210.197 216.305 210.126 216.084C210.055 215.864 209.935 215.662 209.775 215.494L203.37 208.601L210.312 207.383C210.525 207.34 210.727 207.254 210.906 207.131C211.084 207.007 211.236 206.848 211.351 206.664C211.467 206.479 211.543 206.273 211.577 206.059C211.61 205.844 211.599 205.624 211.545 205.414L206.981 189.464L206.06 189.352Z" fill="#606060"/>
<path d="M204.154 166.372C202.08 170.92 198.822 181.689 186.475 183.082C182.752 183.499 177.667 178.991 174.841 170.383C172.11 162.088 171.502 155.386 171.982 150.27C172.527 144.593 179 133 182.5 133C190 130 204.154 134.501 202.008 150.63L202.08 150.91L203.682 157.276C203.682 157.276 205.724 153.321 207.005 154.874C207.248 155.17 207.42 155.518 207.509 155.891C208.286 158.933 205.059 164.378 204.154 166.372Z" fill="#F8B68E"/>
<path d="M208.39 149.461V149.861C208.363 151.904 208.064 153.934 207.502 155.899C207.413 155.526 207.24 155.178 206.997 154.882C205.716 153.28 203.674 157.284 203.674 157.284L202.073 150.918C204.225 150.662 206.343 150.173 208.39 149.461ZM192.865 166.324C191.853 166.324 190.863 166.023 190.022 165.461C189.18 164.898 188.524 164.099 188.137 163.163C187.75 162.228 187.649 161.199 187.847 160.206C188.045 159.213 188.534 158.302 189.25 157.586C189.966 156.871 190.879 156.385 191.872 156.188C192.865 155.991 193.894 156.094 194.828 156.482C195.763 156.871 196.562 157.528 197.123 158.37C197.684 159.213 197.983 160.203 197.981 161.215C197.981 161.887 197.849 162.552 197.592 163.172C197.335 163.792 196.958 164.356 196.482 164.83C196.007 165.305 195.443 165.681 194.822 165.937C194.202 166.193 193.536 166.325 192.865 166.324ZM192.865 156.787C191.989 156.787 191.133 157.047 190.405 157.533C189.677 158.02 189.109 158.712 188.774 159.521C188.439 160.33 188.351 161.22 188.522 162.079C188.693 162.938 189.115 163.727 189.734 164.346C190.353 164.965 191.142 165.387 192.001 165.558C192.86 165.729 193.75 165.641 194.559 165.306C195.368 164.971 196.06 164.403 196.547 163.675C197.033 162.947 197.293 162.091 197.293 161.215C197.296 160.632 197.184 160.053 196.963 159.513C196.742 158.973 196.416 158.482 196.004 158.069C195.593 157.655 195.104 157.327 194.565 157.103C194.026 156.879 193.448 156.763 192.865 156.763V156.787ZM179.293 166.324C178.281 166.324 177.291 166.023 176.45 165.461C175.608 164.898 174.952 164.099 174.565 163.163C174.178 162.228 174.078 161.199 174.276 160.206C174.474 159.213 174.962 158.302 175.678 157.586C176.395 156.871 177.307 156.385 178.3 156.188C179.293 155.991 180.322 156.094 181.257 156.482C182.191 156.871 182.99 157.528 183.551 158.37C184.112 159.213 184.411 160.203 184.41 161.215C184.41 161.887 184.277 162.552 184.02 163.172C183.763 163.792 183.386 164.356 182.911 164.83C182.435 165.305 181.871 165.681 181.251 165.937C180.63 166.193 179.965 166.325 179.293 166.324ZM179.293 156.787C178.417 156.787 177.561 157.047 176.833 157.533C176.105 158.02 175.538 158.712 175.202 159.521C174.867 160.33 174.78 161.22 174.95 162.079C175.121 162.938 175.543 163.727 176.162 164.346C176.781 164.965 177.57 165.387 178.429 165.558C179.288 165.729 180.179 165.641 180.988 165.306C181.797 164.971 182.488 164.403 182.975 163.675C183.461 162.947 183.721 162.091 183.721 161.215C183.724 160.632 183.612 160.053 183.391 159.513C183.17 158.973 182.844 158.482 182.433 158.069C182.021 157.655 181.532 157.327 180.993 157.103C180.454 156.879 179.877 156.763 179.293 156.763V156.787Z" fill="#80404D"/>
<path d="M197.637 159.573C197.555 159.573 197.475 159.544 197.413 159.49C197.35 159.437 197.309 159.363 197.296 159.282C197.284 159.2 197.301 159.117 197.344 159.047C197.388 158.977 197.455 158.925 197.533 158.901L203.57 156.939C203.657 156.911 203.752 156.919 203.833 156.962C203.914 157.004 203.975 157.076 204.003 157.163C204.03 157.25 204.022 157.345 203.98 157.426C203.938 157.507 203.865 157.568 203.778 157.596L197.741 159.557L197.637 159.573ZM184.065 160.846H188.101V161.535H184.065V160.846ZM174.745 160.11H174.665L172.263 159.541C172.175 159.519 172.1 159.462 172.053 159.384C172.007 159.306 171.993 159.213 172.015 159.125C172.025 159.081 172.044 159.039 172.071 159.003C172.098 158.966 172.131 158.935 172.17 158.912C172.209 158.889 172.252 158.874 172.297 158.868C172.342 158.862 172.388 158.865 172.431 158.877L174.793 159.445C174.87 159.469 174.936 159.519 174.98 159.586C175.024 159.654 175.043 159.735 175.034 159.815C175.024 159.895 174.987 159.969 174.928 160.024C174.87 160.08 174.794 160.113 174.713 160.118L174.745 160.11Z" fill="#80404D"/>
<path d="M187.203 183.243C185.754 183.277 184.313 183.004 182.976 182.442C182.895 182.4 182.835 182.327 182.806 182.241C182.778 182.154 182.784 182.06 182.824 181.978C182.844 181.937 182.872 181.901 182.907 181.871C182.941 181.842 182.981 181.819 183.024 181.805C183.067 181.791 183.113 181.785 183.158 181.789C183.204 181.793 183.248 181.805 183.288 181.826C183.552 181.962 189.758 184.98 196.524 178.343C196.556 178.31 196.594 178.285 196.636 178.268C196.677 178.25 196.722 178.241 196.768 178.241C196.813 178.241 196.858 178.25 196.9 178.268C196.942 178.285 196.98 178.31 197.012 178.343C197.075 178.408 197.11 178.496 197.11 178.587C197.11 178.678 197.075 178.765 197.012 178.831C193.417 182.338 189.822 183.243 187.203 183.243ZM123.572 265.09C123.509 265.092 123.447 265.075 123.393 265.042C123.339 265.01 123.296 264.962 123.268 264.906C123.188 264.761 121.451 261.254 121.226 251.718C121.225 251.673 121.233 251.628 121.25 251.586C121.266 251.544 121.29 251.505 121.322 251.472C121.353 251.44 121.39 251.413 121.432 251.395C121.473 251.377 121.517 251.367 121.563 251.366C121.608 251.364 121.654 251.371 121.696 251.387C121.739 251.403 121.778 251.427 121.811 251.459C121.844 251.49 121.87 251.528 121.888 251.57C121.906 251.612 121.915 251.657 121.915 251.702C122.139 261.046 123.861 264.561 123.877 264.593C123.905 264.645 123.919 264.704 123.917 264.763C123.916 264.821 123.899 264.879 123.868 264.929C123.837 264.98 123.793 265.021 123.742 265.049C123.69 265.077 123.631 265.091 123.572 265.09Z" fill="#606060"/>
<path d="M243.341 283.536V296.556C243.341 297.825 243.09 299.083 242.604 300.256C242.118 301.429 241.405 302.495 240.507 303.392C239.609 304.29 238.543 305.001 237.369 305.487C236.196 305.972 234.938 306.221 233.668 306.22H144.855C143.586 306.22 142.33 305.97 141.157 305.484C139.985 304.999 138.919 304.287 138.022 303.389C137.124 302.492 136.412 301.427 135.927 300.254C135.441 299.081 135.191 297.825 135.191 296.556V283.536H243.341Z" fill="#E2E8FA"/>
<path d="M203.722 299.237C203.722 299.237 181.303 304.578 170.326 296.195L172.383 278.059C172.383 278.059 194.394 285.522 207.053 277.074L203.722 299.237Z" fill="white"/>
<path d="M176.378 295.834H176.338C176.293 295.829 176.249 295.815 176.209 295.793C176.169 295.771 176.134 295.742 176.106 295.706C176.077 295.67 176.056 295.629 176.044 295.585C176.032 295.541 176.028 295.495 176.034 295.45L177.443 283.44C177.455 283.349 177.502 283.268 177.574 283.212C177.646 283.157 177.737 283.132 177.827 283.143C177.872 283.148 177.915 283.162 177.953 283.184C177.992 283.205 178.027 283.234 178.054 283.27C178.082 283.305 178.102 283.345 178.114 283.388C178.126 283.431 178.129 283.475 178.124 283.52L176.714 295.53C176.706 295.614 176.667 295.691 176.605 295.747C176.543 295.804 176.462 295.835 176.378 295.834ZM183.128 296.739C183.036 296.733 182.95 296.691 182.889 296.622C182.827 296.553 182.795 296.463 182.8 296.371L183.464 283.984C183.47 283.894 183.512 283.81 183.579 283.75C183.646 283.69 183.735 283.659 183.825 283.664C183.87 283.666 183.914 283.677 183.955 283.696C183.996 283.715 184.033 283.742 184.063 283.776C184.094 283.809 184.118 283.848 184.133 283.891C184.148 283.934 184.155 283.979 184.153 284.024L183.488 296.411C183.486 296.456 183.475 296.5 183.456 296.541C183.437 296.582 183.41 296.619 183.376 296.65C183.343 296.68 183.304 296.704 183.261 296.719C183.218 296.734 183.173 296.741 183.128 296.739ZM188.749 292.92C188.704 292.918 188.66 292.907 188.619 292.887C188.579 292.868 188.542 292.841 188.513 292.807C188.483 292.774 188.46 292.734 188.445 292.692C188.431 292.649 188.425 292.604 188.429 292.559L188.885 285.313C188.882 285.264 188.889 285.215 188.906 285.169C188.924 285.123 188.951 285.081 188.986 285.047C189.021 285.012 189.062 284.985 189.109 284.968C189.155 284.951 189.204 284.944 189.253 284.947C189.302 284.951 189.349 284.965 189.393 284.988C189.436 285.012 189.474 285.044 189.503 285.083C189.533 285.122 189.554 285.168 189.564 285.216C189.575 285.263 189.576 285.313 189.566 285.361L189.117 292.567C189.118 292.615 189.11 292.663 189.091 292.708C189.073 292.752 189.046 292.792 189.011 292.825C188.976 292.858 188.935 292.884 188.89 292.9C188.845 292.916 188.797 292.923 188.749 292.92ZM195.074 289.853C195.029 289.849 194.985 289.836 194.945 289.815C194.904 289.794 194.869 289.765 194.84 289.73C194.811 289.695 194.789 289.655 194.776 289.611C194.762 289.568 194.758 289.522 194.762 289.477L195.194 284.777C195.198 284.731 195.211 284.687 195.233 284.647C195.254 284.607 195.283 284.571 195.317 284.542C195.352 284.513 195.393 284.491 195.436 284.478C195.48 284.465 195.525 284.46 195.571 284.464C195.661 284.475 195.745 284.519 195.803 284.59C195.861 284.66 195.89 284.75 195.883 284.841L195.451 289.541C195.447 289.586 195.434 289.63 195.413 289.67C195.391 289.711 195.363 289.746 195.328 289.775C195.293 289.804 195.252 289.826 195.209 289.84C195.165 289.853 195.12 289.858 195.074 289.853ZM199.11 297.388H199.062C198.972 297.374 198.89 297.325 198.836 297.251C198.782 297.178 198.76 297.086 198.774 296.995L200.743 284.881C200.759 284.792 200.809 284.713 200.882 284.661C200.955 284.608 201.047 284.587 201.136 284.601C201.181 284.606 201.224 284.621 201.263 284.644C201.303 284.668 201.337 284.698 201.364 284.735C201.391 284.772 201.41 284.813 201.42 284.858C201.431 284.902 201.432 284.948 201.424 284.993L199.454 297.107C199.438 297.187 199.394 297.258 199.332 297.309C199.269 297.36 199.191 297.388 199.11 297.388Z" fill="#B1B9D2"/>
<path d="M206.076 302.873C199.67 305.34 192.696 304.355 194.154 302.921C194.154 302.921 207.061 293.978 205.676 293.377C204.29 292.777 197.845 294.979 200.911 292.721C203.052 291.125 205.394 289.819 207.877 288.837C211.569 287.308 216.373 281.735 216.373 281.735L219.752 284.137C219.752 284.137 212.489 300.399 206.076 302.873Z" fill="#F8B68E"/>
<path d="M223.996 193.819C228.888 206.302 239.385 234.534 244.453 245.656C245.016 246.891 245.261 248.247 245.166 249.6C245.071 250.954 244.639 252.263 243.909 253.407L222.29 290.927C221.819 291.73 221.063 292.325 220.173 292.595C219.283 292.865 218.323 292.79 217.486 292.384L216.069 291.688C212.017 289.686 205.66 289.502 211.857 280.702L224.156 249.867C224.504 248.988 224.504 248.009 224.156 247.129L215.78 226.375C215.504 225.692 215.44 224.941 215.596 224.221L220.641 201.145C221.193 198.527 223.043 191.321 223.996 193.819Z" fill="#419598"/>
<path d="M189.88 207.694L193.381 207.489L193.421 208.177L189.92 208.382L189.88 207.694Z" fill="#80404D"/>
<path d="M211.785 280.703C211.785 280.703 217.55 286.957 224.524 286.973L211.785 280.703Z" fill="#6EA6FD"/>
<path d="M224.524 287.315C217.486 287.315 211.769 281.19 211.529 280.91C211.496 280.878 211.471 280.84 211.453 280.798C211.436 280.756 211.427 280.711 211.427 280.666C211.427 280.62 211.436 280.575 211.453 280.533C211.471 280.492 211.496 280.453 211.529 280.421C211.56 280.39 211.597 280.364 211.639 280.347C211.68 280.329 211.724 280.321 211.769 280.321C211.814 280.321 211.858 280.329 211.899 280.347C211.94 280.364 211.978 280.39 212.009 280.421C212.065 280.478 217.766 286.563 224.5 286.587C224.549 286.579 224.599 286.582 224.647 286.596C224.694 286.61 224.739 286.633 224.776 286.666C224.814 286.698 224.844 286.738 224.865 286.783C224.886 286.828 224.896 286.877 224.896 286.927C224.896 286.977 224.886 287.026 224.865 287.071C224.844 287.116 224.814 287.156 224.776 287.188C224.739 287.221 224.694 287.245 224.647 287.258C224.599 287.272 224.549 287.275 224.5 287.267L224.524 287.315Z" fill="#464A89"/>
<path d="M133.149 190.697H44.7366C44.3298 190.697 44 191.027 44 191.434V233.35C44 233.757 44.3298 234.087 44.7366 234.087H133.149C133.556 234.087 133.886 233.757 133.886 233.35V191.434C133.886 191.027 133.556 190.697 133.149 190.697Z" fill="white"/>
<path d="M133.149 190.697H44.7366C44.3298 190.697 44 191.027 44 191.434V233.35C44 233.757 44.3298 234.087 44.7366 234.087H133.149C133.556 234.087 133.886 233.757 133.886 233.35V191.434C133.886 191.027 133.556 190.697 133.149 190.697Z" fill="#606060"/>
<path d="M55.4496 204.828L53.9843 203.475C53.9162 203.411 53.8743 203.324 53.8669 203.231C53.8595 203.137 53.8871 203.045 53.9443 202.971C53.9699 202.936 54.0027 202.906 54.0405 202.885C54.0783 202.864 54.1202 202.851 54.1634 202.847C54.2067 202.843 54.2502 202.849 54.2911 202.863C54.332 202.878 54.3694 202.901 54.4007 202.931L55.4096 203.859L57.7156 201.305C57.7441 201.273 57.7793 201.247 57.8186 201.229C57.858 201.211 57.9006 201.202 57.9438 201.202C57.9869 201.202 58.0296 201.211 58.069 201.229C58.1083 201.247 58.1434 201.273 58.172 201.305C58.2344 201.374 58.269 201.464 58.269 201.557C58.269 201.651 58.2344 201.74 58.172 201.81L55.4496 204.828ZM55.4496 223.837L53.9843 222.483C53.9162 222.419 53.8743 222.332 53.8669 222.239C53.8595 222.146 53.8871 222.053 53.9443 221.979C53.9699 221.944 54.0027 221.915 54.0405 221.894C54.0783 221.872 54.1202 221.859 54.1634 221.855C54.2067 221.852 54.2502 221.857 54.2911 221.872C54.332 221.886 54.3694 221.909 54.4007 221.939L55.4096 222.868L57.7156 220.314C57.7441 220.281 57.7793 220.255 57.8186 220.238C57.858 220.22 57.9006 220.211 57.9438 220.211C57.9869 220.211 58.0296 220.22 58.069 220.238C58.1083 220.255 58.1434 220.281 58.172 220.314C58.2344 220.383 58.269 220.473 58.269 220.566C58.269 220.659 58.2344 220.749 58.172 220.818L55.4496 223.837ZM68.8372 201.954H120.618V202.642H68.8372V201.954ZM72.3282 207.078H124.109V207.767H72.3282V207.078ZM68.8372 212.203H120.618V212.891H68.8372V212.203ZM72.3282 217.327H124.109V218.016H72.3282V217.327ZM68.8372 222.78H120.618V223.468H68.8372V222.78Z" fill="white"/>
<path d="M260.264 369.79H259.764V222.014L260.254 219.538C260.578 218.753 261.054 218.039 261.654 217.438C262.255 216.837 262.968 216.36 263.753 216.034C264.538 215.709 265.379 215.541 266.229 215.541H506.847C507.697 215.541 508.538 215.709 509.323 216.034C510.108 216.36 510.821 216.837 511.421 217.438C512.022 218.039 512.498 218.753 512.822 219.538C513.147 220.323 513.313 221.165 513.312 222.014V369.79H512.812M260.264 369.79V370.29H512.812V369.79M260.264 369.79H512.812M260.264 369.79L260.264 222.014L260.264 222.014C260.263 221.23 260.417 220.453 260.716 219.729C261.015 219.004 261.454 218.346 262.008 217.791C262.562 217.236 263.22 216.796 263.944 216.496C264.668 216.196 265.445 216.041 266.229 216.041H506.847C507.631 216.041 508.408 216.196 509.132 216.496C509.856 216.796 510.514 217.236 511.068 217.791C511.622 218.346 512.061 219.004 512.36 219.729C512.659 220.453 512.813 221.23 512.812 222.014V222.014V369.79" fill="#0E2A4C" stroke="#0E2A4C"/>
<path d="M527.054 373.427V381.501H246.021V373.427C246.021 372.547 246.371 371.702 246.994 371.08C247.616 370.457 248.461 370.107 249.341 370.107H523.734C524.615 370.107 525.459 370.457 526.082 371.08C526.704 371.702 527.054 372.547 527.054 373.427Z" fill="#003B80" stroke="#0E2A4C"/>
<path d="M526.137 376.825H246.939C246.696 376.825 246.462 376.729 246.29 376.557L245.937 376.91L246.29 376.557C246.118 376.385 246.021 376.151 246.021 375.908V373.315C246.021 372.318 246.418 371.361 247.123 370.656C247.828 369.951 248.785 369.555 249.782 369.555H523.302C524.298 369.557 525.252 369.954 525.955 370.659C526.659 371.364 527.054 372.319 527.054 373.315V375.908C527.054 376.151 526.958 376.385 526.785 376.557C526.613 376.729 526.38 376.825 526.137 376.825Z" fill="#004A9F" stroke="#0E2A4C"/>
<path d="M269.055 227.217H504.73V364.837H269.055V227.217Z" fill="#E2E8FA"/>
<path d="M484.922 244.242V251.06H287.688V244.242C287.688 239.264 292.086 235.236 297.505 235.236H475.104C480.523 235.236 484.922 239.264 484.922 244.242Z" fill="#92CCC1"/>
<path d="M484.922 251.061V351.433C484.922 356.411 480.531 360.447 475.104 360.447H297.505C292.086 360.447 287.696 356.411 287.696 351.433V251.061H484.922ZM302.716 246.956C301.955 246.958 301.211 246.734 300.577 246.312C299.944 245.891 299.449 245.291 299.157 244.588C298.864 243.886 298.787 243.112 298.935 242.365C299.082 241.619 299.448 240.933 299.985 240.394C300.523 239.855 301.208 239.488 301.954 239.339C302.7 239.19 303.474 239.266 304.177 239.557C304.88 239.847 305.482 240.34 305.905 240.973C306.328 241.606 306.553 242.349 306.553 243.11C306.551 244.128 306.146 245.104 305.427 245.824C304.709 246.545 303.734 246.952 302.716 246.956ZM302.716 240.042C302.102 240.041 301.501 240.221 300.989 240.562C300.478 240.902 300.079 241.386 299.843 241.954C299.607 242.521 299.545 243.146 299.664 243.748C299.784 244.351 300.079 244.904 300.514 245.339C300.948 245.773 301.502 246.069 302.104 246.188C302.707 246.308 303.332 246.246 303.899 246.01C304.466 245.774 304.951 245.375 305.291 244.863C305.631 244.352 305.812 243.751 305.81 243.136C305.808 242.317 305.481 241.531 304.901 240.951C304.322 240.371 303.536 240.045 302.716 240.042ZM311.963 246.956C311.202 246.958 310.458 246.734 309.824 246.312C309.191 245.891 308.697 245.291 308.404 244.588C308.112 243.886 308.034 243.112 308.182 242.365C308.329 241.619 308.695 240.933 309.232 240.394C309.77 239.855 310.455 239.488 311.201 239.339C311.948 239.19 312.721 239.266 313.424 239.557C314.128 239.847 314.729 240.34 315.152 240.973C315.575 241.606 315.801 242.349 315.801 243.11C315.801 244.129 315.397 245.106 314.677 245.827C313.958 246.548 312.982 246.954 311.963 246.956ZM311.963 240.042C311.349 240.042 310.749 240.225 310.239 240.566C309.728 240.907 309.331 241.392 309.096 241.96C308.862 242.527 308.801 243.151 308.921 243.754C309.041 244.356 309.338 244.908 309.773 245.342C310.207 245.776 310.761 246.07 311.363 246.189C311.966 246.308 312.59 246.245 313.157 246.009C313.723 245.773 314.207 245.374 314.547 244.862C314.887 244.351 315.068 243.75 315.066 243.136C315.066 242.729 314.986 242.326 314.83 241.95C314.674 241.574 314.445 241.233 314.157 240.946C313.869 240.658 313.526 240.43 313.15 240.275C312.774 240.12 312.37 240.041 311.963 240.042ZM321.185 246.956C320.424 246.958 319.679 246.734 319.046 246.312C318.412 245.891 317.918 245.291 317.625 244.588C317.333 243.886 317.256 243.112 317.403 242.365C317.551 241.619 317.916 240.933 318.454 240.394C318.991 239.855 319.676 239.488 320.423 239.339C321.169 239.19 321.943 239.266 322.646 239.557C323.349 239.847 323.95 240.34 324.373 240.973C324.796 241.606 325.022 242.349 325.022 243.11C325.02 244.128 324.615 245.104 323.896 245.824C323.177 246.545 322.202 246.952 321.185 246.956ZM321.185 240.042C320.57 240.041 319.969 240.221 319.458 240.562C318.946 240.902 318.547 241.386 318.311 241.954C318.075 242.521 318.013 243.146 318.133 243.748C318.252 244.351 318.548 244.904 318.982 245.339C319.417 245.773 319.97 246.069 320.573 246.188C321.176 246.308 321.8 246.246 322.367 246.01C322.935 245.774 323.419 245.375 323.759 244.863C324.1 244.352 324.28 243.751 324.279 243.136C324.276 242.317 323.95 241.531 323.37 240.951C322.79 240.371 322.005 240.045 321.185 240.042Z" fill="white"/>
<path d="M385.06 230.742C384.8 229.719 384.169 228.828 383.289 228.245C383.106 228.136 382.915 228.041 382.718 227.96C382.065 227.329 381.291 226.837 380.443 226.513C379.595 226.19 378.691 226.041 377.783 226.076C371.898 226.076 366.004 226.603 360.127 226.292C355.909 225.936 351.898 224.309 348.624 221.625C345.625 219.274 342.644 215.973 342.376 212.041C342.264 210.312 342.229 208.635 342.203 206.95C342.466 205.161 342.972 203.417 343.707 201.765C345.587 197.339 347.848 193.086 350.465 189.052C353.058 185.232 356.195 183.391 359.972 180.911L360.326 180.652C367.365 179.119 374.72 180.149 381.068 183.556C386.835 186.78 391.22 192.007 393.391 198.247C394.535 201.299 394.88 204.592 394.394 207.814C393.754 211.228 392.147 214.4 391.741 217.865C391.572 219.131 391.633 220.416 391.922 221.659C392.545 224.174 394.308 226.473 394.1 229.057C393.901 231.512 391.991 233.43 390.712 235.539C389.157 238.136 388.501 241.174 388.846 244.181C388.874 244.43 388.822 244.681 388.695 244.898C388.569 245.114 388.376 245.284 388.145 245.381C387.915 245.478 387.659 245.498 387.415 245.438C387.172 245.377 386.956 245.24 386.797 245.046C385.388 243.395 384.599 241.304 384.568 239.134C384.585 236.299 385.838 233.586 385.06 230.742Z" fill="#231F20"/>
<path d="M344.519 209.059C344.649 209.215 344.848 209.474 345.038 209.742C345.6 210.528 346.135 211.349 345.038 209.742L344.545 209.016C345.098 209.837 345.755 210.623 346.343 211.41C347.475 212.913 348.598 214.409 349.705 215.921C351.958 218.854 353.981 221.957 355.754 225.203C355.901 225.471 356.022 225.747 356.16 226.015C356.394 226.629 356.662 227.242 356.852 227.839C357.094 228.608 357.293 229.386 357.483 230.172C356.38 230.45 355.372 231.017 354.562 231.814C354.366 231.892 354.178 231.987 354 232.099C353.112 232.676 352.475 233.569 352.22 234.597C351.442 237.44 352.695 240.154 352.678 242.945C352.647 245.118 351.858 247.212 350.448 248.865C350.29 249.06 350.073 249.197 349.83 249.258C349.587 249.318 349.331 249.298 349.1 249.201C348.869 249.104 348.676 248.934 348.55 248.718C348.424 248.501 348.371 248.25 348.4 248.001C348.74 244.994 348.084 241.958 346.533 239.359C345.254 237.25 343.344 235.34 343.154 232.886C342.964 230.431 344.709 228.003 345.332 225.488C345.618 224.241 345.677 222.953 345.505 221.685C345.098 218.228 343.491 215.057 342.851 211.643C342.575 210.114 342.531 208.553 342.722 207.011C343.344 207.693 343.966 208.35 344.519 209.059Z" fill="#231F20"/>
<path d="M389.183 253.083C390.935 253.786 392.428 255.011 393.46 256.592C394.492 258.172 395.013 260.032 394.953 261.919C394.893 263.806 394.254 265.628 393.122 267.14C391.991 268.651 390.423 269.778 388.63 270.368C374.951 274.935 360.133 274.759 346.568 269.866C344.794 269.215 343.253 268.054 342.138 266.528C341.023 265.003 340.384 263.182 340.302 261.294C340.22 259.407 340.698 257.537 341.676 255.921C342.654 254.304 344.088 253.013 345.798 252.21C346.314 251.97 346.816 251.702 347.302 251.406C347.432 251.329 347.561 251.251 347.682 251.164C347.803 251.078 347.959 250.992 348.089 250.897C350.208 249.439 351.947 247.495 353.162 245.227C354.48 242.469 355.139 239.443 355.089 236.386C355.089 235.453 354.959 223.068 355.504 223.068C359.903 223.068 363.411 230.034 367.793 230.648L378.967 232.221L378.786 240.906L378.864 243.499L379.028 248.978L382.986 250.594L386.08 251.847L389.183 253.083Z" fill="#FFB185"/>
<path d="M386.115 207.607C386.979 215.48 381.794 236.818 376.548 236.04C369.496 234.986 353.257 232.125 345.997 219.43C335.35 200.814 348.685 190.858 359.393 187.764C370.101 184.67 384.533 193.071 386.115 207.607Z" fill="#FFB185"/>
<path d="M349.566 216.595H349.627C349.808 216.595 350.041 216.457 350.111 215.982C350.183 215.496 350.302 215.019 350.465 214.556C350.759 213.691 350.854 213.19 349.825 212.196C349.79 212.162 349.749 212.135 349.703 212.117C349.658 212.099 349.609 212.091 349.56 212.091C349.461 212.093 349.367 212.134 349.298 212.205C349.229 212.276 349.192 212.371 349.193 212.47C349.195 212.569 349.236 212.663 349.307 212.732C350.05 213.441 349.998 213.596 349.756 214.322C349.622 214.724 349.513 215.134 349.428 215.549C348.639 213.924 347.946 212.253 347.354 210.546C347.241 210.252 347.155 210.001 347.086 209.837C347.945 209.961 348.781 210.211 349.566 210.58C349.612 210.605 349.662 210.619 349.714 210.623C349.765 210.627 349.817 210.62 349.866 210.602C349.915 210.585 349.959 210.558 349.997 210.522C350.034 210.486 350.064 210.443 350.084 210.396C350.104 210.348 350.114 210.296 350.113 210.245C350.112 210.193 350.1 210.142 350.078 210.095C350.056 210.048 350.024 210.006 349.985 209.972C349.946 209.938 349.901 209.913 349.851 209.897C348.59 209.353 346.973 208.808 346.464 209.301C346.369 209.4 346.309 209.525 346.29 209.66C346.272 209.795 346.296 209.933 346.36 210.053C346.42 210.209 346.515 210.476 346.645 210.805C348.469 215.696 349.03 216.595 349.566 216.595Z" fill="#231F20"/>
<path d="M373.696 189.597C373.402 189.096 368.095 190.773 365.269 192.674C359.047 196.857 355.296 200.893 352.859 207.876C352.763 208.294 352.547 208.676 352.237 208.973C351.528 209.526 350.387 208.308 349.921 207.893C349.086 207.092 348.073 206.499 346.965 206.164C344.891 205.706 344.545 207.953 344.701 210.226C344.862 212.534 345.79 214.721 347.337 216.44L350.033 219.465C350.465 219.949 357.543 227.952 355.884 230.259C350.275 238.037 339.031 218.938 338.176 209.163C337.32 199.389 342.022 187.376 350.353 182.683C354.138 180.549 360.231 182.13 364.63 182.856C368.631 183.478 371.717 186.158 373.696 189.597ZM374.664 236.447C376.097 236.516 377.525 236.219 378.812 235.583C378.86 235.562 378.904 235.531 378.94 235.491C378.975 235.452 379.002 235.406 379.018 235.355C379.034 235.305 379.039 235.251 379.033 235.199C379.027 235.146 379.01 235.095 378.982 235.05C378.955 235.005 378.918 234.966 378.875 234.936C378.831 234.906 378.781 234.885 378.729 234.876C378.677 234.867 378.623 234.869 378.572 234.882C378.521 234.895 378.473 234.919 378.432 234.952C376.81 235.691 375.005 235.932 373.246 235.643C370.138 235.394 367.121 234.481 364.396 232.964C364.314 232.913 364.215 232.896 364.12 232.917C364.025 232.938 363.942 232.995 363.888 233.076C363.835 233.158 363.816 233.257 363.835 233.352C363.854 233.448 363.91 233.532 363.99 233.586C364.129 233.673 367.378 235.756 373.246 236.369C373.717 236.422 374.19 236.448 374.664 236.447Z" fill="#231F20"/>
<path d="M335.012 355.59L316.146 329.058L344.796 247.016C361.665 255.737 371.388 259.98 386.711 247.016L394.86 293.002L386.771 355.555L335.012 355.59Z" fill="#F6EAE0"/>
<path d="M458.468 270.61C459.951 268.411 461.613 266.338 463.437 264.413C466.349 261.405 470.766 261.76 474.577 261.112C477.84 260.512 481.049 259.645 484.17 258.519L484.412 258.433C489.312 256.747 475.467 269.158 466.522 274.308C465.384 274.937 464.476 275.911 463.929 277.091C461.88 281.933 460.71 287.101 460.473 292.354C458.226 290.971 456.039 289.476 453.844 288.076C452.867 287.453 451.873 286.857 450.871 286.269C452.064 284.135 453.766 280.453 455.555 276.365C456.258 274.687 457.069 273.056 457.984 271.482C458.116 271.177 458.277 270.886 458.468 270.61Z" fill="#FFB185"/>
<path d="M402.068 312.387C401.792 326.815 402.404 341.246 403.9 355.598H372.935C373.013 349.22 373.047 344.286 373.013 342.194C372.563 309.76 373.203 275.433 378.872 243.491C385.717 246.083 399.026 249.765 404.574 253.809C408.688 256.808 431.27 314.522 431.919 313.329L447.233 284.809C451.969 280.125 464.422 288.984 464.232 290.971C463.264 300.72 451.822 329.551 445.824 338.106C443.681 341.166 437.069 350.206 432.126 346.697C420.571 338.443 409.475 324.495 402.068 312.387ZM327.425 251.865C331.288 248.062 354.561 241.27 354.561 241.27C354.561 241.27 357.915 336.836 357.837 337.787C357.586 340.782 357.006 343.741 356.108 346.61C356.022 346.878 355.408 350.283 354.458 355.59H325.264C325.67 352.332 322.058 351.9 322.473 348.676C309.077 345.487 302.872 337.346 300.659 333.829C295.569 325.662 320.917 258.26 327.425 251.865Z" fill="#B37962"/>
<path d="M356.134 346.611C362.296 347.164 366.747 347.198 369.789 345.824C375.26 343.344 377.956 346.688 379.84 349.454C382.027 352.703 382.727 353.187 382.632 345.85C382.519 336.689 368.277 336.231 365.477 337.372L365.027 337.536C362.695 338.253 360.214 338.339 357.837 337.787C357.594 340.782 357.023 343.741 356.134 346.611Z" fill="#FFB185"/>
<path d="M461.372 299.899C461.422 299.9 461.471 299.89 461.518 299.871C461.564 299.851 461.605 299.823 461.64 299.787C461.708 299.716 461.746 299.621 461.746 299.523C461.746 299.425 461.708 299.33 461.64 299.259C461.562 299.19 453.862 292.086 445.522 290.686C445.425 290.671 445.325 290.694 445.245 290.75C445.164 290.807 445.109 290.892 445.09 290.989C445.081 291.038 445.082 291.088 445.093 291.136C445.105 291.184 445.125 291.23 445.154 291.27C445.183 291.311 445.22 291.345 445.262 291.371C445.305 291.396 445.352 291.414 445.401 291.421C453.551 292.778 461.061 299.735 461.13 299.804C461.198 299.861 461.283 299.894 461.372 299.899Z" fill="#211F43"/>
<path d="M354.89 353.611C354.972 353.61 355.051 353.581 355.115 353.529C355.18 353.478 355.225 353.406 355.244 353.326C355.391 352.721 358.83 338.634 358.182 335.912C357.145 331.643 349.41 330.225 341.926 328.851C335.972 327.762 329.827 326.63 329.256 324.132C328.919 322.629 331.037 315.162 333.085 307.928C334.183 304.065 335.315 300.072 336.11 296.857C336.131 296.761 336.114 296.661 336.062 296.577C336.011 296.493 335.929 296.432 335.833 296.408C335.786 296.396 335.736 296.394 335.688 296.402C335.639 296.41 335.593 296.427 335.551 296.453C335.509 296.478 335.473 296.512 335.444 296.552C335.416 296.592 335.395 296.637 335.384 296.684C334.597 299.882 333.465 303.866 332.376 307.729C330.112 315.715 328.159 322.611 328.531 324.288C329.205 327.27 335.038 328.341 341.788 329.577C348.702 330.847 356.54 332.282 357.456 336.085C357.966 338.185 355.512 349.117 354.527 353.145C354.515 353.192 354.513 353.242 354.521 353.29C354.528 353.339 354.545 353.385 354.571 353.427C354.597 353.469 354.631 353.505 354.67 353.534C354.71 353.562 354.755 353.583 354.803 353.594L354.89 353.611Z" fill="#211F43"/>
<path d="M343.361 353.61C343.441 353.609 343.519 353.583 343.582 353.535C343.646 353.486 343.693 353.419 343.715 353.342C343.923 352.625 348.797 335.876 348.365 330.397C348.354 330.3 348.307 330.212 348.233 330.149C348.159 330.087 348.064 330.055 347.967 330.06C347.918 330.062 347.87 330.074 347.825 330.095C347.781 330.117 347.741 330.147 347.709 330.184C347.677 330.221 347.652 330.265 347.637 330.312C347.622 330.359 347.617 330.408 347.621 330.457C348.045 335.798 343.058 352.927 343.006 353.135C342.98 353.229 342.991 353.329 343.038 353.415C343.085 353.501 343.164 353.565 343.257 353.593L343.361 353.61ZM373.695 320.657C373.763 320.657 373.829 320.638 373.887 320.603C373.945 320.568 373.992 320.518 374.024 320.458C387.739 294.739 388.664 275.674 386.987 264.197C385.198 251.726 380.073 245.261 380.004 245.184C379.938 245.122 379.853 245.086 379.762 245.083C379.672 245.08 379.584 245.11 379.514 245.167C379.444 245.224 379.398 245.304 379.383 245.393C379.368 245.482 379.386 245.574 379.434 245.65C379.486 245.719 384.507 252.063 386.261 264.352C387.877 275.708 386.953 294.6 373.341 320.104C373.295 320.191 373.286 320.293 373.315 320.387C373.344 320.48 373.41 320.559 373.497 320.605C373.557 320.639 373.626 320.657 373.695 320.657ZM356.134 318.444C356.195 318.448 356.255 318.433 356.307 318.401C356.394 318.355 356.459 318.277 356.488 318.183C356.518 318.089 356.508 317.987 356.463 317.9C342.842 292.371 342.911 273.366 345.366 261.924C348.028 249.557 353.948 243.135 354.008 243.075C354.044 243.041 354.073 243 354.092 242.955C354.112 242.91 354.122 242.861 354.122 242.811C354.122 242.762 354.112 242.713 354.092 242.668C354.073 242.623 354.044 242.582 354.008 242.548C353.939 242.48 353.846 242.442 353.749 242.442C353.652 242.442 353.559 242.48 353.49 242.548C353.429 242.617 347.371 249.185 344.674 261.751C342.185 273.314 342.082 292.509 355.832 318.237C355.86 318.294 355.903 318.343 355.956 318.38C356.009 318.416 356.07 318.438 356.134 318.444Z" fill="#211F43"/>
<path d="M484.922 347.76V351.433C484.922 356.411 480.531 360.447 475.104 360.447H297.505C292.086 360.447 287.696 356.411 287.696 351.433V347.76H484.922Z" fill="#92CCC1"/>
<path d="M506.709 168H411.281C410.842 168 410.486 168.356 410.486 168.795V214.038C410.486 214.477 410.842 214.833 411.281 214.833H506.709C507.148 214.833 507.504 214.477 507.504 214.038V168.795C507.504 168.356 507.148 168 506.709 168Z" fill="white"/>
<path d="M506.709 168H411.281C410.842 168 410.486 168.356 410.486 168.795V214.038C410.486 214.477 410.842 214.833 411.281 214.833H506.709C507.148 214.833 507.504 214.477 507.504 214.038V168.795C507.504 168.356 507.148 168 506.709 168Z" fill="#0E2A4C"/>
<path d="M422.844 183.254L421.254 181.793C421.184 181.722 421.141 181.629 421.133 181.529C421.125 181.429 421.152 181.33 421.211 181.249C421.238 181.21 421.273 181.178 421.313 181.154C421.353 181.131 421.399 181.116 421.445 181.111C421.492 181.106 421.539 181.111 421.584 181.126C421.628 181.141 421.669 181.165 421.703 181.197L422.801 182.208L425.281 179.451C425.312 179.416 425.35 179.388 425.392 179.369C425.435 179.35 425.481 179.34 425.528 179.34C425.574 179.34 425.62 179.35 425.663 179.369C425.705 179.388 425.743 179.416 425.774 179.451C425.84 179.528 425.877 179.626 425.877 179.728C425.877 179.829 425.84 179.927 425.774 180.004L422.844 183.254ZM422.844 203.745L421.254 202.284C421.184 202.213 421.141 202.12 421.133 202.02C421.125 201.92 421.152 201.821 421.211 201.74C421.238 201.701 421.273 201.669 421.313 201.645C421.353 201.621 421.399 201.607 421.445 201.602C421.492 201.597 421.539 201.602 421.584 201.617C421.628 201.632 421.669 201.656 421.703 201.688L422.801 202.699L425.281 199.942C425.311 199.906 425.349 199.877 425.391 199.857C425.434 199.837 425.48 199.826 425.528 199.826C425.575 199.826 425.621 199.837 425.664 199.857C425.706 199.877 425.744 199.906 425.774 199.942C425.841 200.017 425.879 200.114 425.879 200.214C425.879 200.315 425.841 200.412 425.774 200.487L422.844 203.745Z" fill="white"/>
<path d="M437.294 180.151H493.184V180.894H437.294V180.151ZM441.062 185.682H496.952V186.425H441.062V185.682ZM437.294 191.213H493.184V191.956H437.294V191.213ZM441.062 196.744H496.952V197.488H441.062V196.744ZM437.294 202.63H493.184V203.373H437.294V202.63ZM427.632 186.927H418.03V177.316H427.632V186.927ZM418.765 186.183H426.897V178.06H418.765V186.183ZM427.632 206.934H418.03V197.323H427.632V206.934ZM418.765 206.19H426.897V198.067H418.765V206.19Z" fill="white"/>
<path d="M215.5 151C215.5 159 189.747 149 184.5 149C179.253 149 169.5 151 169.5 146.5C169.5 140 179.5 130.5 184.5 132C191.5 127.999 215.5 146.305 215.5 151Z" fill="#606060"/>
</g>
<defs>
<filter id="filter0_d_142_6470" x="-7.90601" y="-67.0001" width="581.302" height="592.549" filterUnits="userSpaceOnUse" color-interpolation-filters="sRGB">
<feFlood flood-opacity="0" result="BackgroundImageFix"/>
<feColorMatrix in="SourceAlpha" type="matrix" values="0 0 0 0 0 0 0 0 0 0 0 0 0 0 0 0 0 0 127 0" result="hardAlpha"/>
<feOffset dx="-1" dy="3"/>
<feGaussianBlur stdDeviation="41"/>
<feComposite in2="hardAlpha" operator="out"/>
<feColorMatrix type="matrix" values="0 0 0 0 0.0883334 0 0 0 0 0.0880389 0 0 0 0 0.0880389 0 0 0 0.2 0"/>
<feBlend mode="normal" in2="BackgroundImageFix" result="effect1_dropShadow_142_6470"/>
<feBlend mode="normal" in="SourceGraphic" in2="effect1_dropShadow_142_6470" result="shape"/>
</filter>
<clipPath id="clip0_142_6470">
<rect width="572" height="452" rx="20" fill="white"/>
</clipPath>
<clipPath id="clip1_142_6470">
<rect width="314.727" height="218.911" fill="white" transform="matrix(0.737365 -0.675495 -0.675605 -0.737263 234.288 410.676)"/>
</clipPath>
<clipPath id="clip2_142_6470">
<rect width="314.727" height="218.911" fill="white" transform="matrix(-0.239847 0.970811 0.970846 0.239702 216.852 112.674)"/>
</clipPath>
</defs>
</svg>
