<svg width="1440" height="400" viewBox="0 0 1440 400" fill="none" xmlns="http://www.w3.org/2000/svg">
<g clip-path="url(#clip0_1_16)">
<rect width="1440" height="400" fill="#ECF5FF"/>
<g opacity="0.7" clip-path="url(#clip1_1_16)">
<path d="M1410.32 345.957C1407.13 348.4 1403.1 349.475 1399.12 348.947C1395.14 348.42 1391.53 346.332 1389.09 343.143L1382.18 334.126L1355.13 354.845L1362.04 363.862C1364.48 367.051 1365.55 371.079 1365.03 375.061C1364.5 379.043 1362.41 382.652 1359.22 385.094L1410.32 345.957Z" fill="#CCD5E2"/>
<path d="M1365.2 339.977C1366.86 338.706 1367.18 336.329 1365.91 334.669C1364.64 333.009 1362.26 332.694 1360.6 333.965C1358.94 335.237 1358.62 337.613 1359.9 339.274C1361.17 340.934 1363.54 341.249 1365.2 339.977Z" fill="#95A0BA"/>
<path d="M1227.45 309.564L1371.73 199.061L1429.28 274.205L1285.01 384.708L1227.45 309.564Z" fill="#798199"/>
<path d="M1234.52 296.999C1236.18 295.727 1236.5 293.351 1235.23 291.69C1233.95 290.03 1231.58 289.715 1229.92 290.987C1228.26 292.258 1227.94 294.635 1229.21 296.295C1230.48 297.955 1232.86 298.271 1234.52 296.999Z" fill="#FB5F5C"/>
<path d="M1243.54 290.093C1245.2 288.821 1245.51 286.444 1244.24 284.784C1242.97 283.124 1240.59 282.809 1238.93 284.08C1237.27 285.352 1236.96 287.729 1238.23 289.389C1239.5 291.049 1241.88 291.364 1243.54 290.093Z" fill="#FDBB3B"/>
<path d="M1252.56 283.186C1254.22 281.915 1254.53 279.538 1253.26 277.878C1251.99 276.218 1249.61 275.903 1247.95 277.174C1246.29 278.446 1245.98 280.822 1247.25 282.483C1248.52 284.143 1250.9 284.458 1252.56 283.186Z" fill="#39C948"/>
<path d="M1227.45 309.564L1371.73 199.061" stroke="#47537A" stroke-width="2" stroke-linecap="round" stroke-linejoin="round"/>
<path d="M1212.37 277.417L1344.62 176.123C1346.21 174.902 1348.23 174.364 1350.22 174.628C1352.21 174.892 1354.01 175.936 1355.23 177.53L1359.84 183.542L1215.56 294.045L1210.96 288.033C1209.74 286.439 1209.2 284.425 1209.46 282.434C1209.73 280.443 1210.77 278.639 1212.37 277.417Z" fill="#CCD5E2"/>
<path opacity="0.5" d="M1309.02 437.853L1340.58 413.68M1373.64 388.356L1462.31 320.443M1346.59 409.076L1367.63 392.961" stroke="#9BA1B2" stroke-width="2" stroke-linejoin="round"/>
<path d="M1285.01 384.709L1429.28 274.205M1215.94 294.536L1360.22 184.033" stroke="#47537A" stroke-width="2" stroke-linecap="round" stroke-linejoin="round"/>
<path d="M1285.78 236.279C1287.44 235.007 1287.76 232.631 1286.48 230.971C1285.21 229.31 1282.84 228.995 1281.18 230.267C1279.51 231.538 1279.2 233.915 1280.47 235.575C1281.74 237.236 1284.12 237.551 1285.78 236.279Z" fill="#95A0BA"/>
<path d="M1345 176.614L1212.75 277.909C1209.43 280.451 1208.8 285.204 1211.34 288.524L1291.91 393.726C1294.46 397.046 1299.21 397.676 1302.53 395.133L1434.78 293.839C1438.1 291.296 1438.73 286.543 1436.19 283.223L1355.62 178.021C1353.07 174.701 1348.32 174.071 1345 176.614Z" stroke="#47537A" stroke-width="2" stroke-linecap="round" stroke-linejoin="round"/>
<path d="M1348.7 393.152L1420.84 337.901" stroke="#47537A" stroke-width="2" stroke-linejoin="round"/>
<path d="M1355.13 354.845L1362.04 363.862C1364.48 367.051 1365.55 371.079 1365.03 375.061C1364.5 379.043 1362.41 382.652 1359.22 385.094M1382.18 334.126L1389.09 343.143C1391.53 346.332 1395.14 348.42 1399.12 348.947C1403.1 349.475 1407.13 348.4 1410.32 345.957" stroke="#47537A" stroke-width="2" stroke-linecap="round" stroke-linejoin="round"/>
<path d="M1241.87 312.826L1244.88 310.524M1246.48 318.838L1249.48 316.536M1251.08 324.849L1254.09 322.547M1255.69 330.861L1258.69 328.559M1260.29 336.872L1263.3 334.57M1264.9 342.884L1267.9 340.582M1269.5 348.895L1272.51 346.593M1274.1 354.907L1277.11 352.605M1278.71 360.918L1281.71 358.616M1283.31 366.93L1286.32 364.628M1287.92 372.941L1290.92 370.639" stroke="#CCD5E2" stroke-width="2" stroke-miterlimit="10"/>
<path d="M1250.89 305.92L1253.9 303.618M1255.5 311.932L1258.5 309.63M1260.1 317.943L1263.11 315.641M1264.7 323.955L1267.71 321.653M1269.31 329.966L1272.31 327.664M1273.91 335.978L1276.92 333.676M1284.53 337.385L1287.54 335.083M1305.76 340.199L1308.77 337.897" stroke="white" stroke-width="2" stroke-miterlimit="10"/>
<path d="M1256.9 301.315L1262.92 296.711" stroke="#FF6490" stroke-width="2" stroke-miterlimit="10"/>
<path d="M1300.49 267.935L1303.49 265.633M1290.06 285.457L1293.07 283.155" stroke="white" stroke-width="2" stroke-miterlimit="10"/>
<path d="M1293.16 292.619L1296.17 290.317" stroke="#FFEB5C" stroke-width="2" stroke-miterlimit="10"/>
<path d="M1265.92 294.409L1271.93 289.805M1274.94 287.503L1286.96 278.294M1289.97 275.992L1297.48 270.237M1324.72 268.447L1327.73 266.145M1339.75 256.936L1342.76 254.634M1275.13 306.432L1290.16 294.922" stroke="white" stroke-width="2" stroke-miterlimit="10"/>
<path d="M1299.18 288.016L1311.2 278.807" stroke="#CCD5E2" stroke-width="2" stroke-miterlimit="10"/>
<path d="M1314.2 276.505L1321.72 270.749" stroke="#FFEB5C" stroke-width="2" stroke-miterlimit="10"/>
<path d="M1261.51 307.327L1270.53 300.421" stroke="#FF6490" stroke-width="2" stroke-miterlimit="10"/>
<path d="M1273.53 298.119L1287.06 287.759" stroke="#7DFF86" stroke-width="2" stroke-miterlimit="10"/>
<path d="M1336.65 249.774L1339.66 247.471" stroke="white" stroke-width="2" stroke-miterlimit="10"/>
<path d="M1296.07 280.853L1333.65 252.076" stroke="#FFEB5C" stroke-width="2" stroke-miterlimit="10"/>
<path d="M1302.56 323.572L1305.57 321.27M1325.11 306.306L1332.62 300.551" stroke="#7DFF86" stroke-width="2" stroke-miterlimit="10"/>
<path d="M1290.54 332.78L1299.56 325.874" stroke="#FF6490" stroke-width="2" stroke-miterlimit="10"/>
<path d="M1308.58 318.968L1322.1 308.608M1335.63 298.248L1353.66 284.435" stroke="#FFEB5C" stroke-width="2" stroke-miterlimit="10"/>
<path d="M1266.11 313.339L1272.12 308.735M1330.74 263.843L1336.75 259.238M1270.72 319.35L1276.73 314.746" stroke="#FF6490" stroke-width="2" stroke-miterlimit="10"/>
<path d="M1275.32 325.362L1287.34 316.154M1294.95 319.863L1312.99 306.05M1290.35 313.852L1293.36 311.549" stroke="white" stroke-width="2" stroke-miterlimit="10"/>
<path d="M1279.93 331.373L1291.95 322.164" stroke="#FF6490" stroke-width="2" stroke-miterlimit="10"/>
<path d="M1298.15 336.49L1304.16 331.886M1331.41 330.096L1337.42 325.492M1317.78 330.991L1335.82 317.178M1344.84 310.271L1362.87 296.459" stroke="white" stroke-width="2" stroke-miterlimit="10"/>
<path d="M1311.77 335.595L1314.78 333.293M1338.82 314.876L1341.83 312.573M1310.37 346.211L1313.37 343.909" stroke="#FF6490" stroke-width="2" stroke-miterlimit="10"/>
<path d="M1316.38 341.606L1328.4 332.398" stroke="#76D8FF" stroke-width="2" stroke-miterlimit="10"/>
<rect x="1252.44" y="354.616" width="18" height="9" rx="4.5" transform="rotate(-129.478 1252.44 354.616)" fill="#ECF5FF"/>
<rect x="1318" y="189.675" width="15.2314" height="7.61568" rx="3.80784" transform="rotate(-39.4331 1318 189.675)" fill="#ECF5FF"/>
</g>
<g opacity="0.7" clip-path="url(#clip2_1_16)">
<path d="M99.2013 394.48C95.5944 392.712 92.8374 389.585 91.5366 385.785C90.2359 381.985 90.498 377.823 92.2652 374.217L97.2629 364.017L66.6638 349.024L61.6661 359.224C59.8989 362.83 56.7712 365.587 52.9711 366.888C49.171 368.189 45.0098 367.927 41.403 366.16L99.2013 394.48Z" fill="#CCD5E2"/>
<path d="M84.4622 351.421C86.3402 352.341 88.6084 351.565 89.5286 349.687C90.4487 347.809 89.6723 345.541 87.7944 344.62C85.9165 343.7 83.6482 344.477 82.728 346.355C81.8079 348.233 82.5843 350.501 84.4622 351.421Z" fill="#95A0BA"/>
<path d="M50.3423 214.542L213.537 294.505L171.89 379.502L8.69511 299.539L50.3423 214.542Z" fill="#798199"/>
<path d="M64.7408 215.273C66.6188 216.193 68.887 215.417 69.8072 213.539C70.7273 211.661 69.9509 209.393 68.073 208.473C66.1951 207.553 63.9268 208.329 63.0066 210.207C62.0865 212.085 62.8629 214.353 64.7408 215.273Z" fill="#FB5F5C"/>
<path d="M74.9404 220.271C76.8184 221.191 79.0867 220.415 80.0068 218.537C80.927 216.659 80.1505 214.391 78.2726 213.471C76.3947 212.551 74.1264 213.327 73.2062 215.205C72.2861 217.083 73.0625 219.351 74.9404 220.271Z" fill="#FDBB3B"/>
<path d="M85.1404 225.268C87.0183 226.189 89.2866 225.412 90.2068 223.534C91.1269 221.656 90.3505 219.388 88.4725 218.468C86.5946 217.548 84.3263 218.324 83.4062 220.202C82.486 222.08 83.2625 224.348 85.1404 225.268Z" fill="#39C948"/>
<path d="M50.3423 214.542L213.537 294.505" stroke="#47537A" stroke-width="2" stroke-linecap="round" stroke-linejoin="round"/>
<path d="M72.4055 186.715L222.001 260.014C223.804 260.897 225.183 262.461 225.833 264.361C226.484 266.261 226.353 268.342 225.469 270.145L222.137 276.945L58.9422 196.982L62.2739 190.183C63.1576 188.379 64.7214 187.001 66.6215 186.35C68.5215 185.7 70.6021 185.831 72.4055 186.715Z" fill="#CCD5E2"/>
<path opacity="0.5" d="M-28.1928 344.707L7.50613 362.199M44.905 380.524L145.202 429.667M14.3059 365.531L38.1052 377.192" stroke="#9BA1B2" stroke-width="2" stroke-linejoin="round"/>
<path d="M8.69518 299.539L171.89 379.502M58.6718 197.542L221.867 277.505" stroke="#47537A" stroke-width="2" stroke-linecap="round" stroke-linejoin="round"/>
<path d="M141.935 234.125C143.813 235.045 146.081 234.269 147.001 232.391C147.922 230.513 147.145 228.244 145.267 227.324C143.389 226.404 141.121 227.181 140.201 229.058C139.281 230.936 140.057 233.205 141.935 234.125Z" fill="#95A0BA"/>
<path d="M221.731 260.573L72.1352 187.274C68.3798 185.434 63.8438 186.987 62.0037 190.742L3.69764 309.739C1.85755 313.494 3.41024 318.03 7.16566 319.87L156.761 393.169C160.517 395.009 165.053 393.457 166.893 389.701L225.199 270.705C227.039 266.949 225.486 262.413 221.731 260.573Z" stroke="#47537A" stroke-width="2" stroke-linecap="round" stroke-linejoin="round"/>
<path d="M29.5032 360.328L111.101 400.309" stroke="#47537A" stroke-width="2" stroke-linejoin="round"/>
<path d="M66.6638 349.024L61.6661 359.224C59.8989 362.83 56.7712 365.587 52.9711 366.888C49.171 368.189 45.0098 367.927 41.403 366.16M97.2629 364.017L92.2652 374.217C90.498 377.823 90.2359 381.985 91.5366 385.785C92.8374 389.585 95.5944 392.712 99.2013 394.48" stroke="#47537A" stroke-width="2" stroke-linecap="round" stroke-linejoin="round"/>
<path d="M53.8442 228.906L57.2441 230.572M50.5125 235.706L53.9124 237.372M47.1807 242.506L50.5806 244.172M43.8489 249.306L47.2488 250.972M40.5171 256.105L43.917 257.771M37.1854 262.905L40.5853 264.571M33.8536 269.705L37.2535 271.371M30.5218 276.505L33.9217 278.171M27.19 283.305L30.5899 284.971M23.8583 290.104L27.2582 291.77M20.5265 296.904L23.9264 298.57" stroke="#CCD5E2" stroke-width="2" stroke-miterlimit="10"/>
<path d="M64.0442 233.903L67.4441 235.569M60.7124 240.703L64.1123 242.369M57.3806 247.503L60.7805 249.169M54.0489 254.303L57.4488 255.969M50.7171 261.103L54.117 262.768M47.3853 267.902L50.7852 269.568M50.8533 278.034L54.2532 279.7M57.7894 298.297L61.1893 299.963" stroke="white" stroke-width="2" stroke-miterlimit="10"/>
<path d="M70.8438 237.235L77.6443 240.568" stroke="#FF6490" stroke-width="2" stroke-miterlimit="10"/>
<path d="M120.142 261.391L123.542 263.057M99.8112 259.861L103.211 261.527" stroke="white" stroke-width="2" stroke-miterlimit="10"/>
<path d="M94.7795 265.828L98.1798 267.494" stroke="#FFEB5C" stroke-width="2" stroke-miterlimit="10"/>
<path d="M81.0435 242.233L87.8433 245.565M91.2432 247.231L104.843 253.895M108.243 255.56L116.742 259.725M130.478 283.32L133.878 284.986M147.478 291.65L150.878 293.315M74.3799 255.833L91.3794 264.162" stroke="white" stroke-width="2" stroke-miterlimit="10"/>
<path d="M101.579 269.16L115.179 275.824" stroke="#CCD5E2" stroke-width="2" stroke-miterlimit="10"/>
<path d="M118.579 277.489L127.08 281.654" stroke="#FFEB5C" stroke-width="2" stroke-miterlimit="10"/>
<path d="M67.5121 244.035L77.7118 249.033" stroke="#FF6490" stroke-width="2" stroke-miterlimit="10"/>
<path d="M81.1116 250.699L96.4111 258.196" stroke="#7DFF86" stroke-width="2" stroke-miterlimit="10"/>
<path d="M152.51 285.682L155.91 287.349" stroke="white" stroke-width="2" stroke-miterlimit="10"/>
<path d="M106.611 263.193L149.11 284.017" stroke="#FFEB5C" stroke-width="2" stroke-miterlimit="10"/>
<path d="M71.2527 288.029L74.6526 289.695M96.7519 300.523L105.252 304.688" stroke="#7DFF86" stroke-width="2" stroke-miterlimit="10"/>
<path d="M57.6528 281.366L67.8525 286.364" stroke="#FF6490" stroke-width="2" stroke-miterlimit="10"/>
<path d="M78.0525 291.361L93.3521 298.858M108.652 306.354L129.051 316.35" stroke="#FFEB5C" stroke-width="2" stroke-miterlimit="10"/>
<path d="M64.1803 250.835L70.9801 254.167M137.278 286.652L144.078 289.983M60.8486 257.635L67.6484 260.967" stroke="#FF6490" stroke-width="2" stroke-miterlimit="10"/>
<path d="M57.5169 264.435L71.1165 271.098M71.1846 279.564L91.584 289.559M74.5164 272.764L77.9163 274.43" stroke="white" stroke-width="2" stroke-miterlimit="10"/>
<path d="M54.1851 271.234L67.7847 277.898" stroke="#FF6490" stroke-width="2" stroke-miterlimit="10"/>
<path d="M57.7212 289.832L64.521 293.164M78.2568 316.759L85.0566 320.09M71.3889 304.961L91.7883 314.957M101.988 319.954L122.387 329.95" stroke="white" stroke-width="2" stroke-miterlimit="10"/>
<path d="M64.5891 301.63L67.989 303.296M95.1882 316.623L98.5881 318.288M54.4575 305.098L57.8574 306.764" stroke="#FF6490" stroke-width="2" stroke-miterlimit="10"/>
<path d="M61.2573 308.429L74.8569 315.092" stroke="#76D8FF" stroke-width="2" stroke-miterlimit="10"/>
</g>
<g clip-path="url(#clip3_1_16)">
<path fill-rule="evenodd" clip-rule="evenodd" d="M1150 72H1162.5C1169.4 72 1175 77.6 1175 84.5C1175 91.3725 1169.44 96.9575 1162.58 97H1150V132H1177.5V119.5C1177.5 112.6 1183.1 107 1190 107C1196.87 107 1202.46 112.558 1202.5 119.42V132H1220V62H1150V72Z" fill="#F8D491"/>
<path fill-rule="evenodd" clip-rule="evenodd" d="M1207.5 27V19.3875C1207.44 9.78004 1199.62 2 1190 2C1180.34 2 1172.5 9.8425 1172.5 19.5V27H1150C1147.24 27 1145 29.2375 1145 32V72C1145 74.7625 1147.24 77 1150 77H1162.5C1166.64 77 1170 80.36 1170 84.5C1170 88.6225 1166.66 91.975 1162.58 92H1150C1147.24 92 1145 94.2375 1145 97V102C1145 104.76 1147.24 107 1150 107C1152.76 107 1155 104.76 1155 102H1162.61C1172.22 101.94 1180 94.12 1180 84.5C1180 74.8425 1172.16 67 1162.5 67H1155V37H1177.5C1180.26 37 1182.5 34.7625 1182.5 32V19.5C1182.5 15.36 1185.86 12 1190 12C1194.12 12 1197.48 15.335 1197.5 19.42V32C1197.5 34.7625 1199.74 37 1202.5 37H1245V72C1245 74.7625 1247.24 77 1250 77H1262.5C1266.64 77 1270 80.36 1270 84.5C1270 88.6225 1266.66 91.975 1262.58 92H1250C1247.24 92 1245 94.2375 1245 97V127H1207.5V119.388C1207.44 109.78 1199.62 102 1190 102C1180.34 102 1172.5 109.843 1172.5 119.5V127H1155V122C1155 119.24 1152.76 117 1150 117C1147.24 117 1145 119.24 1145 122V132C1145 134.763 1147.24 137 1150 137H1177.5C1180.26 137 1182.5 134.763 1182.5 132V119.5C1182.5 115.36 1185.86 112 1190 112C1194.12 112 1197.48 115.335 1197.5 119.42V132C1197.5 134.763 1199.74 137 1202.5 137H1250C1252.76 137 1255 134.763 1255 132V102H1262.61C1272.22 101.94 1280 94.12 1280 84.5C1280 74.8425 1272.16 67 1262.5 67H1255V32C1255 29.2375 1252.76 27 1250 27H1207.5Z" fill="#364F6B"/>
</g>
<g clip-path="url(#clip4_1_16)">
<path fill-rule="evenodd" clip-rule="evenodd" d="M290 72H277.5C270.6 72 265 77.6 265 84.5C265 91.3725 270.558 96.9575 277.42 97H290V132H262.5V119.5C262.5 112.6 256.9 107 250 107C243.127 107 237.543 112.558 237.5 119.42V132H220V62H290V72Z" fill="#F8D491"/>
<path fill-rule="evenodd" clip-rule="evenodd" d="M232.5 27V19.3875C232.56 9.78004 240.38 2 250 2C259.657 2 267.5 9.8425 267.5 19.5V27H290C292.763 27 295 29.2375 295 32V72C295 74.7625 292.763 77 290 77H277.5C273.36 77 270 80.36 270 84.5C270 88.6225 273.335 91.975 277.42 92H290C292.763 92 295 94.2375 295 97V102C295 104.76 292.76 107 290 107C287.24 107 285 104.76 285 102H277.388C267.78 101.94 260 94.12 260 84.5C260 74.8425 267.843 67 277.5 67H285V37H262.5C259.737 37 257.5 34.7625 257.5 32V19.5C257.5 15.36 254.14 12 250 12C245.877 12 242.525 15.335 242.5 19.42V32C242.5 34.7625 240.263 37 237.5 37H195V72C195 74.7625 192.763 77 190 77H177.5C173.36 77 170 80.36 170 84.5C170 88.6225 173.335 91.975 177.42 92H190C192.763 92 195 94.2375 195 97V127H232.5V119.388C232.56 109.78 240.38 102 250 102C259.657 102 267.5 109.843 267.5 119.5V127H285V122C285 119.24 287.24 117 290 117C292.76 117 295 119.24 295 122V132C295 134.763 292.763 137 290 137H262.5C259.737 137 257.5 134.763 257.5 132V119.5C257.5 115.36 254.14 112 250 112C245.877 112 242.525 115.335 242.5 119.42V132C242.5 134.763 240.263 137 237.5 137H190C187.237 137 185 134.763 185 132V102H177.388C167.78 101.94 160 94.12 160 84.5C160 74.8425 167.843 67 177.5 67H185V32C185 29.2375 187.237 27 190 27H232.5Z" fill="#364F6B"/>
</g>
<g opacity="0.7">
<path d="M1207.5 337.241L1201.35 343.538C1199.98 342.585 1198.11 342.762 1196.94 343.958L1193.74 347.238C1192.58 348.437 1192.44 350.302 1193.43 351.654L1188.71 356.494L1171.35 339.555L1170.54 340.381L1206.08 375.066L1206.89 374.239L1189.53 357.301L1194.26 352.46C1195.63 353.413 1197.49 353.236 1198.66 352.04L1201.86 348.76C1203.03 347.562 1203.16 345.696 1202.18 344.345L1208.32 338.047C1217.75 347.687 1217.77 363.093 1208.35 372.745L1185.14 396.519C1175.57 406.332 1159.85 406.523 1150.03 396.945C1145.32 392.346 1142.63 386.063 1142.55 379.478C1142.47 372.893 1145.01 366.546 1149.61 361.833L1172.81 338.06C1182.23 328.409 1197.63 328.046 1207.5 337.241ZM1156.54 371.622C1158 373.044 1161.07 372.258 1163.41 369.866C1165.74 367.474 1166.45 364.381 1164.99 362.959C1163.54 361.537 1160.46 362.322 1158.13 364.714C1155.79 367.107 1155.08 370.199 1156.54 371.622Z" fill="#2B3030" fill-opacity="0.5"/>
<path d="M1201.8 343.9C1201.66 343.767 1201.51 343.646 1201.35 343.538L1207.5 337.241L1207.51 337.231L1208.33 338.037L1208.32 338.048L1202.18 344.345C1202.07 344.186 1201.94 344.037 1201.8 343.9ZM1194.26 352.461L1189.53 357.301L1206.89 374.24L1206.08 375.066L1170.54 340.382L1171.35 339.556L1188.71 356.495L1193.43 351.655C1193.65 351.976 1193.93 352.251 1194.26 352.461Z" fill="#2B3030"/>
<path d="M1202.18 344.345C1203.16 345.696 1203.03 347.562 1201.86 348.761L1198.66 352.041C1197.33 353.389 1195.17 353.41 1193.81 352.088C1192.46 350.767 1192.43 348.599 1193.74 347.239L1196.94 343.959C1197.64 343.221 1198.64 342.836 1199.65 342.911C1200.67 342.985 1201.59 343.512 1202.18 344.345Z" fill="#2B3030"/>
<path d="M1156.54 371.622C1155.08 370.199 1155.79 367.106 1158.13 364.714C1160.46 362.322 1163.54 361.536 1164.99 362.959C1166.45 364.382 1165.74 367.474 1163.41 369.867C1161.07 372.259 1158 373.045 1156.54 371.622Z" fill="#2B3030"/>
<path opacity="0.61" d="M1156.54 371.622C1155.08 370.199 1155.79 367.106 1158.13 364.714C1160.46 362.322 1163.54 361.536 1164.99 362.959C1166.45 364.382 1165.74 367.474 1163.41 369.867C1161.07 372.259 1158 373.045 1156.54 371.622Z" fill="#2B3030"/>
<path d="M1217.46 335.117L1211.31 341.414C1209.94 340.461 1208.08 340.638 1206.91 341.834L1203.71 345.114C1202.54 346.313 1202.41 348.178 1203.39 349.53L1198.67 354.37L1181.31 337.431L1180.5 338.258L1216.04 372.942L1216.85 372.116L1199.49 355.177L1204.22 350.337C1205.59 351.29 1207.46 351.112 1208.62 349.917L1211.83 346.637C1212.99 345.438 1213.13 343.573 1212.14 342.221L1218.29 335.924C1227.72 345.563 1227.73 360.969 1218.31 370.621L1195.11 394.394C1185.53 404.208 1169.81 404.399 1160 394.821C1155.28 390.222 1152.59 383.938 1152.51 377.354C1152.43 370.769 1154.97 364.422 1159.57 359.71L1182.77 335.936C1192.19 326.286 1207.59 325.922 1217.46 335.117ZM1166.5 369.498C1167.96 370.92 1171.03 370.134 1173.37 367.742C1175.7 365.35 1176.41 362.257 1174.96 360.835C1173.5 359.413 1170.42 360.198 1168.09 362.59C1165.76 364.983 1165.04 368.075 1166.5 369.498Z" fill="#D9E7E8"/>
<path d="M1211.77 341.775C1211.63 341.642 1211.47 341.521 1211.31 341.414L1217.46 335.116L1217.47 335.106L1218.3 335.912L1218.29 335.923L1212.14 342.22C1212.03 342.061 1211.9 341.913 1211.77 341.775ZM1204.22 350.337L1199.49 355.177L1216.85 372.115L1216.04 372.942L1180.5 338.257L1181.31 337.431L1198.67 354.37L1203.39 349.53C1203.61 349.852 1203.89 350.126 1204.22 350.337Z" fill="#B0C0C1"/>
<path d="M1212.14 342.22C1213.13 343.572 1212.99 345.437 1211.83 346.636L1208.63 349.916C1207.3 351.274 1205.12 351.301 1203.76 349.975C1202.41 348.649 1202.38 346.473 1203.71 345.114L1206.91 341.834C1207.61 341.096 1208.6 340.711 1209.61 340.786C1210.63 340.861 1211.56 341.387 1212.14 342.22Z" fill="#7A8B8E"/>
<path d="M1166.5 369.498C1165.04 368.075 1165.75 364.982 1168.09 362.59C1170.42 360.198 1173.5 359.412 1174.96 360.835C1176.41 362.258 1175.7 365.35 1173.37 367.743C1171.03 370.135 1167.96 370.921 1166.5 369.498Z" fill="#D9E7E8"/>
<path opacity="0.61" d="M1166.5 369.498C1165.04 368.075 1165.75 364.982 1168.09 362.59C1170.42 360.198 1173.5 359.412 1174.96 360.835C1176.41 362.258 1175.7 365.35 1173.37 367.743C1171.03 370.135 1167.96 370.921 1166.5 369.498Z" fill="white"/>
</g>
<g opacity="0.7">
<path d="M236.42 336.241L242.566 342.538C243.941 341.585 245.803 341.762 246.973 342.958L250.174 346.238C251.341 347.437 251.473 349.302 250.487 350.654L255.211 355.494L272.567 338.555L273.374 339.381L237.836 374.066L237.03 373.239L254.385 356.301L249.661 351.46C248.286 352.413 246.424 352.236 245.254 351.04L242.053 347.76C240.886 346.562 240.754 344.696 241.74 343.345L235.594 337.047C226.162 346.687 226.151 362.093 235.569 371.745L258.772 395.519C268.35 405.332 284.07 405.523 293.884 395.945C298.597 391.346 301.289 385.063 301.369 378.478C301.45 371.893 298.911 365.546 294.311 360.833L271.109 337.06C261.688 327.409 246.286 327.046 236.42 336.241ZM287.377 370.622C285.92 372.044 282.845 371.258 280.511 368.866C278.176 366.474 277.465 363.381 278.922 361.959C280.38 360.537 283.454 361.322 285.789 363.714C288.124 366.107 288.835 369.199 287.377 370.622Z" fill="#2B3030" fill-opacity="0.5"/>
<path d="M242.112 342.9C242.253 342.767 242.405 342.646 242.566 342.538L236.42 336.241L236.41 336.231L235.583 337.037L235.594 337.048L241.74 343.345C241.851 343.186 241.976 343.037 242.112 342.9ZM249.661 351.461L254.385 356.301L237.03 373.24L237.836 374.066L273.374 339.382L272.568 338.556L255.211 355.495L250.488 350.655C250.269 350.976 249.988 351.251 249.661 351.461Z" fill="#2B3030"/>
<path d="M241.74 343.345C240.754 344.696 240.886 346.562 242.053 347.761L245.254 351.041C246.582 352.389 248.75 352.41 250.104 351.088C251.458 349.767 251.49 347.599 250.174 346.239L246.973 342.959C246.274 342.221 245.279 341.836 244.265 341.911C243.25 341.985 242.323 342.512 241.74 343.345Z" fill="#2B3030"/>
<path d="M287.377 370.622C288.835 369.199 288.124 366.106 285.79 363.714C283.455 361.322 280.381 360.536 278.923 361.959C277.465 363.382 278.176 366.474 280.51 368.867C282.845 371.259 285.92 372.045 287.377 370.622Z" fill="#2B3030"/>
<path opacity="0.61" d="M287.377 370.622C288.835 369.199 288.124 366.106 285.79 363.714C283.455 361.322 280.381 360.536 278.923 361.959C277.465 363.382 278.176 366.474 280.51 368.867C282.845 371.259 285.92 372.045 287.377 370.622Z" fill="#2B3030"/>
<path d="M226.457 334.117L232.603 340.414C233.978 339.461 235.84 339.638 237.01 340.834L240.211 344.114C241.378 345.313 241.511 347.178 240.524 348.53L245.248 353.37L262.605 336.431L263.412 337.258L227.873 371.942L227.067 371.116L244.422 354.177L239.698 349.337C238.323 350.29 236.461 350.112 235.292 348.917L232.09 345.637C230.923 344.438 230.791 342.573 231.777 341.221L225.631 334.924C216.2 344.563 216.189 359.969 225.607 369.621L248.81 393.394C258.387 403.208 274.107 403.399 283.921 393.821C288.634 389.222 291.326 382.938 291.406 376.354C291.486 369.769 288.947 363.422 284.348 358.71L261.145 334.936C251.725 325.286 236.323 324.922 226.457 334.117ZM277.415 368.498C275.957 369.92 272.883 369.134 270.548 366.742C268.213 364.35 267.502 361.257 268.96 359.835C270.417 358.413 273.492 359.198 275.826 361.59C278.161 363.983 278.872 367.075 277.415 368.498Z" fill="#D9E7E8"/>
<path d="M232.15 340.775C232.29 340.642 232.442 340.521 232.603 340.414L226.457 334.116L226.447 334.106L225.62 334.912L225.631 334.923L231.777 341.22C231.888 341.061 232.013 340.913 232.15 340.775ZM239.698 349.337L244.422 354.177L227.067 371.115L227.873 371.942L263.412 337.257L262.605 336.431L245.249 353.37L240.525 348.53C240.307 348.852 240.025 349.126 239.698 349.337Z" fill="#B0C0C1"/>
<path d="M231.777 341.22C230.791 342.572 230.923 344.437 232.09 345.636L235.291 348.916C236.617 350.274 238.794 350.301 240.152 348.975C241.511 347.649 241.537 345.473 240.211 344.114L237.01 340.834C236.311 340.096 235.316 339.711 234.302 339.786C233.287 339.861 232.36 340.387 231.777 341.22Z" fill="#7A8B8E"/>
<path d="M277.415 368.498C278.873 367.075 278.162 363.982 275.827 361.59C273.492 359.198 270.418 358.412 268.96 359.835C267.502 361.258 268.213 364.35 270.548 366.743C272.882 369.135 275.957 369.921 277.415 368.498Z" fill="#D9E7E8"/>
<path opacity="0.61" d="M277.415 368.498C278.873 367.075 278.162 363.982 275.827 361.59C273.492 359.198 270.418 358.412 268.96 359.835C267.502 361.258 268.213 364.35 270.548 366.743C272.882 369.135 275.957 369.921 277.415 368.498Z" fill="white"/>
</g>
<rect x="97.9746" y="192.607" width="15.2314" height="7.61568" rx="3.80784" transform="rotate(28.5834 97.9746 192.607)" fill="#ECF5FF"/>
<rect x="199.31" y="342.166" width="18" height="9" rx="4.5" transform="rotate(117.574 199.31 342.166)" fill="#ECF5FF"/>
</g>
<defs>
<clipPath id="clip0_1_16">
<rect width="1440" height="400" fill="white"/>
</clipPath>
<clipPath id="clip1_1_16">
<rect width="190.03" height="184.218" fill="white" transform="translate(1201 281.549) rotate(-37.449)"/>
</clipPath>
<clipPath id="clip2_1_16">
<rect width="190.03" height="184.218" fill="white" transform="translate(63.6445 178.379) rotate(26.104)"/>
</clipPath>
<clipPath id="clip3_1_16">
<rect width="160" height="160" fill="white" transform="matrix(-1 0 0 1 1290 -8)"/>
</clipPath>
<clipPath id="clip4_1_16">
<rect width="160" height="160" fill="white" transform="translate(150 -8)"/>
</clipPath>
</defs>
</svg>
