<svg width="1441" height="768" viewBox="0 0 1441 768" fill="none" xmlns="http://www.w3.org/2000/svg">
<rect width="1441" height="768" fill="url(#paint0_linear_1_680)"/>
<g opacity="0.05">
<g clip-path="url(#clip0_1_680)">
<path d="M365.108 447.169C389.709 446.748 409.994 466.223 410.415 490.666C410.837 515.11 391.235 535.266 366.634 535.686C342.033 536.107 321.748 516.632 321.327 492.188C320.906 467.745 340.507 447.589 365.108 447.169Z" fill="#80BCFF"/>
<path d="M289.81 408.614C306.415 408.33 320.107 421.475 320.392 437.974C320.676 454.473 307.445 468.078 290.84 468.361C274.235 468.645 260.543 455.5 260.259 439.001C259.974 422.502 273.205 408.897 289.81 408.614Z" fill="#80BCFF"/>
<path d="M295.675 490.414C304.9 490.257 312.506 497.559 312.664 506.725C312.822 515.891 305.472 523.449 296.247 523.606C287.023 523.764 279.416 516.461 279.258 507.296C279.1 498.13 286.451 490.572 295.675 490.414Z" fill="#80BCFF"/>
<path d="M216.893 702.048C226.118 701.891 233.724 709.193 233.882 718.359C234.04 727.524 226.69 735.082 217.465 735.24C208.24 735.398 200.634 728.095 200.476 718.929C200.318 709.764 207.668 702.206 216.893 702.048Z" fill="#80BCFF"/>
<path d="M485.26 115.298C528.927 114.552 564.932 149.119 565.68 192.506C566.428 235.892 531.635 271.669 487.969 272.415C444.302 273.161 408.297 238.594 407.549 195.207C406.801 151.821 441.594 116.044 485.26 115.298Z" fill="#BFDEFF"/>
<path d="M998.81 135.907C1028.33 135.402 1052.67 158.772 1053.18 188.105C1053.68 217.437 1030.16 241.624 1000.64 242.129C971.119 242.633 946.778 219.264 946.272 189.931C945.766 160.599 969.289 136.411 998.81 135.907Z" fill="#BFDEFF"/>
<path d="M1004.87 597.826C1036.85 597.28 1063.22 622.597 1063.76 654.373C1064.31 686.149 1038.83 712.352 1006.85 712.899C974.868 713.445 948.498 688.128 947.95 656.352C947.402 624.576 972.884 598.373 1004.87 597.826Z" fill="#BFDEFF"/>
<path d="M378.264 241.087C393.639 240.825 406.317 252.996 406.58 268.273C406.843 283.549 394.593 296.146 379.217 296.409C363.842 296.672 351.164 284.501 350.901 269.224C350.638 253.947 362.888 241.35 378.264 241.087Z" fill="#BFDEFF"/>
<path d="M1189.62 542.639C1204.99 542.377 1217.67 554.548 1217.94 569.825C1218.2 585.101 1205.95 597.698 1190.57 597.961C1175.2 598.224 1162.52 586.053 1162.26 570.776C1161.99 555.499 1174.24 542.902 1189.62 542.639Z" fill="#80BCFF"/>
<path d="M1191.85 46.2185C1208.45 45.9348 1222.14 59.0797 1222.43 75.5786C1222.71 92.0774 1209.48 105.682 1192.88 105.966C1176.27 106.25 1162.58 93.1048 1162.29 76.606C1162.01 60.1072 1175.24 46.5022 1191.85 46.2185Z" fill="#80BCFF"/>
</g>
</g>
<path opacity="0.05" d="M76.452 49.9129C105.973 49.4085 130.314 72.7775 130.82 102.109C131.325 131.44 107.804 155.627 78.2828 156.132C48.7619 156.636 24.4207 133.267 23.9152 103.936C23.4096 74.6041 46.9311 50.4173 76.452 49.9129Z" fill="#BFDEFF"/>
<path opacity="0.05" d="M99.0647 590.351C142.731 589.605 178.736 624.172 179.483 667.558C180.231 710.944 145.439 746.72 101.773 747.466C58.1065 748.213 22.1018 713.646 21.354 670.26C20.6062 626.874 55.3984 591.097 99.0647 590.351Z" fill="#BFDEFF"/>
<defs>
<linearGradient id="paint0_linear_1_680" x1="-741.613" y1="-96.9938" x2="369.728" y2="2058.17" gradientUnits="userSpaceOnUse">
<stop stop-color="#0965CE"/>
<stop offset="1" stop-color="#01152C"/>
</linearGradient>
<clipPath id="clip0_1_680">
<rect width="1112.06" height="699.821" fill="white" transform="matrix(0.999872 -0.0159988 -0.0184483 -0.99983 121.845 720.111)"/>
</clipPath>
</defs>
</svg>
