<svg width="44" height="44" viewBox="0 0 44 44" fill="none" xmlns="http://www.w3.org/2000/svg">
<circle cx="22" cy="22" r="22" transform="rotate(179.996 22 22)" fill="#0077FF"/>
<path d="M13.5857 20.5863L18.5351 15.6363C20.4876 13.6835 23.6535 13.6833 25.6062 15.6358L22.778 18.4644C22.3874 18.0739 21.7542 18.0739 21.3637 18.4645L16.4143 23.4146L13.5857 20.5863ZM29.1421 21.9995L22.0715 29.0711L29.1421 21.9995ZM22.0715 29.0711L15 22.0004L22.0715 29.0711ZM18.5351 15.6363C20.4876 13.6835 23.6535 13.6833 25.6062 15.6358L30.5563 20.5852L27.728 23.4138L22.778 18.4644C22.3874 18.0739 21.7542 18.0739 21.3637 18.4645L18.5351 15.6363Z" fill="white" mask="url(#path-2-inside-1_1_5)"/>
</svg>
