<svg width="44" height="44" viewBox="0 0 44 44" fill="none" xmlns="http://www.w3.org/2000/svg">
<circle cx="22" cy="22" r="22" fill="#0077FF"/>
<path d="M30.4142 23.4142L25.4645 28.364C23.5118 30.3166 20.346 30.3166 18.3934 28.364L21.2218 25.5355C21.6123 25.9261 22.2455 25.9261 22.636 25.5355L27.5858 20.5858L30.4142 23.4142ZM14.8579 22L21.9289 14.9289L14.8579 22ZM21.9289 14.9289L29 22L21.9289 14.9289ZM25.4645 28.364C23.5118 30.3166 20.346 30.3166 18.3934 28.364L13.4436 23.4142L16.2721 20.5858L21.2218 25.5355C21.6123 25.9261 22.2455 25.9261 22.636 25.5355L25.4645 28.364Z" fill="white" mask="url(#path-2-inside-1_142_6580)"/>
</svg>
