<svg width="41" height="40" viewBox="0 0 41 40" fill="none" xmlns="http://www.w3.org/2000/svg">
<rect x="1.01367" y="0.5" width="39" height="39" rx="4.5" stroke="#E5E7EB"/>
<g clip-path="url(#clip0_1199_3742)">
<path d="M24.513 14.666H16.513C15.7766 14.666 15.1797 15.263 15.1797 15.9993V23.9993C15.1797 24.7357 15.7766 25.3327 16.513 25.3327H24.513C25.2494 25.3327 25.8464 24.7357 25.8464 23.9993V15.9993C25.8464 15.263 25.2494 14.666 24.513 14.666Z" stroke="#0E2A4C" stroke-width="1.33333" stroke-linecap="round" stroke-linejoin="round"/>
<path d="M17.8477 19.334V22.6673" stroke="#0E2A4C" stroke-width="1.33333" stroke-linecap="round" stroke-linejoin="round"/>
<path d="M17.8477 17.334V17.3407" stroke="#0E2A4C" stroke-width="1.33333" stroke-linecap="round" stroke-linejoin="round"/>
<path d="M20.5137 22.6673V19.334" stroke="#0E2A4C" stroke-width="1.33333" stroke-linecap="round" stroke-linejoin="round"/>
<path d="M23.1803 22.6673V20.6673C23.1803 20.3137 23.0399 19.9746 22.7898 19.7245C22.5398 19.4745 22.2006 19.334 21.847 19.334C21.4934 19.334 21.1542 19.4745 20.9042 19.7245C20.6541 19.9746 20.5137 20.3137 20.5137 20.6673" stroke="#0E2A4C" stroke-width="1.33333" stroke-linecap="round" stroke-linejoin="round"/>
</g>
<defs>
<clipPath id="clip0_1199_3742">
<rect width="16" height="16" fill="white" transform="translate(12.5137 12)"/>
</clipPath>
</defs>
</svg>
